<svg width="142" height="81" viewBox="0 0 142 81" fill="none" xmlns="http://www.w3.org/2000/svg">
<g clip-path="url(#clip0_6487_106180)">
<path d="M92.8754 2.41697C89.9764 1.05331 86.8122 0.346252 83.6084 0.346252C80.4047 0.346252 77.2405 1.05331 74.3414 2.41697C72.7419 3.14592 71.2579 4.10564 69.937 5.26546L72.1831 11.8659C75.4379 9.29811 79.4627 7.90157 83.6084 7.90157C87.7542 7.90157 91.779 9.29811 95.0338 11.8659L97.2925 5.26546C95.9651 4.10804 94.4774 3.14862 92.8754 2.41697ZM85.6099 4.71333H84.2421V6.04346C84.213 6.1884 84.1346 6.31878 84.0202 6.41246C83.9058 6.50613 83.7626 6.55732 83.6147 6.55732C83.4669 6.55732 83.3236 6.50613 83.2092 6.41246C83.0948 6.31878 83.0164 6.1884 82.9873 6.04346V4.71333H81.607C81.4406 4.71333 81.281 4.64722 81.1633 4.52956C81.0457 4.4119 80.9796 4.25231 80.9796 4.08591C80.9796 3.91951 81.0457 3.75992 81.1633 3.64225C81.281 3.52459 81.4406 3.45849 81.607 3.45849H82.9873V2.15345C83.0164 2.00851 83.0948 1.87813 83.2092 1.78445C83.3236 1.69078 83.4669 1.63959 83.6147 1.63959C83.7626 1.63959 83.9058 1.69078 84.0202 1.78445C84.1346 1.87813 84.213 2.00851 84.2421 2.15345V3.48358H85.6099C85.7763 3.48358 85.9359 3.54969 86.0536 3.66735C86.1712 3.78502 86.2373 3.9446 86.2373 4.111C86.2373 4.27741 86.1712 4.43699 86.0536 4.55466C85.9359 4.67232 85.7763 4.73842 85.6099 4.73842V4.71333Z" fill="url(#paint0_linear_6487_106180)"/>
<path d="M99.1371 25.6692C99.1371 25.5187 99.1371 25.3681 99.1371 25.2175C99.0171 21.4493 97.4272 17.8776 94.7075 15.2666C91.8144 12.5124 87.973 10.9763 83.9786 10.9763C79.9842 10.9763 76.1427 12.5124 73.2497 15.2666L44.1625 43.4503L48.4289 47.5913L52.3817 43.7515L70.1251 26.5476L76.5499 20.2734L77.5036 19.3574C79.2449 17.6959 81.5592 16.7688 83.966 16.7688C86.3728 16.7688 88.6872 17.6959 90.4285 19.3574C91.2773 20.1671 91.953 21.1407 92.4147 22.2191C92.8764 23.2976 93.1145 24.4585 93.1145 25.6316C93.1145 26.8047 92.8764 27.9656 92.4147 29.0441C91.953 30.1225 91.2773 31.0961 90.4285 31.9058C88.7395 33.5303 86.4974 34.454 84.1543 34.4908C83.8033 34.5158 83.4511 34.5158 83.1002 34.4908C81.5354 34.3635 80.0285 33.8411 78.7208 32.9724C78.2714 32.6834 77.8511 32.3514 77.466 31.9811L72.6223 27.3005L71.3674 28.4801L68.3433 31.429L72.0325 35.0053L85.1205 47.5913L89.3869 43.4629L86.0491 40.2254C89.3054 39.8071 92.3387 38.3455 94.6949 36.0593C96.1009 34.719 97.2197 33.1067 97.9833 31.3206C98.747 29.5345 99.1395 27.6118 99.1371 25.6692Z" fill="url(#paint1_linear_6487_106180)"/>
<path d="M66.0224 33.65L61.756 37.7784L71.87 47.5912L76.1365 43.4628L66.0224 33.65Z" fill="url(#paint2_linear_6487_106180)"/>
<path d="M99.1251 25.2049C97.7947 28.0107 95.6911 30.3785 93.0615 32.0301C90.4319 33.6816 87.3855 34.5484 84.2803 34.5284H84.1047C86.4478 34.4916 88.6899 33.5679 90.3789 31.9434C91.2277 31.1337 91.9034 30.1602 92.3651 29.0817C92.8268 28.0033 93.0649 26.8423 93.0649 25.6692C93.0649 24.4961 92.8268 23.3352 92.3651 22.2567C91.9034 21.1783 91.2277 20.2047 90.3789 19.395C88.6376 17.7335 86.3232 16.8065 83.9164 16.8065C81.5096 16.8065 79.1953 17.7335 77.454 19.395L70.0755 26.5476C68.9508 24.6275 68.2532 22.4875 68.0302 20.2734L73.1875 15.254C76.0777 12.4941 79.9202 10.9541 83.9164 10.9541C87.9127 10.9541 91.7552 12.4941 94.6453 15.254C97.3678 17.8591 98.9623 21.4264 99.0875 25.1924L99.1251 25.2049Z" fill="url(#paint3_linear_6487_106180)"/>
<path d="M47.3628 15.5552L43.0963 19.6836L54.2268 30.4627L58.4932 26.3343L47.3628 15.5552Z" fill="url(#paint4_linear_6487_106180)"/>
<path d="M24.8377 55.1704L16.5432 67.1039L25.5906 80.1919H18.8145L14.9621 74.2565C14.2997 73.2514 13.7125 72.1987 13.2053 71.1069C12.6403 72.1969 12.0118 73.2528 11.3231 74.2691L7.42052 80.1794H0.970642L10.0933 67.0914L1.6859 55.1704H8.27382L11.4109 60.0768C12.1488 61.2071 12.803 62.3898 13.3685 63.6155C13.9514 62.471 14.5922 61.357 15.2884 60.2776L18.5886 55.1704H24.8377Z" fill="#231F20"/>
<path d="M32.2292 77.8955C32.2365 78.1937 32.1765 78.4896 32.0536 78.7614C31.9439 79.0292 31.7818 79.2724 31.5767 79.4766C31.36 79.678 31.1093 79.8394 30.8364 79.9535C30.5456 80.0718 30.2343 80.1315 29.9203 80.1291C29.6146 80.1305 29.3117 80.0707 29.0294 79.9535C28.7601 79.8395 28.5136 79.678 28.3016 79.4766C28.0886 79.2764 27.9217 79.0324 27.8122 78.7614C27.6849 78.4907 27.6206 78.1946 27.624 77.8955C27.6222 77.5885 27.6864 77.2847 27.8122 77.0046C27.9296 76.7416 28.0956 76.5032 28.3016 76.3019C28.5136 76.1005 28.7601 75.939 29.0294 75.825C29.313 75.7133 29.6156 75.6579 29.9203 75.6619C30.2333 75.6566 30.5444 75.712 30.8364 75.825C31.111 75.9358 31.3622 76.0976 31.5767 76.3019C31.7789 76.5037 31.9407 76.7422 32.0536 77.0046C32.1765 77.2852 32.2365 77.5893 32.2292 77.8955Z" fill="#231F20"/>
<path d="M54.1637 74.5577C53.8791 75.6071 53.3791 76.5858 52.6955 77.4313C51.8274 78.5143 50.7124 79.3735 49.4439 79.9368C48.1754 80.5001 46.7904 80.7511 45.4049 80.6688C44.1447 80.7373 42.8837 80.5503 41.6977 80.119C40.5116 79.6877 39.4251 79.0211 38.5032 78.1591C37.6373 77.3113 36.9689 76.283 36.5457 75.1475C36.0685 73.9063 35.826 72.5873 35.8304 71.2575C35.7524 68.7988 36.6139 66.4027 38.2397 64.5566C39.1147 63.5721 40.1955 62.792 41.4055 62.2715C42.6156 61.7511 43.9252 61.5031 45.2417 61.545C46.566 61.503 47.8827 61.7611 49.0931 62.3001C50.3035 62.839 51.3763 63.6448 52.2312 64.657C53.7926 66.6519 54.5852 69.1412 54.4648 71.6716V72.412H41.0506C41.048 73.1851 41.1928 73.9517 41.4772 74.6707C41.7748 75.4636 42.3231 76.1378 43.0388 76.5908C43.7545 77.0437 44.5985 77.2507 45.4425 77.1803C46.0023 77.2067 46.561 77.1077 47.0777 76.8906C47.5943 76.6735 48.056 76.3438 48.429 75.9255C48.7698 75.5213 49.0489 75.0688 49.2572 74.5828H54.1637V74.5577ZM49.2447 69.2372C49.1803 68.4578 48.9628 67.6988 48.6047 67.0036C48.2421 66.3595 47.6901 65.8425 47.0236 65.5229C46.1439 65.1013 45.1433 65.0048 44.1992 65.2506C43.2552 65.4964 42.4287 66.0685 41.8662 66.8656C41.4114 67.5799 41.1359 68.3935 41.0631 69.2372H49.2447Z" fill="#231F20"/>
<path d="M86.8271 55.1704V80.1919H81.4815V72.6629C81.4815 68.6349 81.5945 64.4186 81.8329 59.989C80.9921 63.2265 80.1263 66.1377 79.1852 68.7729L75.1571 80.1794H70.7275L66.5866 68.9988C65.5377 66.0971 64.666 63.1344 63.9765 60.127C64.194 65.0209 64.3027 69.0155 64.3027 72.1108V80.1919H58.9446V55.1704H66.9756L70.8656 66.0373C71.7595 68.625 72.4764 71.2704 73.0113 73.9554C73.5853 71.2557 74.3271 68.5945 75.2324 65.9871L78.9091 55.1704H86.8648H86.8271Z" fill="#231F20"/>
<path d="M105.737 55.1202L115.537 80.2171H109.627L107.569 74.6079H97.9822L95.8866 80.2171H90.0767L99.9146 55.1202H105.737ZM106.201 70.6301L104.532 66.1126C103.855 64.3063 103.281 62.4629 102.813 60.5913C102.374 62.0721 101.772 63.8916 100.994 66.0248L99.3248 70.6301H106.201Z" fill="#231F20"/>
<path d="M118.738 55.1704H131.287C133.244 55.0589 135.197 55.4521 136.959 56.3123C138.026 56.8823 138.909 57.7443 139.504 58.7976C140.1 59.8509 140.383 61.0518 140.322 62.2602C140.339 63.1113 140.186 63.9572 139.871 64.7482C139.557 65.5391 139.087 66.2591 138.489 66.8655C137.848 67.5287 137.056 68.0279 136.181 68.3211C137.274 68.5731 138.23 69.2328 138.853 70.1657C139.417 71.0663 139.769 72.0832 139.882 73.1397C139.945 73.491 140.071 74.658 140.246 76.6281C140.247 77.7616 140.513 78.8791 141.024 79.8907L141.263 80.1668H135.377C135.203 79.813 135.076 79.4374 135.001 79.05C134.917 78.6735 134.792 77.3309 134.625 75.0219C134.449 72.9515 133.847 71.6088 132.805 70.9688C131.767 70.4678 130.617 70.2471 129.467 70.3288H124.448V80.1668H118.839V55.1704H118.738ZM124.373 59.4619V66.351H129.743C131.002 66.4579 132.266 66.2147 133.395 65.6483C133.837 65.3455 134.193 64.9331 134.429 64.4514C134.664 63.9697 134.77 63.4353 134.738 62.9002C134.79 62.2705 134.643 61.6403 134.316 61.0995C133.989 60.5587 133.5 60.1349 132.918 59.8886C131.979 59.5627 130.987 59.4179 129.994 59.4619H124.373Z" fill="#231F20"/>
</g>
<defs>
<linearGradient id="paint0_linear_6487_106180" x1="69.9244" y1="5.96817" x2="97.2674" y2="6.44501" gradientUnits="userSpaceOnUse">
<stop stop-color="#195277"/>
<stop offset="0.5" stop-color="#21B6D7"/>
<stop offset="1" stop-color="#153359"/>
</linearGradient>
<linearGradient id="paint1_linear_6487_106180" x1="3.95737" y1="-48.0025" x2="101.81" y2="67.5433" gradientUnits="userSpaceOnUse">
<stop stop-color="#70CDDE"/>
<stop offset="0.06" stop-color="#67CADD"/>
<stop offset="0.5" stop-color="#21B6D7"/>
<stop offset="1" stop-color="#153359"/>
</linearGradient>
<linearGradient id="paint2_linear_6487_106180" x1="97.406" y1="69.0741" x2="57.7781" y2="29.4588" gradientUnits="userSpaceOnUse">
<stop stop-color="#70CDDE"/>
<stop offset="0.06" stop-color="#67CADD"/>
<stop offset="0.5" stop-color="#21B6D7"/>
<stop offset="1" stop-color="#153359"/>
</linearGradient>
<linearGradient id="paint3_linear_6487_106180" x1="92.4744" y1="35.0303" x2="78.9724" y2="15.756" gradientUnits="userSpaceOnUse">
<stop stop-color="white"/>
<stop offset="1" stop-color="white" stop-opacity="0"/>
</linearGradient>
<linearGradient id="paint4_linear_6487_106180" x1="26.8085" y1="-1.39772" x2="59.7355" y2="32.1316" gradientUnits="userSpaceOnUse">
<stop stop-color="#70CDDE"/>
<stop offset="0.5" stop-color="#21B6D7"/>
<stop offset="1" stop-color="#153359"/>
</linearGradient>
<clipPath id="clip0_6487_106180">
<rect width="140.292" height="80.3378" fill="white" transform="translate(0.970703 0.346252)"/>
</clipPath>
</defs>
</svg>
