<svg width="137" height="126" viewBox="0 0 137 126" fill="none" xmlns="http://www.w3.org/2000/svg">
<g clip-path="url(#clip0_644_489)">
<path d="M84.7555 42.264C84.0398 42.2903 83.4834 42.8892 83.5097 43.6049L83.9645 55.978C84.2397 63.4621 78.8619 69.8375 71.6523 71.0048C71.6394 71.0052 71.6304 70.9969 71.6301 70.9883L71.4266 65.4528C71.4266 65.4528 71.4303 65.4354 71.4432 65.4349C76.7192 64.3948 80.6672 59.76 80.7376 54.2748L80.7289 54.2751L80.4275 46.0753L80.3617 44.2862C80.3246 43.2773 79.4799 42.4925 78.4711 42.5296L75.9102 42.6237C74.9575 42.6587 74.125 43.3844 74.078 44.3358C74.0225 45.4085 74.9004 46.2742 75.948 46.2356L76.7973 46.2044C76.7973 46.2044 76.8149 46.2124 76.8152 46.221L77.1159 54.3993C76.969 58.5059 73.6651 61.8737 69.4919 62.0271C65.3186 62.1805 61.7764 59.0644 61.3284 54.9797L61.3197 54.98L61.0191 46.8017C61.0191 46.8017 61.0271 46.7842 61.0357 46.7839L61.7945 46.756C62.7472 46.7209 63.5796 45.9953 63.6267 45.0438C63.6822 43.9712 62.8043 43.1055 61.7567 43.144L59.101 43.2417C58.0922 43.2787 57.3073 44.1235 57.3444 45.1323L57.7115 55.117C58.1843 60.5822 62.462 64.9146 67.8001 65.5645C67.8088 65.5642 67.8177 65.5725 67.818 65.5811L68.0497 71.884C68.1084 73.4792 69.4493 74.725 71.0444 74.6663L71.7644 74.6399C80.957 73.3954 87.8749 65.3489 87.527 55.8858L87.0691 43.4309C87.0436 42.7368 86.4581 42.1928 85.764 42.2183L84.7465 42.2557L84.7555 42.264Z" fill="url(#paint0_linear_644_489)"/>
<path d="M63.1969 69.8737C58.31 67.6402 54.8294 62.7949 54.6184 57.0568L54.1629 44.6665C54.1371 43.9638 53.5426 43.4115 52.8399 43.4373L51.9345 43.4706C51.1715 43.4986 50.5735 44.1423 50.6015 44.9053L51.0547 57.231C51.3208 64.4694 55.767 70.5699 61.9885 73.2897C63.375 73.8949 64.9441 72.5421 64.2581 70.9096C64.0595 70.4378 63.6623 70.0854 63.1969 69.8737Z" fill="url(#paint1_linear_644_489)"/>
<path d="M67.2362 0.670567C57.1654 1.0408 49.3002 9.50633 49.6704 19.5772L50.3104 36.9857C50.3578 38.2748 51.4394 39.2797 52.7285 39.2323L84.7993 38.0533C85.946 38.0112 86.8387 37.0459 86.7967 35.9034L86.1474 18.2406C85.777 8.16535 77.3114 0.300178 67.2362 0.670567ZM56.4453 19.5008C55.4882 19.536 54.6837 18.7885 54.6485 17.8315C54.6133 16.8744 55.3608 16.0698 56.3179 16.0347C57.2749 15.9995 58.0795 16.747 58.1147 17.704C58.1498 18.6611 57.4024 19.4657 56.4453 19.5008ZM61.4463 22.0194C60.7608 22.0446 60.1885 21.5088 60.1635 20.8276C60.1385 20.1464 60.6742 19.5699 61.3553 19.5448C62.0365 19.5198 62.6131 20.0555 62.6381 20.7366C62.6632 21.4178 62.1275 21.9944 61.4463 22.0194ZM60.8877 15.8667C59.3227 15.9242 58.0087 14.7033 57.9511 13.1383C57.8936 11.5734 59.1145 10.2593 60.6794 10.2018C62.2444 10.1443 63.5585 11.3651 63.616 12.9301C63.6735 14.495 62.4527 15.8091 60.8877 15.8667Z" fill="url(#paint2_linear_644_489)"/>
</g>
<path d="M8.18853 88.2563C10.4925 88.2563 12.5059 88.7261 14.2287 89.6657C15.9515 90.6054 17.28 91.9294 18.214 93.6379C19.1688 95.325 19.6462 97.279 19.6462 99.5C19.6462 101.7 19.1688 103.654 18.214 105.362C17.28 107.071 15.9412 108.395 14.1976 109.334C12.4748 110.274 10.4718 110.744 8.18853 110.744H0V88.2563H8.18853ZM7.84604 106.003C9.85945 106.003 11.4266 105.437 12.5474 104.305C13.6683 103.173 14.2287 101.571 14.2287 99.5C14.2287 97.4285 13.6683 95.8162 12.5474 94.663C11.4266 93.5097 9.85945 92.9331 7.84604 92.9331H5.3241V106.003H7.84604Z" fill="black"/>
<path d="M33.768 110.744L29.2222 102.255H27.9457V110.744H22.6216V88.2563H31.5574C33.2802 88.2563 34.7435 88.5659 35.9474 89.1852C37.1721 89.8045 38.0854 90.6588 38.6873 91.7479C39.2892 92.8157 39.5902 94.0116 39.5902 95.3357C39.5902 96.8305 39.1751 98.1653 38.3448 99.3398C37.5353 100.514 36.3314 101.347 34.7331 101.838L39.777 110.744H33.768ZM27.9457 98.3788H31.246C32.2216 98.3788 32.9481 98.1332 33.4255 97.6421C33.9236 97.1509 34.1727 96.4568 34.1727 95.5599C34.1727 94.7057 33.9236 94.033 33.4255 93.5418C32.9481 93.0506 32.2216 92.805 31.246 92.805H27.9457V98.3788Z" fill="black"/>
<path d="M45.4232 111C44.4891 111 43.7211 110.722 43.1192 110.167C42.538 109.591 42.2474 108.886 42.2474 108.053C42.2474 107.199 42.538 106.483 43.1192 105.907C43.7211 105.33 44.4891 105.042 45.4232 105.042C46.3365 105.042 47.0837 105.33 47.6649 105.907C48.2668 106.483 48.5678 107.199 48.5678 108.053C48.5678 108.886 48.2668 109.591 47.6649 110.167C47.0837 110.722 46.3365 111 45.4232 111Z" fill="black"/>
<path d="M68.3768 95.4958C68.3768 96.7985 68.0862 97.9944 67.505 99.0836C66.9238 100.151 66.0313 101.016 64.8274 101.678C63.6235 102.34 62.129 102.671 60.3439 102.671H57.0436V110.744H51.7195V88.2563H60.3439C62.0875 88.2563 63.5612 88.5659 64.7651 89.1852C65.969 89.8045 66.8719 90.6588 67.4739 91.7479C68.0758 92.837 68.3768 94.0864 68.3768 95.4958ZM59.9392 98.3148C60.9563 98.3148 61.7139 98.0692 62.212 97.578C62.7102 97.0868 62.9593 96.3928 62.9593 95.4958C62.9593 94.5989 62.7102 93.9048 62.212 93.4136C61.7139 92.9225 60.9563 92.6769 59.9392 92.6769H57.0436V98.3148H59.9392Z" fill="black"/>
<path d="M84.7546 106.772H76.5972L75.2895 110.744H69.7163L77.6246 88.2563H83.7894L91.6977 110.744H86.0623L84.7546 106.772ZM83.3846 102.543L80.6759 94.3106L77.9983 102.543H83.3846Z" fill="black"/>
<path d="M93.2017 99.468C93.2017 97.247 93.6687 95.2716 94.6028 93.5418C95.5368 91.7906 96.8341 90.4345 98.4946 89.4735C100.176 88.4912 102.075 88 104.192 88C106.787 88 109.008 88.7047 110.855 90.1142C112.703 91.5237 113.938 93.4457 114.56 95.8802H108.707C108.271 94.9406 107.648 94.2252 106.839 93.734C106.05 93.2428 105.147 92.9972 104.13 92.9972C102.49 92.9972 101.162 93.5845 100.145 94.7591C99.1277 95.9336 98.6192 97.5032 98.6192 99.468C98.6192 101.433 99.1277 103.002 100.145 104.177C101.162 105.351 102.49 105.939 104.13 105.939C105.147 105.939 106.05 105.693 106.839 105.202C107.648 104.711 108.271 103.995 108.707 103.056H114.56C113.938 105.49 112.703 107.412 110.855 108.822C109.008 110.21 106.787 110.904 104.192 110.904C102.075 110.904 100.176 110.423 98.4946 109.462C96.8341 108.48 95.5368 107.124 94.6028 105.394C93.6687 103.664 93.2017 101.689 93.2017 99.468Z" fill="black"/>
<path d="M130.493 110.744L123.145 100.813V110.744H117.821V88.2563H123.145V98.1226L130.43 88.2563H136.689L128.22 99.2758L137 110.744H130.493Z" fill="black"/>
<path d="M1.61119 124.199V118.712H0V118.098H3.83244V118.712H2.2369V124.199H1.61119Z" fill="#A8A8A8"/>
<path d="M4.51852 124.199V118H5.10512V120.661L4.97216 120.628C5.07644 120.345 5.2459 120.121 5.48054 119.957C5.72039 119.793 5.99675 119.711 6.3096 119.711C6.60681 119.711 6.87273 119.782 7.10737 119.924C7.34723 120.066 7.53494 120.263 7.67051 120.514C7.81129 120.759 7.88168 121.038 7.88168 121.349V124.199H7.29508V121.586C7.29508 121.319 7.24816 121.092 7.1543 120.907C7.06045 120.721 6.93009 120.579 6.76324 120.481C6.6016 120.377 6.41649 120.325 6.20792 120.325C5.99935 120.325 5.81164 120.377 5.64479 120.481C5.47793 120.579 5.34497 120.724 5.2459 120.915C5.15205 121.101 5.10512 121.324 5.10512 121.586V124.199H4.51852Z" fill="#A8A8A8"/>
<path d="M10.9104 124.297C10.5194 124.297 10.1648 124.199 9.84673 124.002C9.53387 123.8 9.2862 123.524 9.1037 123.175C8.9212 122.826 8.82996 122.43 8.82996 121.988C8.82996 121.546 8.9186 121.155 9.09588 120.817C9.27316 120.473 9.51302 120.203 9.81544 120.006C10.1231 119.81 10.4672 119.711 10.8479 119.711C11.1503 119.711 11.4188 119.771 11.6535 119.892C11.8933 120.006 12.0967 120.164 12.2635 120.366C12.4304 120.563 12.5581 120.787 12.6468 121.038C12.7354 121.284 12.7797 121.537 12.7797 121.799C12.7797 121.854 12.7771 121.917 12.7719 121.988C12.7667 122.053 12.7589 122.121 12.7484 122.192H9.20538V121.619H12.4121L12.1306 121.865C12.1775 121.565 12.1436 121.297 12.0289 121.062C11.9194 120.822 11.7603 120.634 11.5518 120.497C11.3432 120.356 11.1086 120.285 10.8479 120.285C10.5871 120.285 10.3447 120.356 10.1205 120.497C9.90148 120.639 9.72941 120.839 9.60427 121.095C9.47913 121.346 9.42959 121.647 9.45566 121.996C9.42959 122.345 9.48173 122.651 9.61209 122.913C9.74766 123.17 9.93015 123.369 10.1596 123.511C10.3942 123.653 10.6445 123.724 10.9104 123.724C11.2181 123.724 11.4762 123.647 11.6847 123.494C11.8933 123.342 12.0628 123.15 12.1931 122.921L12.6937 123.2C12.6103 123.396 12.4825 123.579 12.3104 123.748C12.1384 123.912 11.9324 124.046 11.6926 124.149C11.4579 124.248 11.1972 124.297 10.9104 124.297Z" fill="#A8A8A8"/>
<path d="M15.5731 124.199V120.424H14.7363V119.81H15.5731V119.417C15.5731 119.111 15.6383 118.854 15.7687 118.647C15.899 118.434 16.0711 118.273 16.2849 118.164C16.4987 118.055 16.7281 118 16.9732 118C17.0253 118 17.0853 118.005 17.1531 118.016C17.2208 118.022 17.2756 118.03 17.3173 118.041V118.598C17.2808 118.587 17.2313 118.581 17.1687 118.581C17.1061 118.576 17.0618 118.573 17.0357 118.573C16.7855 118.573 16.5769 118.636 16.41 118.762C16.2432 118.887 16.1597 119.105 16.1597 119.417V119.81H17.1843V120.424H16.1597V124.199H15.5731Z" fill="#A8A8A8"/>
<path d="M19.6995 124.297C19.4075 124.297 19.1416 124.226 18.9017 124.084C18.6619 123.937 18.4716 123.735 18.3308 123.478C18.1952 123.216 18.1274 122.916 18.1274 122.577V119.81H18.714V122.504C18.714 122.738 18.7583 122.946 18.847 123.126C18.9408 123.301 19.0686 123.437 19.2302 123.535C19.3971 123.634 19.5874 123.683 19.8012 123.683C20.015 123.683 20.2053 123.634 20.3721 123.535C20.539 123.432 20.6693 123.287 20.7632 123.101C20.8571 122.91 20.904 122.684 20.904 122.422V119.81H21.4906V124.199H20.904V123.347L21.0369 123.38C20.9379 123.664 20.7684 123.887 20.5286 124.051C20.2887 124.215 20.0124 124.297 19.6995 124.297Z" fill="#A8A8A8"/>
<path d="M24.3003 124.248C23.9249 124.248 23.6355 124.133 23.4322 123.904C23.2288 123.675 23.1271 123.347 23.1271 122.921V120.424H22.3528V119.81H22.5484C22.7256 119.81 22.8664 119.75 22.9707 119.629C23.075 119.504 23.1271 119.348 23.1271 119.163V118.794H23.7137V119.81H24.6366V120.424H23.7137V122.921C23.7137 123.069 23.7346 123.2 23.7763 123.314C23.818 123.423 23.8884 123.511 23.9875 123.576C24.0918 123.642 24.2299 123.675 24.402 123.675C24.4437 123.675 24.4933 123.672 24.5506 123.666C24.608 123.661 24.6575 123.655 24.6992 123.65V124.199C24.6366 124.215 24.5663 124.226 24.488 124.231C24.4098 124.242 24.3473 124.248 24.3003 124.248Z" fill="#A8A8A8"/>
<path d="M27.2153 124.297C26.9233 124.297 26.6574 124.226 26.4175 124.084C26.1777 123.937 25.9874 123.735 25.8466 123.478C25.711 123.216 25.6432 122.916 25.6432 122.577V119.81H26.2298V122.504C26.2298 122.738 26.2741 122.946 26.3628 123.126C26.4566 123.301 26.5844 123.437 26.746 123.535C26.9129 123.634 27.1032 123.683 27.317 123.683C27.5308 123.683 27.7211 123.634 27.8879 123.535C28.0548 123.432 28.1851 123.287 28.279 123.101C28.3729 122.91 28.4198 122.684 28.4198 122.422V119.81H29.0064V124.199H28.4198V123.347L28.5527 123.38C28.4537 123.664 28.2842 123.887 28.0444 124.051C27.8045 124.215 27.5281 124.297 27.2153 124.297Z" fill="#A8A8A8"/>
<path d="M30.2128 124.199V119.81H30.7994V120.53L30.7211 120.424C30.8202 120.216 30.9688 120.053 31.167 119.932C31.3703 119.812 31.6154 119.752 31.9022 119.752H32.1681V120.366H31.8005C31.4981 120.366 31.2556 120.465 31.0731 120.661C30.8906 120.858 30.7994 121.136 30.7994 121.496V124.199H30.2128Z" fill="#A8A8A8"/>
<path d="M34.7639 124.297C34.3728 124.297 34.0183 124.199 33.7002 124.002C33.3874 123.8 33.1397 123.524 32.9572 123.175C32.7747 122.826 32.6834 122.43 32.6834 121.988C32.6834 121.546 32.7721 121.155 32.9494 120.817C33.1266 120.473 33.3665 120.203 33.6689 120.006C33.9766 119.81 34.3207 119.711 34.7013 119.711C35.0038 119.711 35.2723 119.771 35.5069 119.892C35.7468 120.006 35.9501 120.164 36.117 120.366C36.2838 120.563 36.4116 120.787 36.5002 121.038C36.5889 121.284 36.6332 121.537 36.6332 121.799C36.6332 121.854 36.6306 121.917 36.6254 121.988C36.6202 122.053 36.6123 122.121 36.6019 122.192H33.0589V121.619H36.2656L35.984 121.865C36.031 121.565 35.9971 121.297 35.8823 121.062C35.7729 120.822 35.6138 120.634 35.4053 120.497C35.1967 120.356 34.962 120.285 34.7013 120.285C34.4406 120.285 34.1982 120.356 33.9739 120.497C33.755 120.639 33.5829 120.839 33.4577 121.095C33.3326 121.346 33.2831 121.647 33.3091 121.996C33.2831 122.345 33.3352 122.651 33.4656 122.913C33.6011 123.17 33.7836 123.369 34.0131 123.511C34.2477 123.653 34.498 123.724 34.7639 123.724C35.0715 123.724 35.3296 123.647 35.5382 123.494C35.7468 123.342 35.9162 123.15 36.0466 122.921L36.5472 123.2C36.4637 123.396 36.336 123.579 36.1639 123.748C35.9918 123.912 35.7859 124.046 35.546 124.149C35.3114 124.248 35.0507 124.297 34.7639 124.297Z" fill="#A8A8A8"/>
<path d="M40.9596 124.297C40.5633 124.297 40.2035 124.199 39.8803 124.002C39.557 123.8 39.2989 123.527 39.1059 123.183C38.9182 122.834 38.8244 122.438 38.8244 121.996C38.8244 121.559 38.9182 121.169 39.1059 120.825C39.2937 120.481 39.5466 120.211 39.8646 120.014C40.1879 119.812 40.5529 119.711 40.9596 119.711C41.3663 119.711 41.7287 119.81 42.0468 120.006C42.37 120.203 42.6229 120.473 42.8054 120.817C42.9931 121.161 43.087 121.554 43.087 121.996C43.087 122.444 42.9905 122.842 42.7976 123.191C42.6047 123.535 42.3466 123.806 42.0233 124.002C41.7052 124.199 41.3507 124.297 40.9596 124.297ZM40.9596 123.683C41.2412 123.683 41.4941 123.609 41.7183 123.462C41.9477 123.314 42.1276 123.112 42.2579 122.856C42.3935 122.599 42.4613 122.313 42.4613 121.996C42.4613 121.679 42.3935 121.395 42.2579 121.144C42.1276 120.893 41.9477 120.694 41.7183 120.547C41.4941 120.399 41.2412 120.325 40.9596 120.325C40.678 120.325 40.4225 120.399 40.1931 120.547C39.9689 120.694 39.789 120.893 39.6534 121.144C39.5179 121.395 39.4501 121.679 39.4501 121.996C39.4501 122.313 39.5179 122.599 39.6534 122.856C39.789 123.112 39.9689 123.314 40.1931 123.462C40.4225 123.609 40.678 123.683 40.9596 123.683Z" fill="#A8A8A8"/>
<path d="M44.399 124.199V120.424H43.5621V119.81H44.399V119.417C44.399 119.111 44.4641 118.854 44.5945 118.647C44.7248 118.434 44.8969 118.273 45.1107 118.164C45.3245 118.055 45.5539 118 45.799 118C45.8511 118 45.9111 118.005 45.9789 118.016C46.0467 118.022 46.1014 118.03 46.1431 118.041V118.598C46.1066 118.587 46.0571 118.581 45.9945 118.581C45.9319 118.576 45.8876 118.573 45.8615 118.573C45.6113 118.573 45.4027 118.636 45.2358 118.762C45.069 118.887 44.9856 119.105 44.9856 119.417V119.81H46.0102V120.424H44.9856V124.199H44.399Z" fill="#A8A8A8"/>
<path d="M50.4879 124.297C50.1281 124.297 49.8022 124.212 49.5102 124.043C49.2234 123.868 49.007 123.623 48.861 123.306L48.9549 123.216V124.199H48.3683V118H48.9549V120.792L48.861 120.62C49.0279 120.342 49.2495 120.121 49.5258 119.957C49.8074 119.793 50.1281 119.711 50.4879 119.711C50.8841 119.711 51.2361 119.812 51.5437 120.014C51.8566 120.211 52.1017 120.481 52.2789 120.825C52.4614 121.169 52.5527 121.562 52.5527 122.004C52.5527 122.441 52.4614 122.834 52.2789 123.183C52.1017 123.527 51.8566 123.8 51.5437 124.002C51.2361 124.199 50.8841 124.297 50.4879 124.297ZM50.4566 123.683C50.7381 123.683 50.9884 123.609 51.2074 123.462C51.4316 123.314 51.6063 123.115 51.7314 122.864C51.8618 122.607 51.927 122.321 51.927 122.004C51.927 121.682 51.8618 121.395 51.7314 121.144C51.6063 120.893 51.4316 120.694 51.2074 120.547C50.9884 120.399 50.7381 120.325 50.4566 120.325C50.175 120.325 49.9195 120.399 49.6901 120.547C49.4659 120.694 49.286 120.896 49.1504 121.153C49.0201 121.404 48.9549 121.687 48.9549 122.004C48.9549 122.321 49.0201 122.607 49.1504 122.864C49.286 123.115 49.4659 123.314 49.6901 123.462C49.9195 123.609 50.175 123.683 50.4566 123.683Z" fill="#A8A8A8"/>
<path d="M53.585 124.199V118H54.1716V124.199H53.585Z" fill="#A8A8A8"/>
<path d="M55.3723 124.199V119.81H55.9589V124.199H55.3723ZM55.3723 118.999V118.098H55.9589V118.999H55.3723Z" fill="#A8A8A8"/>
<path d="M58.6144 124.297C58.2129 124.297 57.8609 124.19 57.5585 123.977C57.2561 123.765 57.0371 123.475 56.9015 123.11L57.3943 122.864C57.5142 123.131 57.681 123.344 57.8948 123.503C58.1138 123.661 58.3537 123.74 58.6144 123.74C58.8647 123.74 59.0758 123.677 59.2479 123.552C59.42 123.421 59.506 123.251 59.506 123.044C59.506 122.891 59.4643 122.771 59.3809 122.684C59.2974 122.591 59.201 122.52 59.0915 122.471C58.982 122.422 58.8855 122.386 58.8021 122.364L58.1999 122.184C57.814 122.07 57.535 121.909 57.363 121.701C57.1909 121.494 57.1049 121.253 57.1049 120.981C57.1049 120.724 57.1674 120.5 57.2926 120.309C57.4177 120.118 57.5872 119.971 57.801 119.867C58.0148 119.763 58.252 119.711 58.5127 119.711C58.8673 119.711 59.1879 119.81 59.4747 120.006C59.7667 120.197 59.9727 120.465 60.0926 120.809L59.592 121.054C59.4878 120.809 59.3366 120.618 59.1384 120.481C58.9455 120.339 58.7291 120.268 58.4892 120.268C58.2546 120.268 58.0669 120.331 57.9261 120.456C57.7853 120.582 57.7149 120.74 57.7149 120.931C57.7149 121.079 57.7514 121.196 57.8244 121.284C57.8974 121.371 57.9809 121.436 58.0747 121.48C58.1738 121.524 58.2598 121.556 58.3328 121.578L59.0289 121.791C59.3678 121.895 59.6312 122.056 59.8189 122.274C60.0118 122.493 60.1083 122.749 60.1083 123.044C60.1083 123.284 60.0431 123.5 59.9127 123.691C59.7876 123.882 59.6129 124.032 59.3887 124.141C59.1645 124.245 58.9064 124.297 58.6144 124.297Z" fill="#A8A8A8"/>
<path d="M62.7424 124.248C62.367 124.248 62.0776 124.133 61.8742 123.904C61.6709 123.675 61.5692 123.347 61.5692 122.921V120.424H60.7949V119.81H60.9904C61.1677 119.81 61.3085 119.75 61.4128 119.629C61.517 119.504 61.5692 119.348 61.5692 119.163V118.794H62.1558V119.81H63.0787V120.424H62.1558V122.921C62.1558 123.069 62.1766 123.2 62.2184 123.314C62.2601 123.423 62.3305 123.511 62.4295 123.576C62.5338 123.642 62.672 123.675 62.8441 123.675C62.8858 123.675 62.9353 123.672 62.9927 123.666C63.05 123.661 63.0996 123.655 63.1413 123.65V124.199C63.0787 124.215 63.0083 124.226 62.9301 124.231C62.8519 124.242 62.7893 124.248 62.7424 124.248Z" fill="#A8A8A8"/>
<path d="M65.9269 124.297C65.5359 124.297 65.1813 124.199 64.8632 124.002C64.5504 123.8 64.3027 123.524 64.1202 123.175C63.9377 122.826 63.8465 122.43 63.8465 121.988C63.8465 121.546 63.9351 121.155 64.1124 120.817C64.2897 120.473 64.5295 120.203 64.832 120.006C65.1396 119.81 65.4837 119.711 65.8644 119.711C66.1668 119.711 66.4353 119.771 66.67 119.892C66.9098 120.006 67.1132 120.164 67.28 120.366C67.4469 120.563 67.5746 120.787 67.6633 121.038C67.7519 121.284 67.7962 121.537 67.7962 121.799C67.7962 121.854 67.7936 121.917 67.7884 121.988C67.7832 122.053 67.7754 122.121 67.7649 122.192H64.2219V121.619H67.4286L67.1471 121.865C67.194 121.565 67.1601 121.297 67.0454 121.062C66.9359 120.822 66.7769 120.634 66.5683 120.497C66.3597 120.356 66.1251 120.285 65.8644 120.285C65.6037 120.285 65.3612 120.356 65.137 120.497C64.918 120.639 64.7459 120.839 64.6208 121.095C64.4956 121.346 64.4461 121.647 64.4722 121.996C64.4461 122.345 64.4983 122.651 64.6286 122.913C64.7642 123.17 64.9467 123.369 65.1761 123.511C65.4107 123.653 65.661 123.724 65.9269 123.724C66.2346 123.724 66.4927 123.647 66.7013 123.494C66.9098 123.342 67.0793 123.15 67.2096 122.921L67.7102 123.2C67.6268 123.396 67.499 123.579 67.327 123.748C67.1549 123.912 66.9489 124.046 66.7091 124.149C66.4744 124.248 66.2137 124.297 65.9269 124.297Z" fill="#A8A8A8"/>
<path d="M68.8305 124.199V119.81H69.4171V120.53L69.3389 120.424C69.4379 120.216 69.5865 120.053 69.7847 119.932C69.988 119.812 70.2331 119.752 70.5199 119.752H70.7858V120.366H70.4182C70.1158 120.366 69.8733 120.465 69.6908 120.661C69.5083 120.858 69.4171 121.136 69.4171 121.496V124.199H68.8305Z" fill="#A8A8A8"/>
<path d="M72.8022 125.836V119.81H73.3888V120.792L73.295 120.62C73.4618 120.342 73.6834 120.121 73.9598 119.957C74.2414 119.793 74.562 119.711 74.9218 119.711C75.3181 119.711 75.6701 119.812 75.9777 120.014C76.2906 120.211 76.5356 120.481 76.7129 120.825C76.8954 121.169 76.9866 121.562 76.9866 122.004C76.9866 122.441 76.8954 122.834 76.7129 123.183C76.5356 123.527 76.2906 123.8 75.9777 124.002C75.6701 124.199 75.3181 124.297 74.9218 124.297C74.562 124.297 74.2362 124.212 73.9442 124.043C73.6574 123.868 73.441 123.623 73.295 123.306L73.3888 123.216V125.836H72.8022ZM74.8905 123.683C75.1721 123.683 75.4224 123.609 75.6414 123.462C75.8656 123.314 76.0403 123.115 76.1654 122.864C76.2958 122.607 76.3609 122.321 76.3609 122.004C76.3609 121.682 76.2958 121.395 76.1654 121.144C76.0403 120.893 75.8656 120.694 75.6414 120.547C75.4224 120.399 75.1721 120.325 74.8905 120.325C74.609 120.325 74.3535 120.399 74.124 120.547C73.8998 120.694 73.7199 120.896 73.5844 121.153C73.454 121.404 73.3888 121.687 73.3888 122.004C73.3888 122.321 73.454 122.607 73.5844 122.864C73.7199 123.115 73.8998 123.314 74.124 123.462C74.3535 123.609 74.609 123.683 74.8905 123.683Z" fill="#A8A8A8"/>
<path d="M79.2313 124.297C78.9654 124.297 78.7281 124.245 78.5196 124.141C78.311 124.032 78.1467 123.885 78.0268 123.699C77.9069 123.513 77.8469 123.301 77.8469 123.06C77.8469 122.831 77.8939 122.624 77.9877 122.438C78.0816 122.247 78.2276 122.086 78.4257 121.955C78.6238 121.824 78.8767 121.731 79.1844 121.677L80.8269 121.39V121.947L79.3252 122.209C79.0227 122.263 78.8037 122.364 78.6682 122.512C78.5378 122.659 78.4726 122.834 78.4726 123.036C78.4726 123.232 78.5456 123.399 78.6916 123.535C78.8428 123.672 79.0358 123.74 79.2704 123.74C79.5572 123.74 79.8075 123.677 80.0213 123.552C80.235 123.421 80.4019 123.246 80.5218 123.028C80.6417 122.809 80.7017 122.566 80.7017 122.299V121.185C80.7017 120.923 80.6105 120.71 80.428 120.547C80.2455 120.383 80.0082 120.301 79.7162 120.301C79.4607 120.301 79.2365 120.369 79.0436 120.506C78.8507 120.637 78.7073 120.809 78.6134 121.021L78.0816 120.719C78.1598 120.533 78.2823 120.364 78.4492 120.211C78.6212 120.058 78.8168 119.938 79.0358 119.851C79.2548 119.758 79.4816 119.711 79.7162 119.711C80.0239 119.711 80.295 119.774 80.5296 119.9C80.7695 120.025 80.9546 120.2 81.085 120.424C81.2205 120.642 81.2883 120.896 81.2883 121.185V124.199H80.7017V123.322L80.7877 123.412C80.7147 123.576 80.6 123.726 80.4436 123.863C80.2924 123.994 80.1125 124.1 79.9039 124.182C79.7006 124.259 79.4764 124.297 79.2313 124.297Z" fill="#A8A8A8"/>
<path d="M84.4111 124.297C83.9992 124.297 83.6368 124.196 83.3239 123.994C83.0111 123.792 82.766 123.519 82.5887 123.175C82.4114 122.826 82.3228 122.433 82.3228 121.996C82.3228 121.559 82.4114 121.169 82.5887 120.825C82.766 120.481 83.0111 120.211 83.3239 120.014C83.6368 119.812 83.9992 119.711 84.4111 119.711C84.6718 119.711 84.9169 119.76 85.1463 119.859C85.3757 119.957 85.5791 120.091 85.7564 120.26C85.9336 120.424 86.0666 120.615 86.1552 120.833L85.6234 121.12C85.5191 120.885 85.3601 120.694 85.1463 120.547C84.9325 120.399 84.6874 120.325 84.4111 120.325C84.1347 120.325 83.8845 120.399 83.6602 120.547C83.4412 120.689 83.2666 120.888 83.1362 121.144C83.0111 121.395 82.9485 121.682 82.9485 122.004C82.9485 122.321 83.0111 122.607 83.1362 122.864C83.2666 123.115 83.4412 123.314 83.6602 123.462C83.8845 123.609 84.1347 123.683 84.4111 123.683C84.6874 123.683 84.9299 123.609 85.1385 123.462C85.3523 123.314 85.5139 123.118 85.6234 122.872L86.1552 123.175C86.0666 123.388 85.9336 123.579 85.7564 123.748C85.5791 123.917 85.3757 124.051 85.1463 124.149C84.9169 124.248 84.6718 124.297 84.4111 124.297Z" fill="#A8A8A8"/>
<path d="M87.1846 124.199V118H87.7712V122.34L87.5209 122.299L89.8751 119.81H90.6338L88.9913 121.57L90.7824 124.199H90.0785L88.3969 121.767L88.7723 121.799L87.5757 123.093L87.7712 122.585V124.199H87.1846Z" fill="#A8A8A8"/>
<path d="M91.4695 124.199V119.81H92.0561V124.199H91.4695ZM91.4695 118.999V118.098H92.0561V118.999H91.4695Z" fill="#A8A8A8"/>
<path d="M93.2568 124.199V119.81H93.8434V120.661L93.7104 120.628C93.8147 120.345 93.9842 120.121 94.2188 119.957C94.4587 119.793 94.735 119.711 95.0479 119.711C95.3451 119.711 95.611 119.782 95.8457 119.924C96.0855 120.066 96.2732 120.263 96.4088 120.514C96.5496 120.759 96.62 121.038 96.62 121.349V124.199H96.0334V121.586C96.0334 121.319 95.9864 121.092 95.8926 120.907C95.8039 120.721 95.6762 120.579 95.5093 120.481C95.3477 120.377 95.16 120.325 94.9462 120.325C94.7324 120.325 94.5421 120.377 94.3753 120.481C94.2084 120.579 94.078 120.724 93.9842 120.915C93.8903 121.101 93.8434 121.324 93.8434 121.586V124.199H93.2568Z" fill="#A8A8A8"/>
<path d="M99.7269 126C99.4401 126 99.1742 125.954 98.9292 125.861C98.6893 125.768 98.4807 125.64 98.3035 125.476C98.1314 125.318 97.9984 125.132 97.9046 124.919L98.4442 124.616C98.5277 124.824 98.6763 125.004 98.89 125.157C99.1038 125.309 99.3776 125.386 99.7113 125.386C99.9668 125.386 100.201 125.334 100.415 125.23C100.629 125.127 100.801 124.974 100.931 124.772C101.062 124.57 101.127 124.321 101.127 124.027V123.052L101.221 123.142C101.075 123.459 100.858 123.705 100.572 123.879C100.285 124.048 99.972 124.133 99.6331 124.133C99.242 124.133 98.8901 124.035 98.5772 123.838C98.2643 123.642 98.0167 123.377 97.8342 123.044C97.6569 122.706 97.5682 122.332 97.5682 121.922C97.5682 121.507 97.6569 121.133 97.8342 120.8C98.0167 120.467 98.2617 120.203 98.5694 120.006C98.8822 119.81 99.2368 119.711 99.6331 119.711C99.972 119.711 100.28 119.793 100.556 119.957C100.838 120.121 101.059 120.342 101.221 120.62L101.127 120.792V119.81H101.714V124.027C101.714 124.403 101.628 124.739 101.455 125.034C101.289 125.334 101.054 125.569 100.752 125.738C100.454 125.913 100.113 126 99.7269 126ZM99.6644 123.519C99.9355 123.519 100.181 123.448 100.4 123.306C100.619 123.159 100.793 122.965 100.924 122.725C101.059 122.479 101.127 122.212 101.127 121.922C101.127 121.633 101.059 121.368 100.924 121.128C100.793 120.882 100.619 120.689 100.4 120.547C100.181 120.399 99.9355 120.325 99.6644 120.325C99.388 120.325 99.1377 120.399 98.9135 120.547C98.6893 120.689 98.512 120.88 98.3817 121.12C98.2565 121.36 98.1939 121.627 98.1939 121.922C98.1939 122.212 98.2565 122.479 98.3817 122.725C98.512 122.965 98.6867 123.159 98.9057 123.306C99.1299 123.448 99.3828 123.519 99.6644 123.519Z" fill="#A8A8A8"/>
<path d="M105.703 124.297C105.301 124.297 104.949 124.19 104.647 123.977C104.344 123.765 104.125 123.475 103.99 123.11L104.483 122.864C104.602 123.131 104.769 123.344 104.983 123.503C105.202 123.661 105.442 123.74 105.703 123.74C105.953 123.74 106.164 123.677 106.336 123.552C106.508 123.421 106.594 123.251 106.594 123.044C106.594 122.891 106.553 122.771 106.469 122.684C106.386 122.591 106.289 122.52 106.18 122.471C106.07 122.422 105.974 122.386 105.89 122.364L105.288 122.184C104.902 122.07 104.623 121.909 104.451 121.701C104.279 121.494 104.193 121.253 104.193 120.981C104.193 120.724 104.256 120.5 104.381 120.309C104.506 120.118 104.675 119.971 104.889 119.867C105.103 119.763 105.34 119.711 105.601 119.711C105.956 119.711 106.276 119.81 106.563 120.006C106.855 120.197 107.061 120.465 107.181 120.809L106.68 121.054C106.576 120.809 106.425 120.618 106.227 120.481C106.034 120.339 105.817 120.268 105.578 120.268C105.343 120.268 105.155 120.331 105.014 120.456C104.874 120.582 104.803 120.74 104.803 120.931C104.803 121.079 104.84 121.196 104.913 121.284C104.986 121.371 105.069 121.436 105.163 121.48C105.262 121.524 105.348 121.556 105.421 121.578L106.117 121.791C106.456 121.895 106.719 122.056 106.907 122.274C107.1 122.493 107.197 122.749 107.197 123.044C107.197 123.284 107.131 123.5 107.001 123.691C106.876 123.882 106.701 124.032 106.477 124.141C106.253 124.245 105.995 124.297 105.703 124.297Z" fill="#A8A8A8"/>
<path d="M110.19 124.297C109.794 124.297 109.434 124.199 109.111 124.002C108.788 123.8 108.53 123.527 108.337 123.183C108.149 122.834 108.055 122.438 108.055 121.996C108.055 121.559 108.149 121.169 108.337 120.825C108.525 120.481 108.777 120.211 109.095 120.014C109.419 119.812 109.784 119.711 110.19 119.711C110.597 119.711 110.96 119.81 111.278 120.006C111.601 120.203 111.854 120.473 112.036 120.817C112.224 121.161 112.318 121.554 112.318 121.996C112.318 122.444 112.221 122.842 112.028 123.191C111.836 123.535 111.577 123.806 111.254 124.002C110.936 124.199 110.582 124.297 110.19 124.297ZM110.19 123.683C110.472 123.683 110.725 123.609 110.949 123.462C111.179 123.314 111.358 123.112 111.489 122.856C111.624 122.599 111.692 122.313 111.692 121.996C111.692 121.679 111.624 121.395 111.489 121.144C111.358 120.893 111.179 120.694 110.949 120.547C110.725 120.399 110.472 120.325 110.19 120.325C109.909 120.325 109.653 120.399 109.424 120.547C109.2 120.694 109.02 120.893 108.884 121.144C108.749 121.395 108.681 121.679 108.681 121.996C108.681 122.313 108.749 122.599 108.884 122.856C109.02 123.112 109.2 123.314 109.424 123.462C109.653 123.609 109.909 123.683 110.19 123.683Z" fill="#A8A8A8"/>
<path d="M113.352 124.199V118H113.939V124.199H113.352Z" fill="#A8A8A8"/>
<path d="M116.626 124.297C116.334 124.297 116.068 124.226 115.828 124.084C115.588 123.937 115.398 123.735 115.257 123.478C115.121 123.216 115.054 122.916 115.054 122.577V119.81H115.64V122.504C115.64 122.738 115.685 122.946 115.773 123.126C115.867 123.301 115.995 123.437 116.156 123.535C116.323 123.634 116.514 123.683 116.727 123.683C116.941 123.683 117.132 123.634 117.298 123.535C117.465 123.432 117.596 123.287 117.689 123.101C117.783 122.91 117.83 122.684 117.83 122.422V119.81H118.417V124.199H117.83V123.347L117.963 123.38C117.864 123.664 117.695 123.887 117.455 124.051C117.215 124.215 116.939 124.297 116.626 124.297Z" fill="#A8A8A8"/>
<path d="M121.227 124.248C120.851 124.248 120.562 124.133 120.358 123.904C120.155 123.675 120.053 123.347 120.053 122.921V120.424H119.279V119.81H119.475C119.652 119.81 119.793 119.75 119.897 119.629C120.001 119.504 120.053 119.348 120.053 119.163V118.794H120.64V119.81H121.563V120.424H120.64V122.921C120.64 123.069 120.661 123.2 120.703 123.314C120.744 123.423 120.815 123.511 120.914 123.576C121.018 123.642 121.156 123.675 121.328 123.675C121.37 123.675 121.419 123.672 121.477 123.666C121.534 123.661 121.584 123.655 121.625 123.65V124.199C121.563 124.215 121.492 124.226 121.414 124.231C121.336 124.242 121.273 124.248 121.227 124.248Z" fill="#A8A8A8"/>
<path d="M122.655 124.199V119.81H123.242V124.199H122.655ZM122.655 118.999V118.098H123.242V118.999H122.655Z" fill="#A8A8A8"/>
<path d="M126.406 124.297C126.01 124.297 125.65 124.199 125.327 124.002C125.003 123.8 124.745 123.527 124.552 123.183C124.365 122.834 124.271 122.438 124.271 121.996C124.271 121.559 124.365 121.169 124.552 120.825C124.74 120.481 124.993 120.211 125.311 120.014C125.634 119.812 125.999 119.711 126.406 119.711C126.813 119.711 127.175 119.81 127.493 120.006C127.816 120.203 128.069 120.473 128.252 120.817C128.439 121.161 128.533 121.554 128.533 121.996C128.533 122.444 128.437 122.842 128.244 123.191C128.051 123.535 127.793 123.806 127.47 124.002C127.152 124.199 126.797 124.297 126.406 124.297ZM126.406 123.683C126.687 123.683 126.94 123.609 127.165 123.462C127.394 123.314 127.574 123.112 127.704 122.856C127.84 122.599 127.908 122.313 127.908 121.996C127.908 121.679 127.84 121.395 127.704 121.144C127.574 120.893 127.394 120.694 127.165 120.547C126.94 120.399 126.687 120.325 126.406 120.325C126.124 120.325 125.869 120.399 125.639 120.547C125.415 120.694 125.235 120.893 125.1 121.144C124.964 121.395 124.896 121.679 124.896 121.996C124.896 122.313 124.964 122.599 125.1 122.856C125.235 123.112 125.415 123.314 125.639 123.462C125.869 123.609 126.124 123.683 126.406 123.683Z" fill="#A8A8A8"/>
<path d="M129.568 124.199V119.81H130.154V120.661L130.021 120.628C130.126 120.345 130.295 120.121 130.53 119.957C130.77 119.793 131.046 119.711 131.359 119.711C131.656 119.711 131.922 119.782 132.157 119.924C132.397 120.066 132.584 120.263 132.72 120.514C132.861 120.759 132.931 121.038 132.931 121.349V124.199H132.344V121.586C132.344 121.319 132.298 121.092 132.204 120.907C132.115 120.721 131.987 120.579 131.82 120.481C131.659 120.377 131.471 120.325 131.257 120.325C131.043 120.325 130.853 120.377 130.686 120.481C130.519 120.579 130.389 120.724 130.295 120.915C130.201 121.101 130.154 121.324 130.154 121.586V124.199H129.568Z" fill="#A8A8A8"/>
<path d="M135.506 124.297C135.105 124.297 134.753 124.19 134.45 123.977C134.148 123.765 133.929 123.475 133.793 123.11L134.286 122.864C134.406 123.131 134.573 123.344 134.787 123.503C135.006 123.661 135.245 123.74 135.506 123.74C135.756 123.74 135.968 123.677 136.14 123.552C136.312 123.421 136.398 123.251 136.398 123.044C136.398 122.891 136.356 122.771 136.273 122.684C136.189 122.591 136.093 122.52 135.983 122.471C135.874 122.422 135.777 122.386 135.694 122.364L135.092 122.184C134.706 122.07 134.427 121.909 134.255 121.701C134.083 121.494 133.997 121.253 133.997 120.981C133.997 120.724 134.059 120.5 134.184 120.309C134.309 120.118 134.479 119.971 134.693 119.867C134.906 119.763 135.144 119.711 135.404 119.711C135.759 119.711 136.08 119.81 136.366 120.006C136.658 120.197 136.864 120.465 136.984 120.809L136.484 121.054C136.38 120.809 136.228 120.618 136.03 120.481C135.837 120.339 135.621 120.268 135.381 120.268C135.146 120.268 134.959 120.331 134.818 120.456C134.677 120.582 134.607 120.74 134.607 120.931C134.607 121.079 134.643 121.196 134.716 121.284C134.789 121.371 134.873 121.436 134.966 121.48C135.066 121.524 135.152 121.556 135.225 121.578L135.921 121.791C136.26 121.895 136.523 122.056 136.711 122.274C136.904 122.493 137 122.749 137 123.044C137 123.284 136.935 123.5 136.804 123.691C136.679 123.882 136.505 124.032 136.28 124.141C136.056 124.245 135.798 124.297 135.506 124.297Z" fill="#A8A8A8"/>
<defs>
<linearGradient id="paint0_linear_644_489" x1="72.1493" y1="42.7188" x2="73.3207" y2="74.5827" gradientUnits="userSpaceOnUse">
<stop stop-color="#44BCFF"/>
<stop offset="1" stop-color="#4285F4"/>
</linearGradient>
<linearGradient id="paint1_linear_644_489" x1="56.9616" y1="43.2858" x2="58.0763" y2="73.6075" gradientUnits="userSpaceOnUse">
<stop stop-color="#44BCFF"/>
<stop offset="1" stop-color="#4285F4"/>
</linearGradient>
<linearGradient id="paint2_linear_644_489" x1="67.2384" y1="0.670488" x2="68.6345" y2="38.6476" gradientUnits="userSpaceOnUse">
<stop stop-color="#44BCFF"/>
<stop offset="1" stop-color="#4285F4"/>
</linearGradient>
<clipPath id="clip0_644_489">
<rect width="36.5014" height="74.09" fill="white" transform="translate(49 1.34098) rotate(-2.10538)"/>
</clipPath>
</defs>
</svg>
