<svg width="130" height="106" viewBox="0 0 130 106" fill="none" xmlns="http://www.w3.org/2000/svg">
<path d="M89.2241 32.2679C87.4014 31.6307 85.5475 31.0863 83.6697 30.6367C84.5508 29.915 85.2978 29.0437 85.8764 28.0628C86.3659 27.2243 86.6076 26.2218 86.843 25.2523V25.249L86.8472 25.2318C86.9128 24.9606 86.987 24.6531 87.0665 24.3572C87.1526 24.0377 87.132 23.7906 87.0051 23.625C86.8675 23.4451 86.603 23.3537 86.2182 23.3537C86.1963 23.3537 86.1757 23.3537 86.1554 23.3537C85.5003 23.3693 84.7817 23.3766 83.8942 23.3766C83.3392 23.3766 82.7338 23.374 82.4087 23.3724H82.2398H82.1499C81.7265 23.3705 81.1994 23.3682 80.6859 23.3682C80.9398 22.7366 81.1857 22.1059 81.4026 21.5491V21.5475L81.4209 21.4996L81.4392 21.455L81.4405 21.4519V21.4502V21.4484L81.4421 21.4442C81.9954 20.0251 82.518 18.6842 83.1184 17.3546C83.5338 16.3781 84.2527 15.5614 85.1685 15.0254C86.0967 14.5249 87.1393 14.2746 88.1936 14.2992C93.6661 14.276 99.1606 14.2709 104.475 14.2661H104.499C106.766 14.2643 108.665 14.2623 110.144 14.2603C110.803 14.2593 111.514 14.2592 112.447 14.2592H114.341H116.359C116.295 14.3716 116.236 14.4858 116.196 14.5615V14.5629V14.5646L116.194 14.569V14.5703C116.097 14.7692 115.984 14.96 115.856 15.1411C114.947 16.3674 113.957 17.5318 112.893 18.6266C111.323 18.8533 109.738 18.9596 108.152 18.9448C106.288 18.9448 104.176 18.8306 101.874 18.6054C100.031 18.4252 98.0639 18.1738 96.0264 17.8585C92.5974 17.3285 90.1309 16.7945 90.0274 16.7721C93.4501 18.1622 97.0232 19.1483 100.674 19.7105C103.667 20.1809 106.693 20.4155 109.722 20.4122C110.153 20.4122 110.59 20.4073 111.02 20.3979C110.272 21.0486 109.485 21.6672 108.684 22.2364C106.858 22.1692 105.038 21.9882 103.235 21.6944C101.584 21.4385 99.7844 21.0965 97.8851 20.6759C94.6376 19.9567 92.2155 19.2561 92.1922 19.2491C94.7594 20.4485 97.4423 21.3828 100.199 22.0375C102.506 22.5924 104.847 22.9876 107.208 23.2203C107.029 23.3322 106.853 23.4396 106.685 23.5385C106.003 23.9443 105.291 24.3294 104.569 24.6829C103.39 24.4998 102.222 24.2572 101.067 23.956C100.069 23.7001 99.0224 23.3941 97.9573 23.0477C96.1554 22.4619 94.8911 21.949 94.8789 21.9439C97.2495 23.6038 99.9047 24.8146 102.712 25.516C102.193 25.7288 101.663 25.9293 101.136 26.1125C99.127 26.8044 97.0586 27.3097 94.9569 27.6221C94.5689 27.6699 94.178 27.6897 93.7871 27.6813H93.7767C93.0456 27.6833 92.3537 27.6853 91.8374 28.0088C91.3596 28.3082 91.1075 28.9312 90.8405 29.5907V29.5917V29.5939C90.7089 29.9441 90.5516 30.284 90.3698 30.6109C90.0263 31.188 89.644 31.7411 89.2256 32.2664L89.2241 32.2679ZM78.7587 29.6137C77.5231 29.3943 76.2302 29.1911 74.9158 29.0105V14.0044C73.9325 13.6555 73.0282 13.115 72.2552 12.4141C71.2974 11.5314 70.5933 10.4084 70.2158 9.16177C69.8384 7.91509 69.8014 6.59012 70.1088 5.32435C70.3028 4.55487 70.6153 3.82026 71.0352 3.14685C71.426 2.5253 71.9239 1.97788 72.5057 1.52995C73.0942 1.08241 73.7568 0.741876 74.4633 0.523912C75.2368 0.287548 76.0419 0.170441 76.8508 0.176624C76.9383 0.176624 77.0224 0.177721 77.1006 0.179914C77.8955 0.199014 78.6812 0.354508 79.4235 0.639614C80.8682 1.19601 82.0793 2.2295 82.8559 3.56872C83.2564 4.25969 83.5363 5.01377 83.6838 5.79867C84.024 7.44995 83.7357 9.16876 82.8753 10.6187C82.0162 12.0539 80.5922 13.2206 78.7592 13.9928L78.7587 29.6137ZM67.7827 28.2386C65.7445 28.0741 63.6191 27.9482 61.4657 27.8635C61.3489 27.8367 61.2302 27.8187 61.1106 27.8096C58.7227 27.6125 56.3609 27.1742 54.0614 26.5012C53.0071 26.1887 51.9699 25.8212 50.9541 25.4003C53.6002 24.6867 56.1016 23.5173 58.3462 21.9446L58.3378 21.9481C58.1301 22.0315 57.0155 22.4731 55.4703 22.9819C53.4157 23.6707 51.3144 24.2111 49.1825 24.599C48.7009 24.3625 48.2207 24.1103 47.755 23.8496C47.3636 23.6303 46.9708 23.3989 46.5874 23.1607C48.8778 22.9103 51.1487 22.5057 53.3847 21.9496C56.0157 21.3019 58.5768 20.3976 61.0313 19.2497L61.0207 19.253C60.6171 19.3685 58.4606 19.9763 55.6286 20.612C53.8139 21.0192 52.0842 21.357 50.4874 21.616C48.7222 21.9144 46.9418 22.114 45.1543 22.2139C44.3556 21.6535 43.5709 21.0461 42.822 20.4085C43.0447 20.4111 43.2737 20.4124 43.5025 20.4124C46.5322 20.4156 49.5574 20.1809 52.5503 19.7105C56.2015 19.1487 59.7746 18.163 63.1974 16.7733L63.1874 16.7757C62.7472 16.87 60.3908 17.3656 57.1988 17.8594C55.1599 18.1749 53.1924 18.4261 51.3511 18.6063C49.048 18.8317 46.9361 18.9459 45.0726 18.9459C43.7076 18.9545 42.3434 18.879 40.9876 18.72C39.6799 17.416 38.4719 16.0158 37.3736 14.5311C37.3488 14.4901 37.3322 14.4446 37.3246 14.3972V14.3946L37.3237 14.3898V14.3886C37.3159 14.3595 37.3034 14.3058 37.2852 14.2478C37.3466 14.2372 37.41 14.2239 37.4562 14.214H37.4597L37.4721 14.2115H37.474C37.5968 14.1803 37.7226 14.1622 37.8492 14.1575H37.8527C41.6533 14.1722 45.5945 14.1897 48.9476 14.2047H49.0803L49.5678 14.2069H49.6018L50.1502 14.2091H50.3317C54.5785 14.2274 58.97 14.2469 63.3162 14.2619C64.4162 14.2414 65.5159 14.3141 66.6036 14.479C67.3884 14.572 68.138 14.8575 68.7858 15.3101C69.4336 15.7628 69.9595 16.3685 70.3167 17.0735C70.8421 18.0361 71.2846 19.0419 71.6393 20.0797C71.9045 20.8041 72.1854 21.5076 72.4828 22.2523L72.5079 22.315L72.5099 22.3201L72.5124 22.3263L72.5508 22.423C72.6663 22.7129 72.7972 23.0415 72.9286 23.3764H72.9169C72.5669 23.3764 72.2209 23.3764 71.9586 23.3764H71.7122H71.5014H71.0779C70.6884 23.3764 70.2128 23.3753 69.7383 23.3753C68.9926 23.3753 68.3685 23.3769 67.7743 23.3802C67.1651 23.3841 66.8021 23.4245 66.6295 23.6272C66.457 23.8299 66.4714 24.2051 66.5632 24.8231C66.7374 26.0322 67.1523 27.1941 67.7833 28.2401L67.7827 28.2386Z" fill="#F3A63D"/>
<path d="M49.3781 78.7648C37.6681 75.0011 30.0144 67.1219 26.2037 55.4996C25.6057 53.6745 25.4313 51.6977 25.1772 49.7765C24.8943 47.633 25.6238 45.7735 27.173 44.2846C28.099 43.3952 29.1288 42.6145 30.1407 41.7605C31.6848 43.3211 33.1213 44.7735 34.5946 46.2621C33.979 46.7346 33.3421 47.1691 32.7688 47.675C31.503 48.792 31.4472 49.9095 32.5814 51.1739C33.5947 52.3033 34.9325 52.9335 36.3018 53.5075C39.7178 54.9407 43.3152 55.6844 46.9494 56.2675C53.5142 57.3001 60.1824 57.5064 66.7984 56.8814C71.763 56.4318 76.6786 55.6555 81.2748 53.6043C82.5212 53.0383 83.6767 52.2905 84.7035 51.3853C85.9945 50.2521 85.8492 48.8995 84.5328 47.7957C82.8727 46.4038 80.9051 45.5992 78.8809 44.9318C74.2796 43.4147 69.518 42.7081 64.7152 42.2374C63.0411 42.0729 61.3606 41.9733 59.5732 41.8353C60.5401 40.4869 61.5655 39.258 62.3572 37.8926C63.0921 36.6245 64.0324 36.4589 65.3731 36.5687C70.0286 36.9493 74.6574 37.4682 79.171 38.7073C82.2005 39.5392 85.1212 40.6583 87.8022 42.3425C91.8363 44.8766 92.8723 47.2201 92.1375 51.9507C90.1269 64.8963 79.6572 77.0726 65.4356 79.7008C63.3553 80.09 61.2437 80.2878 59.1274 80.2918C55.8178 80.2952 52.5281 79.7799 49.3781 78.7648ZM35.1014 59.2765C35.6012 60.1059 36.0546 60.9681 36.6077 61.7601C40.1923 66.8947 45.1306 70.2186 50.9392 72.3356C51.9404 72.6726 52.9662 72.9314 54.0074 73.1097C54.2799 73.1724 54.566 73.1279 54.8066 72.9855C55.0471 72.8431 55.2237 72.6136 55.2997 72.3445C55.4825 71.7792 55.3874 71.1851 54.8696 70.7975C54.5596 70.5669 54.2115 70.3925 53.8413 70.282C49.2861 68.9514 45.4033 66.5499 42.0942 63.1449C41.0957 62.1378 39.9698 61.2655 38.7452 60.5503C37.6922 59.9253 36.458 59.6047 35.3041 59.1496L35.1014 59.2765ZM50.0292 51.4844C48.7919 51.334 47.5557 51.1554 46.3342 50.9125C45.9313 50.8047 45.5649 50.5899 45.274 50.291C40.9604 46.1451 36.6559 41.9899 32.3608 37.8252C32.2606 37.7287 32.1506 37.6424 32.0109 37.5221C29.8627 39.0352 27.8409 38.9374 26.2324 37.2778C25.0301 36.0372 24.7241 34.0151 25.691 32.5833C26.6656 31.1404 27.7284 29.759 28.8733 28.4471C30.0325 27.1179 31.8974 26.8227 33.5401 27.525C34.292 27.85 34.9207 28.4063 35.3348 29.113C35.749 29.8197 35.927 30.64 35.8432 31.4548C35.792 32.0878 35.9711 32.428 36.4988 32.7431C40.0326 34.8568 43.5508 36.9996 47.0765 39.1281C50.6225 41.2688 54.17 43.4065 57.719 45.541C61.1066 47.5799 64.4952 49.6174 67.8849 51.6535C68.1096 51.7776 68.2885 51.9706 68.3952 52.204C67.1393 52.204 65.883 52.1907 64.6277 52.206C64.0598 52.2132 63.4919 52.2168 62.9238 52.2168C58.6147 52.2332 54.3086 51.9887 50.0292 51.4844Z" fill="url(#paint0_linear_7861_128613)"/>
<path d="M50.9349 51.5897C50.6241 51.555 50.3195 51.5193 50.0296 51.484C48.6017 51.3104 47.4275 51.1287 46.3344 50.9119C45.9308 50.805 45.564 50.5902 45.2734 50.2905C41.9622 47.1082 38.6051 43.8618 35.3583 40.7223L35.3117 40.6772C34.4012 39.7967 33.3692 38.7989 32.3601 37.8235C32.2939 37.7598 32.2243 37.7013 32.1435 37.6334L32.1395 37.63C32.0985 37.5956 32.0563 37.5602 32.0102 37.5203C31.0016 38.2313 30.0148 38.5918 29.0777 38.5918C28.0358 38.5918 27.0789 38.1493 26.2328 37.2757C25.6361 36.6543 25.2557 35.8569 25.1482 35.0021C25.0301 34.1567 25.223 33.2971 25.6909 32.5831C26.6657 31.1404 27.7285 29.7591 28.8731 28.4469C29.3305 27.9208 29.9267 27.5338 30.5935 27.3303C31.3693 29.8697 32.5787 32.2557 34.168 34.3828C35.164 35.7196 36.2821 36.961 37.5078 38.091C38.9525 39.4183 40.5133 40.6136 42.1713 41.6624C43.4317 42.4572 44.6354 43.3386 45.7738 44.3001C46.6978 45.0809 47.5538 45.9387 48.3328 46.8642C49.6057 48.3959 50.481 49.9856 50.9349 51.5895V51.5897Z" fill="#404E89"/>
<path d="M59.1296 80.2913C57.4878 80.2916 55.8484 80.1658 54.2259 79.9149C52.5823 79.6584 50.9613 79.2739 49.3777 78.7646C48.2246 78.394 47.0939 77.9763 46.0176 77.5256C48.4926 77.991 51.0055 78.2246 53.5238 78.2234C55.8917 78.2243 58.2551 78.018 60.5869 77.6067C62.8273 77.2105 65.0287 76.6186 67.1657 75.8377C69.2291 75.0831 71.2214 74.1464 73.1189 73.0388C74.9579 71.9648 76.6942 70.7239 78.3057 69.3318C79.8743 67.9761 81.3074 66.4714 82.5851 64.8388C83.8379 63.2365 84.9208 61.5083 85.8163 59.6821C86.7058 57.864 87.3907 55.9528 87.8584 53.9836C88.7497 50.2066 88.8053 46.2805 88.0212 42.4798C90.0136 43.7633 91.1781 44.9737 91.7959 46.404C92.4088 47.8226 92.5146 49.5329 92.1391 51.95C91.8843 53.5777 91.5026 55.1831 90.9977 56.7513C90.4864 58.3378 89.8581 59.8842 89.1179 61.3778C88.3698 62.8871 87.5137 64.3403 86.556 65.7262C85.5899 67.124 84.5239 68.45 83.3665 69.694C81.0261 72.2174 78.3148 74.3692 75.3258 76.0754C72.2558 77.8286 68.9131 79.0538 65.4373 79.7C63.357 80.0883 61.2458 80.2863 59.1296 80.2913Z" fill="#323E75"/>
<path d="M89.8704 64.4138C96.2088 54.2005 94.9152 48.0401 94.1954 46.0695C89.9302 37.2848 72.6451 35.2493 66.5076 34.8007C65.1078 34.6986 64.9539 34.5502 64.5633 34.2515C64.1727 33.9528 63.9751 33.6699 63.4469 32.5768C63.0695 31.7282 62.7651 30.8489 62.5372 29.9486C62.5372 29.9486 94.2371 29.8197 99.1163 44.5122C99.3782 45.3011 99.427 46.0891 99.5283 46.9286C99.5142 48.1044 99.5316 49.2682 99.3409 50.341C96.8255 64.5091 80.937 74.617 80.937 74.617C80.937 74.617 85.9883 70.0878 89.8704 64.4138Z" fill="url(#paint1_linear_7861_128613)"/>
<path opacity="0.27" d="M85.0636 72.038C86.5127 70.8591 87.9052 69.6125 89.2024 68.3334C90.7901 66.7756 92.2706 65.1122 93.634 63.3547C96.9606 59.0389 99.0367 54.6595 99.8056 50.338C99.9503 49.3463 100.013 48.3443 99.9917 47.3424V47.3369C99.993 47.1854 99.9944 47.0287 99.9961 46.8743C99.9778 46.7198 99.9604 46.5659 99.944 46.4173C99.8938 45.7407 99.771 45.0715 99.5777 44.4211C99.3025 43.5975 98.941 42.8052 98.4993 42.0576C98.0568 41.312 97.5452 40.6097 96.9712 39.9599C95.7585 38.6145 94.3595 37.4496 92.8165 36.5008C89.9602 34.7007 86.2744 33.2127 81.8616 32.0774C78.1971 31.1597 74.4707 30.51 70.7118 30.1337C67.4367 29.7897 64.7758 29.685 63.438 29.6519V29.653H62.4945L62.3265 28.9721L63.1797 28.9849H63.2082C63.4458 28.9849 65.619 28.992 68.7853 29.2335C70.6002 29.3722 72.4086 29.5625 74.1591 29.7976C76.3266 30.09 78.418 30.4539 80.3738 30.88C85.3155 31.9571 89.4546 33.4357 92.676 35.2752C93.5673 35.7807 94.4246 36.344 95.2423 36.9616C96.0273 37.5545 96.7621 38.2113 97.4391 38.9252C98.0954 39.6185 98.68 40.3763 99.184 41.1871C99.6853 41.9983 100.091 42.8646 100.394 43.769C100.587 44.4192 100.71 45.0883 100.761 45.7648C100.776 45.9048 100.794 46.0634 100.813 46.2217C100.811 46.3747 100.81 46.5306 100.808 46.6902C100.829 47.6922 100.767 48.6943 100.622 49.686C99.8155 54.2205 97.5737 58.8107 93.9589 63.329C90.8829 67.1738 87.4239 70.1872 85.0647 72.0382L85.0636 72.038Z" fill="url(#paint2_linear_7861_128613)"/>
<path d="M81.0643 104.052C80.6208 103.896 80.2108 103.658 79.8562 103.349L80.893 101.249C81.0351 101.396 81.2061 101.513 81.3952 101.592C81.5844 101.672 81.7878 101.711 81.9928 101.708C82.4437 101.708 82.7832 101.474 83.0114 101.005L83.2909 100.419L79.5228 91.1705H82.6057L84.7872 97.1475L86.9415 91.1705H89.9523L85.4728 102.096C85.2326 102.743 84.808 103.306 84.2514 103.714C83.7299 104.105 83.0957 104.315 82.4443 104.314C81.9724 104.309 81.5052 104.22 81.0643 104.052ZM71.2888 99.3926C70.8147 98.9403 70.4403 98.3939 70.1896 97.7885C69.9389 97.1831 69.8174 96.532 69.833 95.8769C69.8174 95.2219 69.9389 94.5708 70.1896 93.9655C70.4403 93.3601 70.8147 92.8138 71.2888 92.3615C72.2593 91.4178 73.4687 90.9461 74.9171 90.9462C75.8065 90.9346 76.6841 91.1503 77.4669 91.5728C78.2116 91.9728 78.8345 92.5664 79.2699 93.2909L76.9262 94.715C76.7307 94.3633 76.4442 94.0707 76.0968 93.8678C75.7394 93.6567 75.331 93.5475 74.916 93.5523C74.6099 93.5438 74.3053 93.5987 74.0214 93.7135C73.7376 93.8283 73.4805 94.0006 73.2664 94.2195C73.0502 94.4371 72.8805 94.6962 72.7674 94.9813C72.6543 95.2664 72.6002 95.5715 72.6083 95.878C72.6002 96.1847 72.6543 96.4897 72.7674 96.7748C72.8805 97.0599 73.0502 97.3192 73.2664 97.5368C73.4805 97.7556 73.7376 97.9278 74.0215 98.0426C74.3054 98.1574 74.6099 98.2123 74.916 98.2038C75.331 98.2085 75.7393 98.0995 76.0968 97.8885C76.4442 97.6854 76.7307 97.3928 76.9262 97.0411L79.2699 98.4564C78.8364 99.1845 78.2132 99.7812 77.4669 100.183C76.6838 100.605 75.8057 100.821 74.916 100.809C73.468 100.808 72.2589 100.336 71.2888 99.3926ZM59.4712 99.3926C58.6027 98.4489 58.1685 97.2771 58.1686 95.8769C58.1688 94.4768 58.6029 93.305 59.4712 92.3615C59.8769 91.9056 60.3767 91.543 60.936 91.2987C61.4953 91.0545 62.101 90.9343 62.7112 90.9466C63.2407 90.9321 63.7673 91.028 64.2577 91.2282C64.7481 91.4284 65.1915 91.7284 65.5597 92.1092V91.1717H68.2546V100.583H65.5598V99.645C65.1917 100.026 64.7483 100.326 64.2579 100.526C63.7675 100.726 63.2408 100.822 62.7114 100.808C62.101 100.82 61.4952 100.7 60.9358 100.456C60.3763 100.211 59.8765 99.8486 59.4706 99.3926H59.4712ZM61.6167 97.5357C61.8283 97.7541 62.083 97.9262 62.3647 98.041C62.6463 98.1558 62.9487 98.2109 63.2528 98.2027C63.5588 98.2112 63.8634 98.1563 64.1472 98.0415C64.4311 97.9267 64.6882 97.7545 64.9024 97.5357C65.1185 97.3181 65.2882 97.0588 65.4013 96.7737C65.5144 96.4886 65.5685 96.1836 65.5604 95.8769C65.5686 95.5704 65.5145 95.2653 65.4014 94.9802C65.2882 94.6951 65.1185 94.436 64.9024 94.2184C64.6882 93.9995 64.4312 93.8272 64.1473 93.7124C63.8634 93.5976 63.5589 93.5427 63.2528 93.5512C62.9487 93.543 62.6463 93.5981 62.3646 93.7129C62.083 93.8278 61.8283 93.9999 61.6167 94.2184C61.4017 94.4366 61.233 94.696 61.1207 94.981C61.0084 95.266 60.9547 95.5707 60.963 95.8769C60.9547 96.1832 61.0082 96.4879 61.1204 96.7729C61.2327 97.0579 61.4012 97.3174 61.6161 97.5357H61.6167ZM23.9637 99.3926C23.0952 98.4489 22.661 97.2771 22.6612 95.8769C22.6613 94.4768 23.0955 93.305 23.9637 92.3615C24.3695 91.9055 24.8693 91.5428 25.4288 91.2986C25.9882 91.0543 26.5939 90.9342 27.2042 90.9466C27.7337 90.932 28.2605 91.0279 28.7509 91.2281C29.2413 91.4282 29.6847 91.7282 30.0529 92.1091V91.1717H32.7482V100.583H30.0529V99.645C29.6848 100.026 29.2415 100.326 28.7511 100.526C28.2607 100.726 27.7341 100.822 27.2046 100.808C26.5942 100.82 25.9884 100.7 25.4289 100.456C24.8694 100.211 24.3695 99.8487 23.9637 99.3926ZM26.109 97.5357C26.3207 97.7541 26.5754 97.9261 26.857 98.0409C27.1387 98.1558 27.4411 98.2108 27.7451 98.2027C28.0512 98.2112 28.3557 98.1563 28.6395 98.0415C28.9233 97.9267 29.1804 97.7545 29.3945 97.5357C29.6107 97.3181 29.7804 97.0589 29.8935 96.7738C30.0066 96.4887 30.0607 96.1836 30.0526 95.8769C30.0608 95.5703 30.0067 95.2653 29.8936 94.9802C29.7805 94.6951 29.6107 94.4359 29.3945 94.2184C29.1804 93.9995 28.9234 93.8272 28.6395 93.7124C28.3557 93.5976 28.0512 93.5427 27.7451 93.5512C27.4411 93.543 27.1386 93.5981 26.857 93.713C26.5754 93.8278 26.3206 93.9999 26.109 94.2184C25.8941 94.4366 25.7254 94.696 25.6131 94.981C25.5007 95.266 25.4471 95.5707 25.4554 95.8769C25.4471 96.1832 25.5008 96.4879 25.6131 96.773C25.7254 97.058 25.8941 97.3174 26.109 97.5357ZM54.0215 100.583V95.2452C54.032 95.0209 53.998 94.7966 53.9215 94.5855C53.8449 94.3743 53.7272 94.1804 53.5753 94.0149C53.4197 93.8584 53.233 93.7362 53.0273 93.6562C52.8215 93.5763 52.6013 93.5403 52.3808 93.5507C52.1493 93.5415 51.9183 93.5791 51.7016 93.6612C51.4849 93.7433 51.287 93.8682 51.1196 94.0285C50.9564 94.1924 50.829 94.3884 50.7452 94.604C50.6614 94.8197 50.6232 95.0503 50.6329 95.2814V100.582H47.937V95.2449C47.9475 95.0201 47.913 94.7956 47.8356 94.5843C47.7582 94.373 47.6394 94.1794 47.4862 94.0146C47.3296 93.8582 47.1421 93.7362 46.9357 93.6562C46.7293 93.5763 46.5085 93.5402 46.2874 93.5503C46.0558 93.5411 45.8248 93.5787 45.6081 93.6608C45.3914 93.7429 45.1935 93.8678 45.0262 94.0281C44.863 94.1921 44.7355 94.388 44.6518 94.6037C44.568 94.8193 44.5297 95.0499 44.5394 95.2811V100.582H41.8434V91.1717H44.5387V92.073C44.8779 91.704 45.2926 91.4123 45.7547 91.2179C46.2167 91.0236 46.7152 90.931 47.2163 90.9466C47.8009 90.9361 48.3794 91.0679 48.9019 91.3304C49.3865 91.5785 49.7969 91.9501 50.0918 92.4077C50.8611 91.4342 51.9067 90.9475 53.2287 90.9475C54.2863 90.9475 55.1322 91.2659 55.7663 91.9029C56.4005 92.5398 56.7173 93.3841 56.7168 94.4359V100.583H54.0215ZM34.8841 100.583V91.1717H37.5794V92.2352C37.8838 91.8537 38.2706 91.546 38.7108 91.3353C39.1511 91.1246 39.6333 91.0162 40.1214 91.0184H40.5264V93.7857H40.1208C39.3096 93.7857 38.6832 94.0021 38.2414 94.4348C37.7997 94.8675 37.5791 95.4534 37.5796 96.1924V100.583H34.8841ZM18.5233 100.583V95.4353C18.5356 95.1854 18.498 94.9355 18.4129 94.7002C18.3278 94.4648 18.1968 94.2487 18.0274 94.0645C17.856 93.8918 17.6504 93.7569 17.4237 93.6684C17.1971 93.5799 16.9545 93.5398 16.7114 93.5507C16.4522 93.5395 16.1935 93.5804 15.9504 93.671C15.7073 93.7615 15.4848 93.8998 15.2961 94.0778C15.1145 94.2598 14.9726 94.4776 14.8795 94.7174C14.7865 94.9571 14.7442 95.2135 14.7554 95.4704V100.583H12.0605V87.2863H14.7558V92.1632C15.1172 91.7676 15.5594 91.4543 16.0524 91.2444C16.5453 91.0346 17.0776 90.933 17.6132 90.9466C18.6948 90.9466 19.5661 91.2726 20.227 91.9246C20.888 92.5767 21.2185 93.4436 21.2185 94.5253V100.583H18.5233ZM0.522095 100.583V87.8454H6.19203C6.77971 87.8286 7.36481 87.9296 7.91285 88.1424C8.46089 88.3553 8.96078 88.6757 9.38306 89.0847C9.80068 89.4829 10.1303 89.9642 10.3506 90.4975C10.571 91.0308 10.6773 91.6044 10.6625 92.1813C10.6772 92.7581 10.571 93.3316 10.3506 93.8649C10.1302 94.3982 9.80065 94.8794 9.38306 95.2776C8.96081 95.6867 8.46093 96.0072 7.91289 96.2201C7.36485 96.433 6.77973 96.534 6.19203 96.5172H3.38868V100.583H0.522095ZM6.13811 93.8219C6.34929 93.8268 6.55913 93.7872 6.75399 93.7056C6.94886 93.6241 7.12439 93.5025 7.26917 93.3487C7.41881 93.1941 7.53615 93.0113 7.61433 92.8109C7.6925 92.6105 7.72995 92.3965 7.72449 92.1814C7.73081 91.9656 7.69377 91.7506 7.61556 91.5493C7.53736 91.348 7.41957 91.1644 7.26917 91.0094C7.1237 90.8568 6.94794 90.7363 6.75316 90.6556C6.55838 90.5749 6.34889 90.5358 6.13811 90.5408H3.38868V93.8219H6.13811Z" fill="#253165"/>
<path d="M119.904 105.176V92.2591H122.599V93.1966C122.966 92.8163 123.407 92.5165 123.896 92.3163C124.385 92.1161 124.91 92.0199 125.438 92.0337C126.049 92.0204 126.655 92.1396 127.216 92.3831C127.776 92.6266 128.277 92.9887 128.683 93.4444C129.549 94.3849 129.981 95.5583 129.981 96.9645C129.981 98.3707 129.549 99.544 128.683 100.485C128.277 100.94 127.776 101.302 127.216 101.546C126.655 101.789 126.049 101.909 125.438 101.895C124.91 101.909 124.385 101.813 123.896 101.612C123.407 101.412 122.965 101.112 122.599 100.732V105.176H119.904ZM123.257 98.6232C123.7 99.0511 124.291 99.2903 124.907 99.2903C125.522 99.2903 126.114 99.0511 126.556 98.6232C126.772 98.4056 126.942 98.1464 127.055 97.8613C127.168 97.5762 127.222 97.2711 127.214 96.9645C127.222 96.6579 127.168 96.3528 127.055 96.0677C126.942 95.7826 126.772 95.5235 126.556 95.3059C126.114 94.878 125.522 94.6389 124.907 94.6389C124.291 94.6389 123.7 94.878 123.257 95.3059C123.041 95.5235 122.871 95.7826 122.758 96.0677C122.645 96.3528 122.591 96.6579 122.599 96.9645C122.591 97.2711 122.645 97.5762 122.758 97.8613C122.871 98.1464 123.041 98.4056 123.257 98.6232H123.257ZM108.203 105.176V92.2591H110.898V93.1966C111.265 92.8163 111.707 92.5165 112.196 92.3163C112.685 92.1161 113.21 92.0199 113.738 92.0337C114.348 92.0204 114.955 92.1397 115.515 92.3832C116.075 92.6268 116.576 92.9888 116.983 93.4444C117.848 94.3849 118.28 95.5583 118.28 96.9645C118.28 98.3707 117.848 99.544 116.983 100.485C116.576 100.94 116.075 101.302 115.515 101.546C114.955 101.789 114.348 101.909 113.737 101.895C113.209 101.909 112.684 101.813 112.195 101.612C111.707 101.412 111.265 101.112 110.898 100.732V105.176H108.203ZM111.556 98.6232C111.999 99.0511 112.59 99.2903 113.206 99.2903C113.822 99.2903 114.413 99.0511 114.856 98.6232C115.072 98.4056 115.241 98.1464 115.355 97.8613C115.468 97.5762 115.522 97.2711 115.514 96.9645C115.522 96.6579 115.468 96.3528 115.355 96.0677C115.242 95.7826 115.072 95.5235 114.856 95.3059C114.413 94.878 113.822 94.6389 113.206 94.6389C112.59 94.6389 111.999 94.878 111.556 95.3059C111.34 95.5235 111.171 95.7827 111.057 96.0677C110.944 96.3528 110.89 96.6579 110.898 96.9645C110.89 97.2711 110.944 97.5762 111.057 97.8613C111.171 98.1464 111.34 98.4056 111.556 98.6232ZM103.849 101.67L103.056 99.4342H97.8817L97.0885 101.67H94.0237L98.8103 88.9328H102.19L106.986 101.67H103.849ZM102.128 96.7932L100.469 92.088L98.8103 96.7932H102.128Z" fill="#F3A63D"/>
<defs>
<linearGradient id="paint0_linear_7861_128613" x1="80.9256" y1="65.9982" x2="37.9456" y2="34.4447" gradientUnits="userSpaceOnUse">
<stop stop-color="#253165"/>
<stop offset="1" stop-color="#323E76"/>
</linearGradient>
<linearGradient id="paint1_linear_7861_128613" x1="81.0327" y1="29.9485" x2="81.0327" y2="74.617" gradientUnits="userSpaceOnUse">
<stop stop-color="#F3A63D"/>
<stop offset="1" stop-color="#202D62"/>
</linearGradient>
<linearGradient id="paint2_linear_7861_128613" x1="81.5696" y1="28.9721" x2="81.5696" y2="72.0382" gradientUnits="userSpaceOnUse">
<stop stop-color="#F3A63D"/>
<stop offset="1" stop-color="#202D62"/>
</linearGradient>
</defs>
</svg>
