<svg width="30" height="32" viewBox="0 0 30 32" fill="none" xmlns="http://www.w3.org/2000/svg">
<g clip-path="url(#clip0_520_390)">
<path d="M12.6567 21.7546L8.44813 19.3468C8.29324 19.2584 8.16491 19.1303 8.0764 18.9801C7.98789 18.8254 7.93921 18.6531 7.93921 18.4764V13.6651C7.93921 13.4884 7.98789 13.3161 8.0764 13.1615C8.16491 13.0068 8.29324 12.8831 8.44813 12.7948L12.6567 10.3869C12.8116 10.2986 12.9842 10.2544 13.1656 10.2544C13.3471 10.2544 13.5197 10.2986 13.6746 10.3869L17.8832 12.7948C18.038 12.8831 18.1664 13.0113 18.2549 13.1615C18.3434 13.3161 18.3921 13.4884 18.3921 13.6651V18.4808C18.3921 18.6575 18.3434 18.8298 18.2549 18.9845C18.1664 19.1391 18.038 19.2628 17.8832 19.3512L13.6746 21.759C13.5197 21.8474 13.3427 21.8916 13.1656 21.8916C12.9886 21.8916 12.8116 21.843 12.6567 21.7546Z" fill="#FFA30A"/>
<path d="M8.75792 10.8244L6.02743 9.26483C5.92565 9.2074 5.84599 9.12345 5.78846 9.02626C5.73093 8.92906 5.69995 8.81419 5.69995 8.69932V5.57575C5.69995 5.46088 5.73093 5.35043 5.78846 5.24882C5.84599 5.15162 5.93007 5.06768 6.02743 5.01024L8.75792 3.45067C8.85971 3.39323 8.97035 3.3623 9.08541 3.3623C9.20047 3.3623 9.31553 3.39323 9.41289 3.45067L12.1434 5.01024C12.2452 5.06768 12.3248 5.15162 12.3824 5.24882C12.4399 5.34601 12.4709 5.46088 12.4709 5.57575V8.69932C12.4709 8.81419 12.4399 8.92464 12.3824 9.02626C12.3248 9.12345 12.2407 9.2074 12.1434 9.26483L9.41289 10.8244C9.3111 10.8818 9.20047 10.9128 9.08098 10.9128C8.96592 10.9128 8.85086 10.8818 8.7535 10.8244H8.75792Z" fill="#FFA30A"/>
<path d="M8.76232 28.7307L6.03183 27.1711C5.93004 27.1136 5.85038 27.0297 5.79285 26.9325C5.73532 26.8353 5.70435 26.7204 5.70435 26.6056V23.482C5.70435 23.3671 5.73532 23.2567 5.79285 23.1551C5.85038 23.0579 5.93447 22.9739 6.03183 22.9165L8.76232 21.3569C8.8641 21.2995 8.97474 21.2686 9.0898 21.2686C9.20486 21.2686 9.31992 21.2995 9.41728 21.3569L12.1478 22.9165C12.2496 22.9739 12.3292 23.0579 12.3867 23.1551C12.4443 23.2523 12.4753 23.3671 12.4753 23.482V26.6056C12.4753 26.7204 12.4443 26.8309 12.3867 26.9325C12.3292 27.0297 12.2451 27.1136 12.1478 27.1711L9.41728 28.7307C9.3155 28.7881 9.20486 28.819 9.08538 28.819C8.97031 28.819 8.85525 28.7881 8.75789 28.7307H8.76232Z" fill="#FFA30A"/>
<path d="M3.06249 22.7883L0.331999 21.2287C0.230214 21.1713 0.150556 21.0873 0.0930252 20.9901C0.0354946 20.8929 0.0045166 20.7781 0.0045166 20.6632V17.5396C0.0045166 17.4248 0.0354946 17.3143 0.0930252 17.2127C0.150556 17.1155 0.234639 17.0315 0.331999 16.9741L3.06249 15.4145C3.16427 15.3571 3.27491 15.3262 3.38997 15.3262C3.50503 15.3262 3.62009 15.3571 3.71745 15.4145L6.44794 16.9741C6.54973 17.0315 6.62939 17.1155 6.68692 17.2127C6.74445 17.3099 6.77543 17.4248 6.77543 17.5396V20.6632C6.77543 20.7781 6.74445 20.8885 6.68692 20.9901C6.62939 21.0873 6.5453 21.1713 6.44794 21.2287L3.71745 22.7883C3.61567 22.8457 3.50503 22.8766 3.38555 22.8766C3.27048 22.8766 3.15542 22.8457 3.05806 22.7883H3.06249Z" fill="#FFA30A"/>
<path d="M24.2646 21.7546L20.056 19.3468C19.9012 19.2584 19.7728 19.1303 19.6843 18.9801C19.5958 18.8254 19.5471 18.6531 19.5471 18.4764V13.6651C19.5471 13.4884 19.5958 13.3161 19.6843 13.1615C19.7728 13.0068 19.9012 12.8831 20.056 12.7948L24.2646 10.3869C24.4195 10.2986 24.5921 10.2544 24.7736 10.2544C24.955 10.2544 25.1276 10.2986 25.2825 10.3869L29.4911 12.7948C29.646 12.8831 29.7743 13.0113 29.8628 13.1615C29.9513 13.3161 30 13.4884 30 13.6651V18.4808C30 18.6575 29.9513 18.8298 29.8628 18.9845C29.7743 19.1391 29.646 19.2628 29.4911 19.3512L25.2825 21.759C25.1276 21.8474 24.9506 21.8916 24.7736 21.8916C24.5965 21.8916 24.4195 21.843 24.2646 21.7546Z" fill="#FFA30A"/>
<path d="M18.4187 11.5046L14.2101 9.09678C14.0552 9.00842 13.9269 8.8803 13.8384 8.73008C13.7499 8.57545 13.7012 8.40315 13.7012 8.22643V3.41074C13.7012 3.23402 13.7499 3.06171 13.8384 2.90708C13.9269 2.75245 14.0552 2.62874 14.2101 2.54038L18.4187 0.132542C18.5736 0.0441806 18.7462 0 18.9276 0C19.109 0 19.2816 0.0441806 19.4365 0.132542L23.6451 2.54038C23.8 2.62874 23.9283 2.75687 24.0169 2.90708C24.1054 3.06171 24.154 3.23402 24.154 3.41074V8.22643C24.154 8.40315 24.1054 8.57545 24.0169 8.73008C23.9283 8.88472 23.8 9.00842 23.6451 9.09678L19.4365 11.5046C19.2816 11.593 19.1046 11.6372 18.9276 11.6372C18.7506 11.6372 18.5736 11.5886 18.4187 11.5002V11.5046Z" fill="#FFA30A"/>
<path d="M18.4187 31.863L14.2101 29.4552C14.0552 29.3668 13.9269 29.2387 13.8384 29.0885C13.7499 28.9338 13.7012 28.7615 13.7012 28.5848V23.7735C13.7012 23.5968 13.7499 23.4245 13.8384 23.2699C13.9269 23.1152 14.0552 22.9915 14.2101 22.9032L18.4187 20.4953C18.5736 20.407 18.7462 20.3628 18.9276 20.3628C19.109 20.3628 19.2816 20.407 19.4365 20.4953L23.6451 22.9032C23.8 22.9915 23.9283 23.1197 24.0169 23.2699C24.1054 23.4245 24.154 23.5968 24.154 23.7735V28.5892C24.154 28.7659 24.1054 28.9382 24.0169 29.0929C23.9283 29.2475 23.8 29.3712 23.6451 29.4596L19.4365 31.8674C19.2816 31.9558 19.1046 32 18.9276 32C18.7506 32 18.5736 31.9514 18.4187 31.863Z" fill="#FFA30A"/>
</g>
<defs>
<clipPath id="clip0_520_390">
<rect width="30" height="32" fill="white"/>
</clipPath>
</defs>
</svg>
