<svg width="28" height="28" viewBox="0 0 28 28" fill="none" xmlns="http://www.w3.org/2000/svg">
<path d="M0.562152 25.4286C0.694657 26.1574 1.15843 26.7537 1.7547 27.0849C2.08596 27.2837 2.41722 27.3499 2.74849 27.3499C3.60977 27.3499 4.4048 26.8862 4.80232 26.0911L13.1501 9.72675C13.1501 9.72675 13.3489 9.19673 13.8127 9.13048C13.8789 9.13048 14.0114 9.13048 14.0777 9.13048C14.1439 9.13048 14.2764 9.26298 14.2764 9.26298C14.2764 9.32924 14.4089 9.39549 14.4752 9.52799C14.4752 9.52799 14.8065 10.058 15.1377 10.7868C15.204 10.9193 15.204 10.9855 15.2702 11.1181L16.5953 13.7019C17.1253 14.8282 17.5891 15.6232 17.5891 15.6232L18.0528 16.4845C18.6491 17.6771 20.1067 18.1408 21.2992 17.5446C22.4918 16.9483 22.9555 15.4907 22.3593 14.2982L20.9017 11.4493C19.7754 9.06423 16.1315 1.90895 16.1315 1.90895C15.6677 1.11391 14.8065 0.650146 13.8789 0.650146C13.1501 0.650146 12.5539 1.04766 12.0901 1.64394C11.2951 2.70398 10.7651 4.09528 10.235 5.22157C9.5725 6.61288 8.84373 8.00418 8.1812 9.39549C5.92861 13.9669 3.60977 18.4721 1.29093 23.0435C0.893415 23.7723 0.429647 24.5011 0.562152 25.4286Z" fill="#1677FF"/>
<path d="M14.3314 9.32076C14.7952 9.98328 15.0602 10.7121 15.4577 11.4408C15.8552 12.1696 16.1865 12.9646 16.584 13.6934C16.9153 14.356 17.2465 15.0185 17.5778 15.7473C17.9091 16.3435 18.2403 17.0061 18.7703 17.4036C19.4991 17.9998 20.5592 18.0661 21.3542 17.6686C22.1492 17.2711 22.6792 16.3435 22.613 15.416C22.613 14.7535 22.2817 14.1572 21.9505 13.5609C20.1616 9.98328 18.5305 6.43467 16.6754 2.85703C16.2116 1.99575 15.5894 0.99828 14.6618 0.73327C13.8668 0.534512 12.9517 0.735724 12.3554 1.332C11.7591 1.92827 11.4163 2.76174 11.0188 3.49052C10.0912 5.4781 9.09746 7.39943 8.16992 9.38701C9.03121 8.65823 10.025 7.9957 11.1513 7.79695C12.2776 7.59819 13.5364 8.06196 14.1327 9.122" fill="#79B8FF"/>
<path d="M22.3594 24.6337C22.3594 26.025 23.4857 27.1513 24.877 27.1513H24.9432C26.3345 27.1513 27.4608 26.025 27.4608 24.6337V24.5674C27.4608 23.1761 26.3345 22.0498 24.9432 22.0498H24.877C23.4857 22.0498 22.3594 23.1761 22.3594 24.6337Z" fill="#1677FF"/>
</svg>
