<svg id="Group_17715" data-name="Group 17715" xmlns="http://www.w3.org/2000/svg" xmlns:xlink="http://www.w3.org/1999/xlink" width="85.293" height="102.838" viewBox="0 0 85.293 102.838">
  <defs>
    <clipPath id="clip-path">
      <path id="SVGID" d="M855.953,369.919c-5.331,3.35-10.489,6.74-15.793,9.887-7,4.151-14.205,7.894-22.224,10.038a3.6,3.6,0,0,0,0,.421c.507,4.079,1.121,8.148,1.5,12.239a134.3,134.3,0,0,0,3.238,19.6,49.161,49.161,0,0,0,15.164,25.525,151.855,151.855,0,0,0,17.1,13.337,1.364,1.364,0,0,0,1.807-.023,171.5,171.5,0,0,0,15.527-11.957,49.048,49.048,0,0,0,13.952-18.616,80.853,80.853,0,0,0,5.132-20.388c.585-4.271.941-8.572,1.43-12.857.277-2.429.615-4.852.918-7.223C879.7,385.754,867.758,377.773,855.953,369.919Z" transform="translate(-817.93 -369.919)" fill="none"/>
    </clipPath>
  </defs>
  <g id="Group_17699" data-name="Group 17699" transform="translate(0 0)">
    <path id="Path_17922" data-name="Path 17922" d="M800.068,371.116c12.147-3.472,22.767-9.738,33.217-16.337,2.888-1.824,5.71-3.757,8.517-5.7a1.4,1.4,0,0,1,1.9.041,209.589,209.589,0,0,0,26.74,16.122,70.666,70.666,0,0,0,14.52,5.672,3.987,3.987,0,0,1,.4.147c-.312,2.418-.654,4.809-.924,7.207-.538,4.779-.962,9.571-1.569,14.341a103.42,103.42,0,0,1-4.8,21.207,53.842,53.842,0,0,1-15.88,23,171.531,171.531,0,0,1-18.656,14.416,1.123,1.123,0,0,1-1.479.091,170.668,170.668,0,0,1-19.695-15.341,55.064,55.064,0,0,1-16.8-28.1,147.437,147.437,0,0,1-3.78-22.839c-.386-4.227-1-8.433-1.52-12.648C800.2,371.966,800.131,371.545,800.068,371.116Zm4.769,3.183a3.729,3.729,0,0,0,0,.421c.507,4.079,1.121,8.148,1.5,12.239a134.279,134.279,0,0,0,3.238,19.6,49.16,49.16,0,0,0,15.164,25.525,151.882,151.882,0,0,0,17.1,13.336,1.364,1.364,0,0,0,1.807-.023,171.617,171.617,0,0,0,15.527-11.957,49.048,49.048,0,0,0,13.952-18.617,80.828,80.828,0,0,0,5.132-20.388c.585-4.271.941-8.572,1.43-12.857.277-2.43.615-4.852.918-7.223-14-4.152-25.949-12.133-37.753-19.988-5.331,3.35-10.49,6.74-15.793,9.887C820.064,368.412,812.856,372.155,804.836,374.3Z" transform="translate(-800.068 -348.721)" fill="#20313b"/>
  </g>
  <g id="Group_17704" data-name="Group 17704" transform="translate(4.763 5.653)">
    <g id="Group_17703" data-name="Group 17703" transform="translate(0 0)" clip-path="url(#clip-path)">
      <g id="Group_17701" data-name="Group 17701" transform="translate(18.61 28.002)">
        <g id="Group_17700" data-name="Group 17700">
          <path id="Path_17923" data-name="Path 17923" d="M894.661,479.2h0l-.046-.047a4.028,4.028,0,0,0-2.848-1.168l0,.005a4.126,4.126,0,0,0-2.87,1.187,3.922,3.922,0,0,0-.51.619c-.045.067-.074.141-.115.21a3.063,3.063,0,0,0-.437,1.067c-.009.038-.026.074-.034.112a3.934,3.934,0,0,0,1.044,3.573h0l.024.023v0h0l0,0h0l.046.046a4.05,4.05,0,0,0,5.681,0,3.98,3.98,0,0,0,.057-5.633Zm-.208,3.87c-.016.039-.041.075-.059.113a2.845,2.845,0,0,1-.2.379,2.88,2.88,0,0,1-.35.437,2.759,2.759,0,0,1-1.993.823v0h0v.006a2.828,2.828,0,1,1,2.6-1.764Z" transform="translate(-887.72 -477.172)" fill="#20313b"/>
          <path id="Path_17924" data-name="Path 17924" d="M1024.025,480.443a4.217,4.217,0,0,0-7.2,2.979,4.231,4.231,0,0,0,4.223,4.24l.006,0a4.2,4.2,0,0,0,4.2-3.976h.013v-.252a4.233,4.233,0,0,0-1.24-2.987Zm-1.839,5.652a2.889,2.889,0,0,1-1.123.228h-.01a2.908,2.908,0,0,1-2.046-.847,2.874,2.874,0,0,1-.847-1.85l-.005-.186a2.877,2.877,0,0,1,2.867-2.894,2.909,2.909,0,0,1,2.049.842,2.878,2.878,0,0,1,.862,2.045v.01a2.881,2.881,0,0,1-1.747,2.652Z" transform="translate(-982.401 -478.068)" fill="#20313b"/>
          <path id="Path_17925" data-name="Path 17925" d="M1113.727,483.221h.013l.008,0a4.144,4.144,0,0,0,4.133-4.136v-.013a4.152,4.152,0,0,0-1.219-2.926,4.1,4.1,0,0,0-.98-.723,4.054,4.054,0,0,0-.781-.321,4.361,4.361,0,0,0-1.16-.172,4.136,4.136,0,0,0-4.144,4.131v.014a4.135,4.135,0,0,0,4.131,4.144Zm.037-6.9v0a23.378,23.378,0,0,1,.574.062c.034.007.064.022.1.03a2.723,2.723,0,0,1,.5.179l.01.006a2.743,2.743,0,0,1-1.209,5.205,2.723,2.723,0,0,1-1.2-.279l.014,0a2.74,2.74,0,0,1,1.2-5.209Z" transform="translate(-1050.432 -474.932)" fill="#20313b"/>
          <path id="Path_17926" data-name="Path 17926" d="M977.466,547.092l0,0,0,0a6.542,6.542,0,0,0-4.633-1.925v0h-.006v.007a6.533,6.533,0,0,0-1.3.132c-.059.012-.113.038-.172.052a6.527,6.527,0,0,0-2.2.946c-.114.077-.209.176-.318.26a6.52,6.52,0,0,0-.637.521s-.007.009-.011.013a6.544,6.544,0,0,0-1.93,4.642,6.6,6.6,0,0,0,12.994,1.307,6.571,6.571,0,0,0-1.783-5.953Zm-.295,7.581a5.249,5.249,0,0,1-.561.683c-.035.037-.06.081-.1.117A5.184,5.184,0,0,1,972.826,557l.006,0a5.263,5.263,0,0,1-3.735-1.534,5.35,5.35,0,0,1-.643-.775,5.254,5.254,0,0,1-.907-2.942,5.309,5.309,0,0,1,.1-1.052,5.2,5.2,0,0,1,2.19-3.277c.07-.047.151-.078.223-.122a5.24,5.24,0,0,1,7.108,7.373Z" transform="translate(-945.313 -526.435)" fill="#20313b"/>
        </g>
        <g id="Group_11918" data-name="Group 11918" transform="translate(0.971 1.646)">
          <path id="Path_13242" data-name="Path 13242" d="M894.512,481.1a3.271,3.271,0,0,0-2.23.939,2.929,2.929,0,0,0-.919,2.219,3.4,3.4,0,0,0,.942,2.219,3.064,3.064,0,0,0,2.217.939,3.251,3.251,0,0,0,2.225-.942,2.928,2.928,0,0,0,.92-2.217,3.386,3.386,0,0,0-.942-2.219A3.065,3.065,0,0,0,894.512,481.1Z" transform="translate(-891.361 -481.104)" fill="#1e8d77"/>
        </g>
        <g id="Group_11919" data-name="Group 11919" transform="translate(35.472 2.127)">
          <path id="Path_13243" data-name="Path 13243" d="M1023.892,482.909a3.26,3.26,0,0,0-2.225.939,2.925,2.925,0,0,0-.919,2.219,3.4,3.4,0,0,0,.945,2.219,3.062,3.062,0,0,0,2.214.939,3.25,3.25,0,0,0,2.225-.942,2.925,2.925,0,0,0,.919-2.217,3.4,3.4,0,0,0-.941-2.222A3.065,3.065,0,0,0,1023.892,482.909Z" transform="translate(-1020.746 -482.909)" fill="#1e8d77"/>
        </g>
        <g id="Group_11920" data-name="Group 11920" transform="translate(60.251 0.988)">
          <path id="Path_13244" data-name="Path 13244" d="M1116.816,478.637a3.23,3.23,0,0,0-2.225.939,2.928,2.928,0,0,0-.919,2.217,3.406,3.406,0,0,0,.942,2.222,3.046,3.046,0,0,0,2.214.935,3.229,3.229,0,0,0,2.225-.938,2.927,2.927,0,0,0,.919-2.219,3.415,3.415,0,0,0-.945-2.219,3.036,3.036,0,0,0-2.21-.937Z" transform="translate(-1113.67 -478.637)" fill="#1e8d77"/>
        </g>
        <g id="Group_11921" data-name="Group 11921" transform="translate(21.971 19.73)">
          <path id="Path_13245" data-name="Path 13245" d="M981.112,554.423a5.949,5.949,0,0,0-1.644-3.87,5.323,5.323,0,0,0-3.851-1.632,5.646,5.646,0,0,0-3.877,1.636,5.115,5.115,0,0,0-1.622,3.863,5.934,5.934,0,0,0,1.645,3.866,5.321,5.321,0,0,0,3.85,1.63,5.661,5.661,0,0,0,3.878-1.636,5.106,5.106,0,0,0,1.624-3.85Z" transform="translate(-970.116 -548.921)" fill="#1e8d77"/>
        </g>
      </g>
      <g id="Group_17702" data-name="Group 17702" transform="translate(2.032 2.239)">
        <path id="Path_17927" data-name="Path 17927" d="M898.646,452.317,898,442.028l-.637-10.289,10.312-.581,8.752-.493q0-.368,0-.737l-8.823.468-10.328.569-.656-10.207-.653-10.21,1.08-.1,1.015-.072c.062.207.128.418.208.624a7.7,7.7,0,0,0,13.3,1.925,9.222,9.222,0,0,0,1.246-2.163,6.717,6.717,0,0,0,.517-2.536,7.587,7.587,0,0,0-1.952-5.131l2.006-1.86,1.778-1.657c-.033-.053-.064-.107-.1-.16-.151-.161-.312-.313-.47-.468l-1.734,1.583-2.12,1.931a7.583,7.583,0,0,0-5-1.962l-.289-.008a7.605,7.605,0,0,0-.88.094l-2.128-3.455-.6-.958q-.457-.006-.914-.008l.86,1.339,2.045,3.181a7.792,7.792,0,0,0-3.833,2.09,7.554,7.554,0,0,0-2.146,4.137l-4.782.363-4.89.371s-.022-.064-.056-.158a7.629,7.629,0,0,0-.4-1.149h.043l-.119-.242a7.672,7.672,0,0,0-.4-.711,6.856,6.856,0,0,0-.465-.656l-.053-.071a7.488,7.488,0,0,0-1.6-1.47l5.86-4.389,5.815-4.48q-.771.016-1.541.028l-5.068,3.961-5.77,4.406a7.582,7.582,0,0,0-4.279-.891l-5.324-6.7-9.91-12.539,2.914-3.96c-.217-.1-.431-.2-.641-.312l-13.78,18.564-3.842,5.185-.86-.274-.86-.266,1.431-18.811-.449.108-1.182,14.747-.384,3.823-1.429.071-1.43.067-2.147-1.912-8.713-8.224q-.266.361-.539.715l8.648,8.173,1.534,1.436a7.38,7.38,0,0,0-4.293,4.864,7.634,7.634,0,0,0-.2,3l-7.125,7.171-6.024,5.929.516.63,5.764-5.706,7-6.916a10.209,10.209,0,0,0,.516,1.3,8.862,8.862,0,0,0,.613,1.091l.037.055.037.058a1.473,1.473,0,0,0,.09.13l.09.129c.027.034.051.07.077.1l.077.1a.129.129,0,0,1,.024.034.1.1,0,0,1,.027.034l.1.128c.037.04.071.083.108.125l.034.04.037.04A7.641,7.641,0,0,0,843.346,416a5.388,5.388,0,0,0,1.283.408l.919,11.344.9,11.344-8.3,10.872-.224.279q.314.322.63.641l9.063-11.811-.919-11.29-.919-11.285.174.01h.275a7.3,7.3,0,0,0,2.788-.553l-.067.037-.068.034.812,12.138.817,12.138-9.4,13.12q.341.334.681.667l9.792-13.393-.948-12.527-.939-12.538h.016l9.578,7a8.146,8.146,0,0,0-.385.723,13.239,13.239,0,0,0-.76,1.986,13.429,13.429,0,0,0-.531,1.972,11.48,11.48,0,0,0,.3,5.455,12.647,12.647,0,0,0,1.359,3.015,11.441,11.441,0,0,0,.73,1.056,11.854,11.854,0,0,0,.831.963,12.47,12.47,0,0,0,3.93,2.79,11.807,11.807,0,0,0,4.863,1.049v.031a.064.064,0,0,1,0,.034v.088c.084,1.02.277,15.915.247,20.6a10.1,10.1,0,0,1,2.075-.379c.033-3.3-.443-17.171-.824-20.451a10.389,10.389,0,0,0,2.085-.481c.034-.011.064-.03.1-.041l2.661,16.759a10.034,10.034,0,0,1,1.87.713l-1.25-7.665-.062-.456-.062-.459-.022-.8-.623-4.452-.653-4.429-.009,0a12.994,12.994,0,0,0,2.517-1.7l.345-.258.321-.252.43-.608a12.165,12.165,0,0,0,2.426-4.171l.208-.444.075-.167,5.282-.194,5.326-.2,1,.079.7,11.222.527,8.657.952.142.13.011-.86-14.806-1.6-26.518,1.123-.148,1.123-.148,1.6,26.98.879,14.791c.537.021,1.076.034,1.616.035l9.853-9.479,7.232-6.96q.015-.479.027-.96l-7.519,7.264Zm2.732-48.176a5.709,5.709,0,0,1,4.059-1.678l-.006-.008h.172a5.756,5.756,0,1,1-4.224,1.686Zm-20.593-.393h.009a5.709,5.709,0,0,1-.013,11.418h-.01a5.72,5.72,0,0,1-5.7-5.463v-.258A5.715,5.715,0,0,1,880.785,403.748Zm-26.769-6.34,10.339-14.048,9.635,12.192,5.118,6.441a7.525,7.525,0,0,0-2.837,1.3h-.031l-.042.031a7.465,7.465,0,0,0-2.986,7.036l-9.768-.457-9.812-.459a7.649,7.649,0,0,0-1.515-5.174,7.739,7.739,0,0,0-1.765-1.765ZM846.2,414.793l.01.008a5.776,5.776,0,0,1-4.109-1.721,5.966,5.966,0,0,1,0-8.354,5.776,5.776,0,0,1,8.168-.077h0l.077.077a5.962,5.962,0,0,1,0,8.354A5.777,5.777,0,0,1,846.2,414.793Zm8.888,3.908-4.789-3.424h-.006a7.543,7.543,0,0,0,2.534-2.88,5.47,5.47,0,0,0,.656-1.625,2.281,2.281,0,0,0,.064-.613l9.891.46,9.886.459a7.582,7.582,0,0,0,3.813,5.114c.13.07.268.123.4.185l-.9,1.135L875.7,418.7a13.281,13.281,0,0,0-5.381-1.582,11.072,11.072,0,0,0-4.4.632,12.059,12.059,0,0,0-3.369,1.721,12.243,12.243,0,0,0-2.67,2.655ZM879.97,429.38a10.355,10.355,0,0,1-10.325,10.338l.01.01a10.328,10.328,0,0,1-10.348-10.309v-.007a10.328,10.328,0,0,1,10.309-10.348h.007a10.328,10.328,0,0,1,10.348,10.309Zm13.175,2.052h-.018l-1.21-20.387.595,10.19.59,10.2-5.743.237-5.775.239a11.975,11.975,0,0,0,.2-1.248,12.523,12.523,0,0,0,0-2.581,12.317,12.317,0,0,0-.2-1.256V426.8a.052.052,0,0,0,0-.03,11.827,11.827,0,0,0-1.49-3.93,12.208,12.208,0,0,0-3.6-3.761l.86-1.248.808-1.185a7.633,7.633,0,0,0,9.971-5v-.07l1.874-.261,1.916-.266.04-.006h0l.027,0,.594,10.2.178,3.165-.8-13.365.1,1.685-.1-1.685.593,10.193Zm.031-21.365-4.854.45a.107.107,0,0,0,0-.012,7.641,7.641,0,0,0-.028-2.234c0-.005,0-.01,0-.015l4.84-.239,4.638-.226c-.008.144-.042.282-.041.427a4.8,4.8,0,0,0,.037.716c.011.1.024.18.034.27.016.138.032.274.058.414,0,.008,0,.015.006.023Z" transform="translate(-825.551 -378.317)" fill="#20313b"/>
      </g>
    </g>
  </g>
</svg>
