<svg width="24" height="24" viewBox="0 0 24 24" fill="none" xmlns="http://www.w3.org/2000/svg">
<g clip-path="url(#clip0_1785_166620)">
<path d="M9.47911 8.33363H2.60411C1.71955 8.33363 1 7.61408 1 6.72935V2.60435C1 1.7198 1.71955 1.00024 2.60411 1.00024H9.47911C10.3638 1.00024 11.0834 1.7198 11.0834 2.60435V6.72935C11.0834 7.61408 10.3638 8.33363 9.47911 8.33363ZM2.60411 2.37524C2.54336 2.37529 2.48511 2.39944 2.44215 2.4424C2.3992 2.48536 2.37505 2.5436 2.375 2.60435V6.72935C2.37501 6.79013 2.39915 6.84842 2.44211 6.89141C2.48507 6.9344 2.54333 6.95858 2.60411 6.95863H9.47911C9.53991 6.95861 9.59822 6.93445 9.64121 6.89145C9.6842 6.84846 9.70837 6.79016 9.70839 6.72935V2.60435C9.70833 2.54358 9.68415 2.48531 9.64116 2.44235C9.59817 2.39939 9.53989 2.37526 9.47911 2.37524H2.60411ZM9.47911 23.0002H2.60411C1.71955 23.0002 1 22.2807 1 21.3961V11.7711C1 10.8864 1.71955 10.1669 2.60411 10.1669H9.47911C10.3638 10.1669 11.0834 10.8864 11.0834 11.7711V21.3961C11.0834 22.2807 10.3638 23.0002 9.47911 23.0002ZM2.60411 11.5419C2.54333 11.5419 2.48507 11.5661 2.44211 11.6091C2.39915 11.6521 2.37501 11.7104 2.375 11.7711V21.3961C2.37505 21.4569 2.3992 21.5151 2.44215 21.5581C2.48511 21.601 2.54336 21.6252 2.60411 21.6252H9.47911C9.53989 21.6252 9.59817 21.6011 9.64116 21.5581C9.68415 21.5152 9.70833 21.4569 9.70839 21.3961V11.7711C9.70837 11.7103 9.6842 11.652 9.64121 11.609C9.59822 11.566 9.53991 11.5419 9.47911 11.5419H2.60411ZM21.3959 23.0002H14.5209C13.6362 23.0002 12.9166 22.2807 12.9166 21.3961V17.2711C12.9166 16.3864 13.6362 15.6669 14.5209 15.6669H21.3959C22.2804 15.6669 23 16.3864 23 17.2711V21.3961C23 22.2807 22.2804 23.0002 21.3959 23.0002ZM14.5209 17.0419C14.4601 17.0419 14.4018 17.066 14.3588 17.109C14.3158 17.152 14.2916 17.2103 14.2916 17.2711V21.3961C14.2917 21.4569 14.3158 21.5152 14.3588 21.5581C14.4018 21.6011 14.4601 21.6252 14.5209 21.6252H21.3959C21.4566 21.6252 21.5149 21.601 21.5578 21.5581C21.6008 21.5151 21.625 21.4569 21.625 21.3961V17.2711C21.625 17.2104 21.6009 17.1521 21.5579 17.1091C21.5149 17.0661 21.4567 17.0419 21.3959 17.0419H14.5209Z" fill="#232324"/>
<path d="M21.9922 13.1426C21.6929 13.3338 21.3442 13.3859 21.0226 13.315C20.701 13.2442 20.4064 13.0507 20.2153 12.7511L16.6306 7.14085C16.3229 7.17627 16.0051 7.16588 15.6856 7.0955C14.118 6.75017 13.1236 5.19375 13.4689 3.6262C13.5207 3.39094 13.6055 3.15661 13.7214 2.92988C13.7806 2.81361 13.8975 2.738 14.0281 2.73177C14.0609 2.73005 14.0931 2.73303 14.124 2.73984C14.2171 2.76035 14.2996 2.81692 14.3523 2.89931L15.0852 4.04635C15.19 4.20992 15.3521 4.32314 15.5419 4.36495C15.7317 4.40675 15.9263 4.37213 16.0903 4.2674L16.4185 4.05764C16.5825 3.9529 16.6957 3.79079 16.7375 3.60102C16.7793 3.41125 16.7447 3.21657 16.6399 3.05264L15.9074 1.90569C15.837 1.79553 15.8312 1.65637 15.8917 1.54077C15.9522 1.42517 16.0699 1.35087 16.2003 1.3457C16.4547 1.33616 16.7029 1.35768 16.9382 1.40951C18.5058 1.75484 19.5002 3.31126 19.1549 4.87881C19.0845 5.19829 18.9604 5.49103 18.7989 5.75542L22.3836 11.3657C22.7662 11.9646 22.591 12.7599 21.9922 13.1426ZM22.077 11.5616L18.3674 5.75574C18.57 5.4788 18.7209 5.15732 18.7995 4.80052C19.1022 3.42665 18.2338 2.06755 16.8599 1.76489C16.6428 1.71705 16.4264 1.70142 16.214 1.70979L16.9469 2.85682C17.2716 3.36508 17.123 4.03993 16.6147 4.36468L16.2861 4.57435C16.0324 4.73645 15.7365 4.78044 15.4636 4.72032C15.1907 4.66019 14.9407 4.49594 14.7787 4.2419L14.0457 3.09521C13.9489 3.28441 13.8721 3.48735 13.8243 3.70448C13.5216 5.07836 14.39 6.43746 15.7639 6.74012C16.1207 6.81872 16.4758 6.81685 16.8123 6.74937L20.5219 12.5552C20.6546 12.763 20.8603 12.9067 21.1009 12.9597C21.3415 13.0127 21.5885 12.9687 21.7963 12.836C22.2248 12.5619 22.3507 11.9904 22.077 11.5616Z" fill="#232324" stroke="#232324" stroke-width="0.61875"/>
</g>
<defs>
<clipPath id="clip0_1785_166620">
<rect width="22" height="22" fill="white" transform="translate(1 1)"/>
</clipPath>
</defs>
</svg>
