<svg width="124" height="113" viewBox="0 0 124 113" fill="none" xmlns="http://www.w3.org/2000/svg">
<g clip-path="url(#clip0_6487_106122)">
<path d="M76.7044 37.9291C76.063 37.9527 75.5642 38.4895 75.5878 39.131L75.9955 50.2211C76.2421 56.9293 71.422 62.6436 64.9599 63.6899C64.9483 63.6903 64.9403 63.6829 64.94 63.6751L64.7576 58.7135C64.7576 58.7135 64.7609 58.6979 64.7725 58.6975C69.5014 57.7653 73.0401 53.611 73.1031 48.6946L73.0954 48.6949L72.8252 41.3452L72.7663 39.7416C72.733 38.8374 71.9758 38.1339 71.0716 38.1671L68.7763 38.2515C67.9223 38.2829 67.1762 38.9333 67.1341 39.7861C67.0843 40.7476 67.8712 41.5235 68.8102 41.489L69.5714 41.461C69.5714 41.461 69.5872 41.4681 69.5875 41.4759L69.857 48.8062C69.7253 52.4869 66.764 55.5056 63.0234 55.6431C59.2829 55.7806 56.108 52.9875 55.7064 49.3264L55.6987 49.3267L55.4292 41.9963C55.4292 41.9963 55.4363 41.9806 55.4441 41.9803L56.1242 41.9553C56.9781 41.9239 57.7242 41.2735 57.7664 40.4207C57.8162 39.4593 57.0293 38.6834 56.0903 38.7179L53.7099 38.8054C52.8057 38.8386 52.1022 39.5958 52.1355 40.5L52.4645 49.4494C52.8883 54.348 56.7225 58.2312 61.5071 58.8137C61.5149 58.8134 61.5229 58.8209 61.5231 58.8286L61.7308 64.478C61.7834 65.9077 62.9853 67.0244 64.415 66.9718L65.0603 66.9481C73.2998 65.8326 79.5004 58.6204 79.1886 50.1386L78.7782 38.975C78.7553 38.3529 78.2305 37.8653 77.6084 37.8881L76.6964 37.9217L76.7044 37.9291Z" fill="url(#paint0_linear_6487_106122)"/>
<path d="M57.3815 62.6762C53.0012 60.6742 49.8815 56.3313 49.6924 51.1881L49.2842 40.0825C49.261 39.4527 48.7282 38.9576 48.0983 38.9808L47.2868 39.0106C46.6029 39.0358 46.0669 39.6127 46.092 40.2966L46.4982 51.3443C46.7367 57.8322 50.722 63.3002 56.2984 65.738C57.5411 66.2804 58.9475 65.0679 58.3326 63.6047C58.1546 63.1817 57.7986 62.8659 57.3815 62.6762Z" fill="url(#paint1_linear_6487_106122)"/>
<path d="M61.002 0.64837C51.9753 0.980213 44.9256 8.56799 45.2575 17.5947L45.8311 33.1982C45.8736 34.3536 46.8431 35.2543 47.9985 35.2118L76.744 34.1551C77.7719 34.1173 78.572 33.2521 78.5343 32.2281L77.9523 16.3966C77.6203 7.36606 70.0326 0.316385 61.002 0.64837ZM51.3299 17.5262C50.4721 17.5578 49.7509 16.8878 49.7194 16.0299C49.6879 15.1721 50.3578 14.451 51.2157 14.4194C52.0735 14.3879 52.7947 15.0579 52.8262 15.9157C52.8577 16.7736 52.1877 17.4947 51.3299 17.5262ZM55.8124 19.7837C55.198 19.8063 54.685 19.326 54.6626 18.7154C54.6402 18.1049 55.1203 17.5881 55.7308 17.5656C56.3414 17.5432 56.8582 18.0233 56.8806 18.6339C56.9031 19.2444 56.4229 19.7612 55.8124 19.7837ZM55.3117 14.2689C53.909 14.3204 52.7312 13.2261 52.6796 11.8234C52.6281 10.4207 53.7224 9.24291 55.125 9.19134C56.5277 9.13978 57.7056 10.2341 57.7571 11.6368C57.8087 13.0395 56.7144 14.2173 55.3117 14.2689Z" fill="url(#paint2_linear_6487_106122)"/>
</g>
<path d="M8.0769 79.1527C10.142 79.1527 11.9466 79.5738 13.4908 80.4161C15.035 81.2583 16.2257 82.445 17.0629 83.9764C17.9187 85.4885 18.3466 87.24 18.3466 89.2307C18.3466 91.2022 17.9187 92.9537 17.0629 94.485C16.2257 96.0163 15.0257 97.203 13.4629 98.0453C11.9187 98.8875 10.1234 99.3086 8.0769 99.3086H0.737396V79.1527H8.0769ZM7.76992 95.0592C9.57456 95.0592 10.9792 94.552 11.9839 93.5375C12.9885 92.523 13.4908 91.0874 13.4908 89.2307C13.4908 87.3739 12.9885 85.9288 11.9839 84.8951C10.9792 83.8615 9.57456 83.3447 7.76992 83.3447H5.50947V95.0592H7.76992Z" fill="black" fill-opacity="0.87"/>
<path d="M31.0041 99.3086L26.9297 91.6999H25.7855V99.3086H21.0135V79.1527H29.0227C30.5669 79.1527 31.8785 79.4303 32.9576 79.9854C34.0553 80.5405 34.8739 81.3061 35.4134 82.2823C35.9529 83.2394 36.2227 84.3113 36.2227 85.4981C36.2227 86.838 35.8506 88.0343 35.1064 89.0871C34.3808 90.1399 33.3018 90.8864 31.8692 91.3266L36.3901 99.3086H31.0041ZM25.7855 88.2257H28.7437C29.6181 88.2257 30.2692 88.0056 30.6971 87.5654C31.1437 87.1251 31.3669 86.503 31.3669 85.6991C31.3669 84.9334 31.1437 84.3305 30.6971 83.8902C30.2692 83.45 29.6181 83.2298 28.7437 83.2298H25.7855V88.2257Z" fill="black" fill-opacity="0.87"/>
<path d="M41.4509 99.5383C40.6137 99.5383 39.9253 99.2894 39.3858 98.7918C38.8648 98.275 38.6044 97.6433 38.6044 96.8968C38.6044 96.1311 38.8648 95.4899 39.3858 94.9731C39.9253 94.4562 40.6137 94.1978 41.4509 94.1978C42.2695 94.1978 42.9392 94.4562 43.4602 94.9731C43.9997 95.4899 44.2695 96.1311 44.2695 96.8968C44.2695 97.6433 43.9997 98.275 43.4602 98.7918C42.9392 99.2894 42.2695 99.5383 41.4509 99.5383Z" fill="black" fill-opacity="0.87"/>
<path d="M62.0245 85.6417C62.0245 86.8093 61.7641 87.8812 61.2431 88.8574C60.7222 89.8145 59.9222 90.5897 58.8432 91.1831C57.7641 91.7765 56.4246 92.0731 54.8246 92.0731H51.8664V99.3086H47.0944V79.1527H54.8246C56.3874 79.1527 57.7083 79.4303 58.7873 79.9854C59.8664 80.5405 60.6757 81.3061 61.2152 82.2823C61.7548 83.2586 62.0245 84.3783 62.0245 85.6417ZM54.4618 88.1683C55.3734 88.1683 56.0525 87.9482 56.499 87.5079C56.9455 87.0677 57.1688 86.4456 57.1688 85.6417C57.1688 84.8377 56.9455 84.2156 56.499 83.7754C56.0525 83.3351 55.3734 83.115 54.4618 83.115H51.8664V88.1683H54.4618Z" fill="black" fill-opacity="0.87"/>
<path d="M76.7042 95.7483H69.3926L68.2205 99.3086H63.2252L70.3135 79.1527H75.8391L82.9274 99.3086H77.8763L76.7042 95.7483ZM75.4763 91.9583L73.0484 84.5793L70.6484 91.9583H75.4763Z" fill="black" fill-opacity="0.87"/>
<path d="M84.2755 89.2019C84.2755 87.2112 84.6941 85.4407 85.5313 83.8902C86.3685 82.3206 87.5313 81.1051 89.0196 80.2438C90.5266 79.3633 92.2289 78.923 94.1266 78.923C96.4521 78.923 98.4428 79.5547 100.099 80.818C101.754 82.0814 102.861 83.8041 103.42 85.9862H98.1731C97.7824 85.144 97.2242 84.5027 96.4987 84.0625C95.7917 83.6222 94.9824 83.4021 94.0708 83.4021C92.601 83.4021 91.4103 83.9285 90.4987 84.9813C89.5871 86.034 89.1312 87.4409 89.1312 89.2019C89.1312 90.9629 89.5871 92.3698 90.4987 93.4226C91.4103 94.4754 92.601 95.0018 94.0708 95.0018C94.9824 95.0018 95.7917 94.7817 96.4987 94.3414C97.2242 93.9011 97.7824 93.2599 98.1731 92.4177H103.42C102.861 94.5998 101.754 96.3225 100.099 97.5859C98.4428 98.83 96.4521 99.4521 94.1266 99.4521C92.2289 99.4521 90.5266 99.0215 89.0196 98.1601C87.5313 97.2796 86.3685 96.0641 85.5313 94.5137C84.6941 92.9632 84.2755 91.1926 84.2755 89.2019Z" fill="black" fill-opacity="0.87"/>
<path d="M117.7 99.3086L111.114 90.4079V99.3086H106.342V79.1527H111.114V87.996L117.644 79.1527H123.253L115.663 89.0297L123.533 99.3086H117.7Z" fill="black" fill-opacity="0.87"/>
<path d="M2.18153 111.368V106.451H0.737396V105.901H4.17247V106.451H2.74236V111.368H2.18153Z" fill="black" fill-opacity="0.6"/>
<path d="M4.78741 111.368V105.812H5.31319V108.198L5.19401 108.168C5.28748 107.914 5.43938 107.713 5.64969 107.567C5.86467 107.42 6.11237 107.346 6.39278 107.346C6.65918 107.346 6.89753 107.41 7.10784 107.537C7.32283 107.664 7.49107 107.841 7.61259 108.066C7.73877 108.286 7.80187 108.535 7.80187 108.814V111.368H7.27609V109.027C7.27609 108.787 7.23403 108.584 7.1499 108.418C7.06578 108.252 6.94894 108.124 6.79939 108.036C6.6545 107.943 6.48859 107.897 6.30165 107.897C6.11471 107.897 5.94646 107.943 5.7969 108.036C5.64735 108.124 5.52817 108.254 5.43938 108.425C5.35525 108.592 5.31319 108.792 5.31319 109.027V111.368H4.78741Z" fill="black" fill-opacity="0.6"/>
<path d="M10.5166 111.456C10.1661 111.456 9.84825 111.368 9.56316 111.192C9.28275 111.011 9.06076 110.764 8.89718 110.451C8.73361 110.138 8.65182 109.783 8.65182 109.387C8.65182 108.99 8.73127 108.641 8.89017 108.337C9.04907 108.029 9.26406 107.787 9.53512 107.611C9.81086 107.434 10.1193 107.346 10.4605 107.346C10.7316 107.346 10.9722 107.4 11.1826 107.508C11.3975 107.611 11.5798 107.753 11.7294 107.934C11.8789 108.11 11.9934 108.31 12.0729 108.535C12.1523 108.756 12.192 108.983 12.192 109.218C12.192 109.267 12.1897 109.323 12.185 109.387C12.1804 109.445 12.1734 109.507 12.164 109.57H8.98832V109.056H11.8626L11.6102 109.277C11.6523 109.008 11.6219 108.768 11.5191 108.557C11.4209 108.342 11.2784 108.173 11.0914 108.051C10.9045 107.924 10.6942 107.86 10.4605 107.86C10.2268 107.86 10.0095 107.924 9.80853 108.051C9.61224 108.178 9.45801 108.357 9.34584 108.587C9.23368 108.812 9.18928 109.081 9.21265 109.394C9.18928 109.707 9.23601 109.981 9.35285 110.216C9.47437 110.446 9.63794 110.625 9.84358 110.752C10.0539 110.879 10.2782 110.943 10.5166 110.943C10.7923 110.943 11.0237 110.874 11.2106 110.737C11.3975 110.6 11.5494 110.429 11.6663 110.223L12.1149 110.473C12.0402 110.649 11.9257 110.813 11.7714 110.965C11.6172 111.111 11.4326 111.231 11.2176 111.324C11.0073 111.412 10.7736 111.456 10.5166 111.456Z" fill="black" fill-opacity="0.6"/>
<path d="M14.6958 111.368V107.985H13.9457V107.434H14.6958V107.082C14.6958 106.808 14.7543 106.578 14.8711 106.392C14.9879 106.201 15.1422 106.057 15.3338 105.959C15.5254 105.861 15.731 105.812 15.9507 105.812C15.9974 105.812 16.0512 105.817 16.1119 105.827C16.1727 105.832 16.2218 105.839 16.2592 105.849V106.348C16.2264 106.338 16.182 106.334 16.126 106.334C16.0699 106.329 16.0301 106.326 16.0068 106.326C15.7824 106.326 15.5955 106.383 15.446 106.495C15.2964 106.608 15.2216 106.803 15.2216 107.082V107.434H16.14V107.985H15.2216V111.368H14.6958Z" fill="black" fill-opacity="0.6"/>
<path d="M18.3944 111.456C18.1326 111.456 17.8943 111.393 17.6793 111.266C17.4643 111.134 17.2937 110.952 17.1675 110.723C17.046 110.488 16.9853 110.219 16.9853 109.915V107.434H17.511V109.849C17.511 110.06 17.5508 110.245 17.6302 110.407C17.7143 110.563 17.8289 110.686 17.9737 110.774C18.1233 110.862 18.2939 110.906 18.4855 110.906C18.6771 110.906 18.8477 110.862 18.9972 110.774C19.1468 110.681 19.2636 110.551 19.3478 110.385C19.4319 110.214 19.474 110.011 19.474 109.776V107.434H19.9997V111.368H19.474V110.605L19.5931 110.634C19.5043 110.889 19.3524 111.089 19.1375 111.236C18.9225 111.383 18.6748 111.456 18.3944 111.456Z" fill="black" fill-opacity="0.6"/>
<path d="M22.5181 111.412C22.1816 111.412 21.9223 111.31 21.74 111.104C21.5577 110.899 21.4666 110.605 21.4666 110.223V107.985H20.7726V107.434H20.9478C21.1067 107.434 21.2329 107.381 21.3264 107.273C21.4199 107.16 21.4666 107.021 21.4666 106.855V106.524H21.9924V107.434H22.8196V107.985H21.9924V110.223C21.9924 110.356 22.0111 110.473 22.0485 110.576C22.0858 110.674 22.1489 110.752 22.2377 110.811C22.3312 110.869 22.4551 110.899 22.6093 110.899C22.6467 110.899 22.6911 110.896 22.7425 110.891C22.7939 110.886 22.8383 110.882 22.8757 110.877V111.368C22.8196 111.383 22.7565 111.393 22.6864 111.398C22.6163 111.408 22.5602 111.412 22.5181 111.412Z" fill="black" fill-opacity="0.6"/>
<path d="M25.1309 111.456C24.8692 111.456 24.6308 111.393 24.4158 111.266C24.2008 111.134 24.0302 110.952 23.9041 110.723C23.7825 110.488 23.7218 110.219 23.7218 109.915V107.434H24.2476V109.849C24.2476 110.06 24.2873 110.245 24.3667 110.407C24.4509 110.563 24.5654 110.686 24.7102 110.774C24.8598 110.862 25.0304 110.906 25.222 110.906C25.4136 110.906 25.5842 110.862 25.7338 110.774C25.8833 110.681 26.0002 110.551 26.0843 110.385C26.1684 110.214 26.2105 110.011 26.2105 109.776V107.434H26.7362V111.368H26.2105V110.605L26.3296 110.634C26.2408 110.889 26.089 111.089 25.874 111.236C25.659 111.383 25.4113 111.456 25.1309 111.456Z" fill="black" fill-opacity="0.6"/>
<path d="M27.8175 111.368V107.434H28.3433V108.08L28.2732 107.985C28.362 107.799 28.4952 107.652 28.6728 107.545C28.8551 107.437 29.0747 107.383 29.3318 107.383H29.5701V107.934H29.2406C28.9696 107.934 28.7523 108.022 28.5887 108.198C28.4251 108.374 28.3433 108.623 28.3433 108.946V111.368H27.8175Z" fill="black" fill-opacity="0.6"/>
<path d="M31.8968 111.456C31.5463 111.456 31.2285 111.368 30.9434 111.192C30.663 111.011 30.441 110.764 30.2774 110.451C30.1138 110.138 30.032 109.783 30.032 109.387C30.032 108.99 30.1115 108.641 30.2704 108.337C30.4293 108.029 30.6443 107.787 30.9153 107.611C31.1911 107.434 31.4995 107.346 31.8407 107.346C32.1118 107.346 32.3525 107.4 32.5628 107.508C32.7778 107.611 32.96 107.753 33.1096 107.934C33.2591 108.11 33.3736 108.31 33.4531 108.535C33.5326 108.756 33.5723 108.983 33.5723 109.218C33.5723 109.267 33.5699 109.323 33.5653 109.387C33.5606 109.445 33.5536 109.507 33.5442 109.57H30.3685V109.056H33.2428L32.9904 109.277C33.0325 109.008 33.0021 108.768 32.8993 108.557C32.8011 108.342 32.6586 108.173 32.4717 108.051C32.2847 107.924 32.0744 107.86 31.8407 107.86C31.607 107.86 31.3897 107.924 31.1888 108.051C30.9925 108.178 30.8382 108.357 30.7261 108.587C30.6139 108.812 30.5695 109.081 30.5929 109.394C30.5695 109.707 30.6162 109.981 30.7331 110.216C30.8546 110.446 31.0182 110.625 31.2238 110.752C31.4341 110.879 31.6584 110.943 31.8968 110.943C32.1725 110.943 32.4039 110.874 32.5908 110.737C32.7778 110.6 32.9297 110.429 33.0465 110.223L33.4952 110.473C33.4204 110.649 33.3059 110.813 33.1517 110.965C32.9974 111.111 32.8128 111.231 32.5978 111.324C32.3875 111.412 32.1538 111.456 31.8968 111.456Z" fill="black" fill-opacity="0.6"/>
<path d="M37.4501 111.456C37.0949 111.456 36.7724 111.368 36.4827 111.192C36.1929 111.011 35.9616 110.767 35.7886 110.458C35.6204 110.145 35.5363 109.79 35.5363 109.394C35.5363 109.003 35.6204 108.653 35.7886 108.345C35.9569 108.036 36.1836 107.794 36.4687 107.618C36.7584 107.437 37.0856 107.346 37.4501 107.346C37.8146 107.346 38.1395 107.434 38.4245 107.611C38.7143 107.787 38.941 108.029 39.1045 108.337C39.2728 108.645 39.3569 108.998 39.3569 109.394C39.3569 109.795 39.2705 110.152 39.0975 110.466C38.9246 110.774 38.6933 111.016 38.4035 111.192C38.1184 111.368 37.8006 111.456 37.4501 111.456ZM37.4501 110.906C37.7025 110.906 37.9291 110.84 38.1301 110.708C38.3357 110.576 38.497 110.395 38.6138 110.165C38.7353 109.935 38.7961 109.678 38.7961 109.394C38.7961 109.11 38.7353 108.856 38.6138 108.631C38.497 108.406 38.3357 108.227 38.1301 108.095C37.9291 107.963 37.7025 107.897 37.4501 107.897C37.1977 107.897 36.9687 107.963 36.7631 108.095C36.5621 108.227 36.4009 108.406 36.2794 108.631C36.1579 108.856 36.0971 109.11 36.0971 109.394C36.0971 109.678 36.1579 109.935 36.2794 110.165C36.4009 110.395 36.5621 110.576 36.7631 110.708C36.9687 110.84 37.1977 110.906 37.4501 110.906Z" fill="black" fill-opacity="0.6"/>
<path d="M40.5328 111.368V107.985H39.7827V107.434H40.5328V107.082C40.5328 106.808 40.5913 106.578 40.7081 106.392C40.8249 106.201 40.9792 106.057 41.1708 105.959C41.3624 105.861 41.568 105.812 41.7877 105.812C41.8344 105.812 41.8882 105.817 41.9489 105.827C42.0097 105.832 42.0588 105.839 42.0962 105.849V106.348C42.0634 106.338 42.019 106.334 41.963 106.334C41.9069 106.329 41.8672 106.326 41.8438 106.326C41.6195 106.326 41.4325 106.383 41.283 106.495C41.1334 106.608 41.0586 106.803 41.0586 107.082V107.434H41.977V107.985H41.0586V111.368H40.5328Z" fill="black" fill-opacity="0.6"/>
<path d="M45.9904 111.456C45.6679 111.456 45.3758 111.381 45.1141 111.229C44.8571 111.072 44.6631 110.852 44.5323 110.568L44.6164 110.488V111.368H44.0906V105.812H44.6164V108.315L44.5323 108.161C44.6818 107.912 44.8804 107.713 45.1281 107.567C45.3805 107.42 45.6679 107.346 45.9904 107.346C46.3456 107.346 46.6611 107.437 46.9368 107.618C47.2172 107.794 47.4369 108.036 47.5958 108.345C47.7594 108.653 47.8412 109.005 47.8412 109.401C47.8412 109.793 47.7594 110.145 47.5958 110.458C47.4369 110.767 47.2172 111.011 46.9368 111.192C46.6611 111.368 46.3456 111.456 45.9904 111.456ZM45.9624 110.906C46.2147 110.906 46.4391 110.84 46.6354 110.708C46.8363 110.576 46.9929 110.397 47.1051 110.172C47.2219 109.942 47.2803 109.685 47.2803 109.401C47.2803 109.113 47.2219 108.856 47.1051 108.631C46.9929 108.406 46.8363 108.227 46.6354 108.095C46.4391 107.963 46.2147 107.897 45.9624 107.897C45.71 107.897 45.481 107.963 45.2754 108.095C45.0744 108.227 44.9132 108.408 44.7916 108.638C44.6748 108.863 44.6164 109.118 44.6164 109.401C44.6164 109.685 44.6748 109.942 44.7916 110.172C44.9132 110.397 45.0744 110.576 45.2754 110.708C45.481 110.84 45.71 110.906 45.9624 110.906Z" fill="black" fill-opacity="0.6"/>
<path d="M48.7665 111.368V105.812H49.2922V111.368H48.7665Z" fill="black" fill-opacity="0.6"/>
<path d="M50.3684 111.368V107.434H50.8942V111.368H50.3684ZM50.3684 106.708V105.901H50.8942V106.708H50.3684Z" fill="black" fill-opacity="0.6"/>
<path d="M53.2743 111.456C52.9145 111.456 52.599 111.361 52.3279 111.17C52.0569 110.979 51.8606 110.72 51.7391 110.392L52.1807 110.172C52.2882 110.412 52.4378 110.603 52.6294 110.745C52.8257 110.886 53.0407 110.957 53.2743 110.957C53.4987 110.957 53.688 110.901 53.8422 110.789C53.9964 110.671 54.0735 110.519 54.0735 110.334C54.0735 110.197 54.0361 110.089 53.9614 110.011C53.8866 109.927 53.8001 109.864 53.702 109.82C53.6038 109.776 53.5174 109.744 53.4426 109.724L52.9028 109.563C52.5569 109.46 52.3069 109.316 52.1527 109.13C51.9985 108.944 51.9213 108.729 51.9213 108.484C51.9213 108.254 51.9774 108.053 52.0896 107.882C52.2018 107.711 52.3536 107.579 52.5453 107.486C52.7369 107.393 52.9495 107.346 53.1832 107.346C53.501 107.346 53.7884 107.434 54.0455 107.611C54.3072 107.782 54.4918 108.022 54.5993 108.33L54.1506 108.55C54.0572 108.33 53.9216 108.159 53.744 108.036C53.5711 107.909 53.3772 107.845 53.1622 107.845C52.9519 107.845 52.7836 107.902 52.6574 108.014C52.5312 108.127 52.4682 108.269 52.4682 108.44C52.4682 108.572 52.5009 108.677 52.5663 108.756C52.6317 108.834 52.7065 108.893 52.7906 108.932C52.8794 108.971 52.9565 109 53.022 109.02L53.6459 109.211C53.9497 109.304 54.1857 109.448 54.3539 109.644C54.5269 109.839 54.6133 110.069 54.6133 110.334C54.6133 110.549 54.5549 110.742 54.4381 110.913C54.3259 111.085 54.1693 111.219 53.9684 111.317C53.7674 111.41 53.5361 111.456 53.2743 111.456Z" fill="black" fill-opacity="0.6"/>
<path d="M56.9743 111.412C56.6378 111.412 56.3785 111.31 56.1962 111.104C56.0139 110.899 55.9228 110.605 55.9228 110.223V107.985H55.2288V107.434H55.404C55.5629 107.434 55.6891 107.381 55.7826 107.273C55.876 107.16 55.9228 107.021 55.9228 106.855V106.524H56.4486V107.434H57.2758V107.985H56.4486V110.223C56.4486 110.356 56.4673 110.473 56.5046 110.576C56.542 110.674 56.6051 110.752 56.6939 110.811C56.7874 110.869 56.9112 110.899 57.0655 110.899C57.1029 110.899 57.1473 110.896 57.1987 110.891C57.2501 110.886 57.2945 110.882 57.3319 110.877V111.368C57.2758 111.383 57.2127 111.393 57.1426 111.398C57.0725 111.408 57.0164 111.412 56.9743 111.412Z" fill="black" fill-opacity="0.6"/>
<path d="M59.8287 111.456C59.4782 111.456 59.1604 111.368 58.8753 111.192C58.5949 111.011 58.3729 110.764 58.2093 110.451C58.0457 110.138 57.9639 109.783 57.9639 109.387C57.9639 108.99 58.0434 108.641 58.2023 108.337C58.3612 108.029 58.5762 107.787 58.8472 107.611C59.123 107.434 59.4314 107.346 59.7726 107.346C60.0437 107.346 60.2844 107.4 60.4947 107.508C60.7097 107.611 60.8919 107.753 61.0415 107.934C61.191 108.11 61.3055 108.31 61.385 108.535C61.4645 108.756 61.5042 108.983 61.5042 109.218C61.5042 109.267 61.5018 109.323 61.4972 109.387C61.4925 109.445 61.4855 109.507 61.4761 109.57H58.3004V109.056H61.1747L60.9223 109.277C60.9644 109.008 60.934 108.768 60.8312 108.557C60.733 108.342 60.5905 108.173 60.4035 108.051C60.2166 107.924 60.0063 107.86 59.7726 107.86C59.5389 107.86 59.3216 107.924 59.1207 108.051C58.9244 108.178 58.7701 108.357 58.658 108.587C58.5458 108.812 58.5014 109.081 58.5248 109.394C58.5014 109.707 58.5481 109.981 58.665 110.216C58.7865 110.446 58.9501 110.625 59.1557 110.752C59.366 110.879 59.5903 110.943 59.8287 110.943C60.1044 110.943 60.3358 110.874 60.5227 110.737C60.7097 110.6 60.8616 110.429 60.9784 110.223L61.4271 110.473C61.3523 110.649 61.2378 110.813 61.0836 110.965C60.9293 111.111 60.7447 111.231 60.5297 111.324C60.3194 111.412 60.0857 111.456 59.8287 111.456Z" fill="black" fill-opacity="0.6"/>
<path d="M62.4312 111.368V107.434H62.957V108.08L62.8869 107.985C62.9757 107.799 63.1089 107.652 63.2864 107.545C63.4687 107.437 63.6884 107.383 63.9454 107.383H64.1838V107.934H63.8543C63.5832 107.934 63.3659 108.022 63.2023 108.198C63.0388 108.374 62.957 108.623 62.957 108.946V111.368H62.4312Z" fill="black" fill-opacity="0.6"/>
<path d="M65.9911 112.836V107.434H66.5169V108.315L66.4328 108.161C66.5823 107.912 66.781 107.713 67.0287 107.567C67.281 107.42 67.5685 107.346 67.8909 107.346C68.2461 107.346 68.5616 107.437 68.8373 107.618C69.1178 107.794 69.3374 108.036 69.4963 108.345C69.6599 108.653 69.7417 109.005 69.7417 109.401C69.7417 109.793 69.6599 110.145 69.4963 110.458C69.3374 110.767 69.1178 111.011 68.8373 111.192C68.5616 111.368 68.2461 111.456 67.8909 111.456C67.5685 111.456 67.2764 111.381 67.0146 111.229C66.7576 111.072 66.5636 110.852 66.4328 110.568L66.5169 110.488V112.836H65.9911ZM67.8629 110.906C68.1153 110.906 68.3396 110.84 68.5359 110.708C68.7369 110.576 68.8934 110.397 69.0056 110.172C69.1224 109.942 69.1808 109.685 69.1808 109.401C69.1808 109.113 69.1224 108.856 69.0056 108.631C68.8934 108.406 68.7369 108.227 68.5359 108.095C68.3396 107.963 68.1153 107.897 67.8629 107.897C67.6105 107.897 67.3815 107.963 67.1759 108.095C66.9749 108.227 66.8137 108.408 66.6922 108.638C66.5753 108.863 66.5169 109.118 66.5169 109.401C66.5169 109.685 66.5753 109.942 66.6922 110.172C66.8137 110.397 66.9749 110.576 67.1759 110.708C67.3815 110.84 67.6105 110.906 67.8629 110.906Z" fill="black" fill-opacity="0.6"/>
<path d="M71.7536 111.456C71.5152 111.456 71.3026 111.41 71.1157 111.317C70.9287 111.219 70.7815 111.087 70.674 110.921C70.5665 110.754 70.5128 110.563 70.5128 110.348C70.5128 110.143 70.5548 109.957 70.6389 109.79C70.7231 109.619 70.8539 109.475 71.0315 109.357C71.2091 109.24 71.4358 109.157 71.7115 109.108L73.1837 108.851V109.35L71.8377 109.585C71.5667 109.634 71.3704 109.724 71.2488 109.856C71.132 109.989 71.0736 110.145 71.0736 110.326C71.0736 110.502 71.139 110.652 71.2699 110.774C71.4054 110.896 71.5783 110.957 71.7887 110.957C72.0457 110.957 72.27 110.901 72.4616 110.789C72.6533 110.671 72.8028 110.515 72.9103 110.319C73.0178 110.123 73.0715 109.905 73.0715 109.666V108.667C73.0715 108.433 72.9898 108.242 72.8262 108.095C72.6626 107.948 72.45 107.875 72.1882 107.875C71.9592 107.875 71.7583 107.936 71.5854 108.058C71.4124 108.176 71.2839 108.33 71.1998 108.521L70.7231 108.249C70.7932 108.083 70.903 107.931 71.0526 107.794C71.2068 107.657 71.382 107.549 71.5783 107.471C71.7746 107.388 71.9779 107.346 72.1882 107.346C72.464 107.346 72.707 107.403 72.9173 107.515C73.1323 107.628 73.2982 107.784 73.4151 107.985C73.5366 108.181 73.5973 108.408 73.5973 108.667V111.368H73.0715V110.583L73.1487 110.664C73.0832 110.811 72.9804 110.945 72.8402 111.067C72.7047 111.185 72.5434 111.28 72.3565 111.354C72.1742 111.422 71.9733 111.456 71.7536 111.456Z" fill="black" fill-opacity="0.6"/>
<path d="M76.3963 111.456C76.0271 111.456 75.7023 111.366 75.4219 111.185C75.1415 111.004 74.9218 110.759 74.7629 110.451C74.604 110.138 74.5246 109.786 74.5246 109.394C74.5246 109.003 74.604 108.653 74.7629 108.345C74.9218 108.036 75.1415 107.794 75.4219 107.618C75.7023 107.437 76.0271 107.346 76.3963 107.346C76.63 107.346 76.8497 107.39 77.0553 107.479C77.2609 107.567 77.4432 107.686 77.6021 107.838C77.761 107.985 77.8802 108.156 77.9596 108.352L77.4829 108.609C77.3895 108.398 77.2469 108.227 77.0553 108.095C76.8637 107.963 76.644 107.897 76.3963 107.897C76.1486 107.897 75.9243 107.963 75.7233 108.095C75.527 108.222 75.3705 108.401 75.2536 108.631C75.1415 108.856 75.0854 109.113 75.0854 109.401C75.0854 109.685 75.1415 109.942 75.2536 110.172C75.3705 110.397 75.527 110.576 75.7233 110.708C75.9243 110.84 76.1486 110.906 76.3963 110.906C76.644 110.906 76.8613 110.84 77.0483 110.708C77.2399 110.576 77.3848 110.4 77.4829 110.179L77.9596 110.451C77.8802 110.642 77.761 110.813 77.6021 110.965C77.4432 111.116 77.2609 111.236 77.0553 111.324C76.8497 111.412 76.63 111.456 76.3963 111.456Z" fill="black" fill-opacity="0.6"/>
<path d="M78.8823 111.368V105.812H79.408V109.702L79.1837 109.666L81.2938 107.434H81.9738L80.5016 109.012L82.107 111.368H81.4761L79.9689 109.189L80.3054 109.218L79.2328 110.378L79.408 109.923V111.368H78.8823Z" fill="black" fill-opacity="0.6"/>
<path d="M82.7229 111.368V107.434H83.2487V111.368H82.7229ZM82.7229 106.708V105.901H83.2487V106.708H82.7229Z" fill="black" fill-opacity="0.6"/>
<path d="M84.3249 111.368V107.434H84.8506V108.198L84.7315 108.168C84.8249 107.914 84.9768 107.713 85.1871 107.567C85.4021 107.42 85.6498 107.346 85.9302 107.346C86.1966 107.346 86.435 107.41 86.6453 107.537C86.8603 107.664 87.0285 107.841 87.15 108.066C87.2762 108.286 87.3393 108.535 87.3393 108.814V111.368H86.8135V109.027C86.8135 108.787 86.7715 108.584 86.6874 108.418C86.6079 108.252 86.4934 108.124 86.3438 108.036C86.199 107.943 86.0307 107.897 85.8391 107.897C85.6475 107.897 85.4769 107.943 85.3273 108.036C85.1778 108.124 85.061 108.254 84.9768 108.425C84.8927 108.592 84.8506 108.792 84.8506 109.027V111.368H84.3249Z" fill="black" fill-opacity="0.6"/>
<path d="M90.1241 112.983C89.8671 112.983 89.6287 112.941 89.4091 112.858C89.1941 112.775 89.0071 112.66 88.8482 112.513C88.694 112.371 88.5748 112.205 88.4907 112.014L88.9744 111.743C89.0492 111.929 89.1824 112.09 89.374 112.227C89.5656 112.364 89.811 112.433 90.1101 112.433C90.3391 112.433 90.5494 112.386 90.741 112.293C90.9327 112.2 91.0869 112.063 91.2037 111.882C91.3206 111.701 91.379 111.478 91.379 111.214V110.341L91.4631 110.422C91.3323 110.705 91.1383 110.926 90.8812 111.082C90.6242 111.234 90.3438 111.31 90.04 111.31C89.6895 111.31 89.374 111.222 89.0936 111.045C88.8132 110.869 88.5912 110.632 88.4276 110.334C88.2687 110.03 88.1893 109.695 88.1893 109.328C88.1893 108.956 88.2687 108.621 88.4276 108.323C88.5912 108.024 88.8109 107.787 89.0866 107.611C89.367 107.434 89.6848 107.346 90.04 107.346C90.3438 107.346 90.6195 107.42 90.8672 107.567C91.1196 107.713 91.3182 107.912 91.4631 108.161L91.379 108.315V107.434H91.9048V111.214C91.9048 111.552 91.8277 111.853 91.6734 112.117C91.5239 112.386 91.3136 112.596 91.0425 112.748C90.7761 112.905 90.47 112.983 90.1241 112.983ZM90.068 110.759C90.3111 110.759 90.5307 110.696 90.727 110.568C90.9233 110.436 91.0799 110.263 91.1967 110.047C91.3182 109.827 91.379 109.587 91.379 109.328C91.379 109.069 91.3182 108.831 91.1967 108.616C91.0799 108.396 90.9233 108.222 90.727 108.095C90.5307 107.963 90.3111 107.897 90.068 107.897C89.8204 107.897 89.596 107.963 89.3951 108.095C89.1941 108.222 89.0352 108.393 88.9184 108.609C88.8062 108.824 88.7501 109.064 88.7501 109.328C88.7501 109.587 88.8062 109.827 88.9184 110.047C89.0352 110.263 89.1918 110.436 89.388 110.568C89.589 110.696 89.8157 110.759 90.068 110.759Z" fill="black" fill-opacity="0.6"/>
<path d="M95.4803 111.456C95.1204 111.456 94.8049 111.361 94.5339 111.17C94.2628 110.979 94.0665 110.72 93.945 110.392L94.3867 110.172C94.4941 110.412 94.6437 110.603 94.8353 110.745C95.0316 110.886 95.2466 110.957 95.4803 110.957C95.7046 110.957 95.8939 110.901 96.0481 110.789C96.2023 110.671 96.2794 110.519 96.2794 110.334C96.2794 110.197 96.2421 110.089 96.1673 110.011C96.0925 109.927 96.006 109.864 95.9079 109.82C95.8098 109.776 95.7233 109.744 95.6485 109.724L95.1087 109.563C94.7629 109.46 94.5128 109.316 94.3586 109.13C94.2044 108.944 94.1273 108.729 94.1273 108.484C94.1273 108.254 94.1833 108.053 94.2955 107.882C94.4077 107.711 94.5596 107.579 94.7512 107.486C94.9428 107.393 95.1554 107.346 95.3891 107.346C95.7069 107.346 95.9944 107.434 96.2514 107.611C96.5131 107.782 96.6977 108.022 96.8052 108.33L96.3566 108.55C96.2631 108.33 96.1276 108.159 95.95 108.036C95.777 107.909 95.5831 107.845 95.3681 107.845C95.1578 107.845 94.9895 107.902 94.8633 108.014C94.7372 108.127 94.6741 108.269 94.6741 108.44C94.6741 108.572 94.7068 108.677 94.7722 108.756C94.8376 108.834 94.9124 108.893 94.9966 108.932C95.0854 108.971 95.1625 109 95.2279 109.02L95.8518 109.211C96.1556 109.304 96.3916 109.448 96.5599 109.644C96.7328 109.839 96.8192 110.069 96.8192 110.334C96.8192 110.549 96.7608 110.742 96.644 110.913C96.5318 111.085 96.3753 111.219 96.1743 111.317C95.9733 111.41 95.742 111.456 95.4803 111.456Z" fill="black" fill-opacity="0.6"/>
<path d="M99.5027 111.456C99.1475 111.456 98.8251 111.368 98.5353 111.192C98.2455 111.011 98.0142 110.767 97.8413 110.458C97.673 110.145 97.5889 109.79 97.5889 109.394C97.5889 109.003 97.673 108.653 97.8413 108.345C98.0095 108.036 98.2362 107.794 98.5213 107.618C98.811 107.437 99.1382 107.346 99.5027 107.346C99.8673 107.346 100.192 107.434 100.477 107.611C100.767 107.787 100.994 108.029 101.157 108.337C101.325 108.645 101.41 108.998 101.41 109.394C101.41 109.795 101.323 110.152 101.15 110.466C100.977 110.774 100.746 111.016 100.456 111.192C100.171 111.368 99.8532 111.456 99.5027 111.456ZM99.5027 110.906C99.7551 110.906 99.9818 110.84 100.183 110.708C100.388 110.576 100.55 110.395 100.666 110.165C100.788 109.935 100.849 109.678 100.849 109.394C100.849 109.11 100.788 108.856 100.666 108.631C100.55 108.406 100.388 108.227 100.183 108.095C99.9818 107.963 99.7551 107.897 99.5027 107.897C99.2504 107.897 99.0214 107.963 98.8157 108.095C98.6148 108.227 98.4535 108.406 98.332 108.631C98.2105 108.856 98.1497 109.11 98.1497 109.394C98.1497 109.678 98.2105 109.935 98.332 110.165C98.4535 110.395 98.6148 110.576 98.8157 110.708C99.0214 110.84 99.2504 110.906 99.5027 110.906Z" fill="black" fill-opacity="0.6"/>
<path d="M102.337 111.368V105.812H102.863V111.368H102.337Z" fill="black" fill-opacity="0.6"/>
<path d="M105.271 111.456C105.009 111.456 104.771 111.393 104.556 111.266C104.341 111.134 104.17 110.952 104.044 110.723C103.922 110.488 103.862 110.219 103.862 109.915V107.434H104.387V109.849C104.387 110.06 104.427 110.245 104.507 110.407C104.591 110.563 104.705 110.686 104.85 110.774C105 110.862 105.17 110.906 105.362 110.906C105.554 110.906 105.724 110.862 105.874 110.774C106.023 110.681 106.14 110.551 106.224 110.385C106.308 110.214 106.35 110.011 106.35 109.776V107.434H106.876V111.368H106.35V110.605L106.47 110.634C106.381 110.889 106.229 111.089 106.014 111.236C105.799 111.383 105.551 111.456 105.271 111.456Z" fill="black" fill-opacity="0.6"/>
<path d="M109.395 111.412C109.058 111.412 108.799 111.31 108.616 111.104C108.434 110.899 108.343 110.605 108.343 110.223V107.985H107.649V107.434H107.824C107.983 107.434 108.109 107.381 108.203 107.273C108.296 107.16 108.343 107.021 108.343 106.855V106.524H108.869V107.434H109.696V107.985H108.869V110.223C108.869 110.356 108.887 110.473 108.925 110.576C108.962 110.674 109.025 110.752 109.114 110.811C109.208 110.869 109.331 110.899 109.486 110.899C109.523 110.899 109.567 110.896 109.619 110.891C109.67 110.886 109.715 110.882 109.752 110.877V111.368C109.696 111.383 109.633 111.393 109.563 111.398C109.493 111.408 109.437 111.412 109.395 111.412Z" fill="black" fill-opacity="0.6"/>
<path d="M110.675 111.368V107.434H111.201V111.368H110.675ZM110.675 106.708V105.901H111.201V106.708H110.675Z" fill="black" fill-opacity="0.6"/>
<path d="M114.037 111.456C113.682 111.456 113.359 111.368 113.069 111.192C112.78 111.011 112.548 110.767 112.375 110.458C112.207 110.145 112.123 109.79 112.123 109.394C112.123 109.003 112.207 108.653 112.375 108.345C112.544 108.036 112.77 107.794 113.055 107.618C113.345 107.437 113.672 107.346 114.037 107.346C114.401 107.346 114.726 107.434 115.011 107.611C115.301 107.787 115.528 108.029 115.691 108.337C115.86 108.645 115.944 108.998 115.944 109.394C115.944 109.795 115.857 110.152 115.684 110.466C115.511 110.774 115.28 111.016 114.99 111.192C114.705 111.368 114.387 111.456 114.037 111.456ZM114.037 110.906C114.289 110.906 114.516 110.84 114.717 110.708C114.923 110.576 115.084 110.395 115.201 110.165C115.322 109.935 115.383 109.678 115.383 109.394C115.383 109.11 115.322 108.856 115.201 108.631C115.084 108.406 114.923 108.227 114.717 108.095C114.516 107.963 114.289 107.897 114.037 107.897C113.785 107.897 113.556 107.963 113.35 108.095C113.149 108.227 112.988 108.406 112.866 108.631C112.745 108.856 112.684 109.11 112.684 109.394C112.684 109.678 112.745 109.935 112.866 110.165C112.988 110.395 113.149 110.576 113.35 110.708C113.556 110.84 113.785 110.906 114.037 110.906Z" fill="black" fill-opacity="0.6"/>
<path d="M116.871 111.368V107.434H117.397V108.198L117.278 108.168C117.371 107.914 117.523 107.713 117.733 107.567C117.948 107.42 118.196 107.346 118.476 107.346C118.743 107.346 118.981 107.41 119.191 107.537C119.406 107.664 119.575 107.841 119.696 108.066C119.822 108.286 119.885 108.535 119.885 108.814V111.368H119.36V109.027C119.36 108.787 119.318 108.584 119.233 108.418C119.154 108.252 119.04 108.124 118.89 108.036C118.745 107.943 118.577 107.897 118.385 107.897C118.194 107.897 118.023 107.943 117.873 108.036C117.724 108.124 117.607 108.254 117.523 108.425C117.439 108.592 117.397 108.792 117.397 109.027V111.368H116.871Z" fill="black" fill-opacity="0.6"/>
<path d="M122.194 111.456C121.834 111.456 121.518 111.361 121.247 111.17C120.976 110.979 120.78 110.72 120.658 110.392L121.1 110.172C121.207 110.412 121.357 110.603 121.549 110.745C121.745 110.886 121.96 110.957 122.194 110.957C122.418 110.957 122.607 110.901 122.761 110.789C122.916 110.671 122.993 110.519 122.993 110.334C122.993 110.197 122.955 110.089 122.881 110.011C122.806 109.927 122.719 109.864 122.621 109.82C122.523 109.776 122.437 109.744 122.362 109.724L121.822 109.563C121.476 109.46 121.226 109.316 121.072 109.13C120.918 108.944 120.841 108.729 120.841 108.484C120.841 108.254 120.897 108.053 121.009 107.882C121.121 107.711 121.273 107.579 121.464 107.486C121.656 107.393 121.869 107.346 122.102 107.346C122.42 107.346 122.708 107.434 122.965 107.611C123.226 107.782 123.411 108.022 123.519 108.33L123.07 108.55C122.976 108.33 122.841 108.159 122.663 108.036C122.49 107.909 122.296 107.845 122.081 107.845C121.871 107.845 121.703 107.902 121.577 108.014C121.45 108.127 121.387 108.269 121.387 108.44C121.387 108.572 121.42 108.677 121.486 108.756C121.551 108.834 121.626 108.893 121.71 108.932C121.799 108.971 121.876 109 121.941 109.02L122.565 109.211C122.869 109.304 123.105 109.448 123.273 109.644C123.446 109.839 123.533 110.069 123.533 110.334C123.533 110.549 123.474 110.742 123.357 110.913C123.245 111.085 123.089 111.219 122.888 111.317C122.687 111.41 122.455 111.456 122.194 111.456Z" fill="black" fill-opacity="0.6"/>
<defs>
<linearGradient id="paint0_linear_6487_106122" x1="65.4053" y1="38.3367" x2="66.4553" y2="66.8968" gradientUnits="userSpaceOnUse">
<stop stop-color="#44BCFF"/>
<stop offset="1" stop-color="#4285F4"/>
</linearGradient>
<linearGradient id="paint1_linear_6487_106122" x1="51.7927" y1="38.845" x2="52.7918" y2="66.0228" gradientUnits="userSpaceOnUse">
<stop stop-color="#44BCFF"/>
<stop offset="1" stop-color="#4285F4"/>
</linearGradient>
<linearGradient id="paint2_linear_6487_106122" x1="61.0039" y1="0.648299" x2="62.2553" y2="34.6877" gradientUnits="userSpaceOnUse">
<stop stop-color="#44BCFF"/>
<stop offset="1" stop-color="#4285F4"/>
</linearGradient>
<clipPath id="clip0_6487_106122">
<rect width="32.7168" height="66.408" fill="white" transform="translate(44.6566 1.24927) rotate(-2.10538)"/>
</clipPath>
</defs>
</svg>
