<svg xmlns="http://www.w3.org/2000/svg" width="205.001" height="51.046" viewBox="0 0 205.001 51.046"><g transform="translate(-63.227 -10.846)"><g transform="translate(63.227 10.846)"><g transform="translate(1.017 0)"><g transform="translate(83.792 18.771)"><path d="M82.979,27.586a2.334,2.334,0,0,1-1.725-3.916c.019-.019.036-.038.057-.057a2.366,2.366,0,0,1,3.342.012,2.226,2.226,0,0,1,.124,3.141c-.039.043-.081.084-.124.124A2.331,2.331,0,0,1,82.979,27.586Z" transform="translate(-80.636 -22.929)" fill="#979797"/></g><g transform="translate(90.865 24.904)"><path d="M101.711,39.023q-.224-3.11-5.395-4.119a13.792,13.792,0,0,1-2.692-.705,1.13,1.13,0,0,1-.8-1.049.907.907,0,0,1,.493-.821,2.25,2.25,0,0,1,1.162-.292,2.12,2.12,0,0,1,1.262.377,1.384,1.384,0,0,1,.545,1.14H101.3a4.028,4.028,0,0,0-1.953-3.478,9.016,9.016,0,0,0-4.98-1.242,8.586,8.586,0,0,0-4.763,1.2,3.7,3.7,0,0,0-1.84,3.238q0,3.323,5.264,4.549a15.939,15.939,0,0,1,2.744.783,1.027,1.027,0,0,1,.673.963.943.943,0,0,1-.527.819,2.439,2.439,0,0,1-1.284.321,2.7,2.7,0,0,1-1.412-.347,1.253,1.253,0,0,1-.613-1.106H87.446V39.4a4.086,4.086,0,0,0,2.043,3.458,8.883,8.883,0,0,0,4.039,1.222q.623.055,1.3.054.633,0,1.216-.054a7.833,7.833,0,0,0,3.791-1.244,4.052,4.052,0,0,0,1.871-3.18c.007-.112.011-.224.011-.344A1.757,1.757,0,0,0,101.711,39.023Z" transform="translate(-87.446 -28.834)" fill="#979797"/></g><g transform="translate(107.377 24.894)"><path d="M112.687,28.828a6.221,6.221,0,0,0-2.771.912,4.507,4.507,0,0,0-1.952,2.3h-.058l-.3-3.209h-4.262V44.086H108.2V37.671a4.332,4.332,0,0,1,1.17-3.207,4.647,4.647,0,0,1,3.422-1.171V28.825A.885.885,0,0,0,112.687,28.828Z" transform="translate(-103.344 -28.825)" fill="#979797"/></g><g transform="translate(65.028 18.752)"><path d="M79.077,37.175V22.911H74.222V31.24h-.085a4.082,4.082,0,0,0-1.775-1.57,5.623,5.623,0,0,0-2.56-.614,6.74,6.74,0,0,0-2.685.543,7.736,7.736,0,0,0-2.343,1.6,7.309,7.309,0,0,0-2.2,5.469,7.335,7.335,0,0,0,2.218,5.513,7.815,7.815,0,0,0,2.329,1.584,6.845,6.845,0,0,0,2.171.536c.2.016.407.025.614.025s.4-.009.591-.025a7.173,7.173,0,0,0,2.147-.528,3.453,3.453,0,0,0,1.868-1.611h.085l.224,2.142h4.264ZM73.227,39.1a3.368,3.368,0,1,1,1-2.4,3.276,3.276,0,0,1-1,2.4Z" transform="translate(-62.57 -22.911)" fill="#979797"/></g><g transform="translate(83.779 24.898)"><rect width="4.85" height="15.251" fill="#979797"/></g><g transform="translate(119.056 24.89)"><path d="M124.758,28.824V36.83a2.984,2.984,0,0,1-.776,2.118,2.479,2.479,0,0,1-1.89.834,2.436,2.436,0,0,1-1.855-.834,2.962,2.962,0,0,1-.77-2.09V28.824h-4.878v8.463a7.119,7.119,0,0,0,1.7,4.886,5.571,5.571,0,0,0,3.862,1.907c.2.016.412.025.624.025.18,0,.356-.009.534-.025a5.233,5.233,0,0,0,1.877-.546,4.487,4.487,0,0,0,1.8-1.625h.086l.271,2.171h4.264V28.82Z" transform="translate(-114.589 -28.82)" fill="#979797"/></g><g transform="translate(136.315 24.898)"><path d="M145.444,30.988a7.216,7.216,0,0,0-5.128-2.16,6.821,6.821,0,0,0-2.692.561,3.485,3.485,0,0,0-1.855,1.619h-.085l-.215-1.783h-4.264V50.149h4.849V41.936h.086a3.64,3.64,0,0,0,1.747,1.57,5.977,5.977,0,0,0,2.081.573c.186.017.373.026.561.026s.4-.009.589-.026a7.008,7.008,0,0,0,4.382-2.131,7.3,7.3,0,0,0,2.2-5.449A7.292,7.292,0,0,0,145.444,30.988Zm-3.608,7.866a3.4,3.4,0,0,1-5.784-2.384,3.23,3.23,0,0,1,1.01-2.375,3.333,3.333,0,0,1,4.712-.059c.019.021.038.039.058.059a3.282,3.282,0,0,1,.112,4.638l-.112.118Z" transform="translate(-131.206 -28.828)" fill="#979797"/></g><g transform="translate(155.016 21.732)"><path d="M156.457,28.942V25.78h-4.849v3.162h-2.4v4.226h2.4v5.093a5.675,5.675,0,0,0,1.782,4.293,6.175,6.175,0,0,0,3.688,1.643,8.537,8.537,0,0,0,.991.054,10.414,10.414,0,0,0,1.095-.054,4.08,4.08,0,0,0,1.772-.532V39.771a8.165,8.165,0,0,1-2.082.441,2.215,2.215,0,0,1-2.4-2.019,2.046,2.046,0,0,1,0-.375V33.168h4.478V28.942Z" transform="translate(-149.212 -25.78)" fill="#979797"/></g><g transform="translate(168.976 30.533)"><rect width="8.944" height="4.093" fill="#979797"/></g><g transform="translate(190.737 18.074)"><path d="M196.791,22.725,188.646,33a.29.29,0,0,1-.407.042A.223.223,0,0,1,188.2,33l-4.3-5.335-.237-.319a.293.293,0,0,1,0-.345l3.4-4.627a.289.289,0,0,1,.233-.112h9.273a.29.29,0,0,1,.223.467Z" transform="translate(-183.605 -22.258)" fill="#979797"/></g><g transform="translate(174.682 32.712)"><path d="M181.37,42.446,177.7,47.382a.294.294,0,0,1-.239.12h-9.021a.3.3,0,0,1-.235-.479l8.153-10.555a.3.3,0,0,1,.415-.055.251.251,0,0,1,.05.05l4.32,5.324.224.305A.294.294,0,0,1,181.37,42.446Z" transform="translate(-168.147 -36.352)" fill="#979797"/></g><g transform="translate(174.934 18.071)"><path d="M197.137,48.047h-9.025a.292.292,0,0,1-.237-.119l-5.065-6.888L177.91,35l-9.46-12.269a.3.3,0,0,1,.053-.412.31.31,0,0,1,.18-.061h9.032a.293.293,0,0,1,.237.12l4.863,6.58L187.686,35l9.687,12.576a.295.295,0,0,1-.237.474Z" transform="translate(-168.389 -22.255)" fill="#979797"/></g><path d="M59.429,27.018c-.14-.135-1.614-2.064-2.478-2.188-.865-.306-3.4-.517-3.552-.637a12.83,12.83,0,0,0-.119-1.41c-.064-.469-.144-.937-.218-1.387q-.045-.27-.112-.534t-.158-.522c-.212-.61-.449-1.235-.721-1.845a26.333,26.333,0,0,0-1.719-3.271,10.3,10.3,0,0,0-1.334-1.392,12.168,12.168,0,0,0-9.468-4.1,16.222,16.222,0,0,0-2.177-.128c-.213,0-.426.008-.638.022s-.424.031-.635.055c-.532.06-1.065.122-1.6.2s-.046-.428-.569-.317c-.486-.122-.112.112-.318-.112a1.6,1.6,0,0,0-.566-.509c-.138.057-.338-.224-.625-.316-.138-.139-.525-.491-.664-.434-.3-.146-1.053-.411-1.363-.537s-1.419-.383-1.711-.5c-.662-.259-5.307-1.2-10.665,3.15a14.276,14.276,0,0,1-1.65,1.255,8.972,8.972,0,0,0-1.3.843c-.416.317-.816.653-1.186.962a5.514,5.514,0,0,0-.45.418c-.142.145-.276.3-.406.46a3.518,3.518,0,0,0-.95,1.733c-.224,1.043-.144,2.629-.415,3.538-.364,1.239-5.8,5.675-6.374,7.585.022.035-2.293,5.572-.7,9.863a28.734,28.734,0,0,0,.32,3.272c.034.506,4.039,6.759,7.327,8.79.083.051.167.1.252.142s.172.086.262.127c.337.154.682.314,1.03.462s.7.29,1.054.407a8.31,8.31,0,0,0,1.506.338c.515.071,1.033.106,1.53.13.112.005.231.005.346,0s.231-.01.346-.022c.393-.034.792-.079,1.189-.133s.794-.118,1.182-.193a5.212,5.212,0,0,0,.673-.176c.218-.071.435-.152.65-.241.514-.21,1.024-.416,1.527-.639a15.078,15.078,0,0,0,1.475-.745c.23-.133.456-.273.68-.414s.449-.288.674-.433l.358-.236.359-.235c.12.1,1.253-1.211,1.4-1.132a19.866,19.866,0,0,0,1.312,2.486c.87,1.069,1.92,3.478,2.617,3.478.642.057,1.713-2.236,2.1-2.95.279-.547.849-1.54,1.176-2.123.26-.136.9-1.549,1.131-1.729a9.933,9.933,0,0,0,2.544,2.186c.567.374.621.532,1.547,1.107a12.062,12.062,0,0,0,1.321.662,1.99,1.99,0,0,0,.932.2c.171.014,1.139.084,1.311.083s.991-.039,1.161-.054a17.79,17.79,0,0,0,7.381-1.521c1.08-.544,4.067-2.505,4.247-2.94s1.883-2.037,2.555-3.726a13.025,13.025,0,0,0,1.458-4.361A15.556,15.556,0,0,0,59.429,27.018Z" transform="translate(-4.029 -6.891)" fill="#979797"/></g><g transform="translate(0 0.326)"><path d="M32.422,55.89l-.816-1.434c-.779-1.37-1.709-2.939-2.689-4.539-.259-.422-.489-.795-.679-1.1a18.334,18.334,0,0,1-10.263,3.627,12.592,12.592,0,0,1-4-.642c-4.588-1.526-8.122-5.623-10.22-11.85L3.738,39.9l-.011-.052C1.982,32,3.939,26.872,5.888,23.956A14.631,14.631,0,0,1,10.2,19.691a14.868,14.868,0,0,1,3.254-7.3,20.971,20.971,0,0,1,2.976-3.12l.044-.035C22.3,4.8,27.131,4.784,30.158,5.554a12.587,12.587,0,0,1,4.757,2.361,15.454,15.454,0,0,1,7.68-1.2,14.1,14.1,0,0,1,9.233,4.751,14.846,14.846,0,0,1,3.871,8.4,12.559,12.559,0,0,1-.006,2.643,7.378,7.378,0,0,1,5.026,2.961,14.47,14.47,0,0,1,2.771,7.457,17.65,17.65,0,0,1-1.34,8.758A14.52,14.52,0,0,1,55.668,48.7c-6.337,3.385-11.2,2.892-14.166,1.882a13.405,13.405,0,0,1-4.116-2.259Zm-3.628-9.979.583.919c.005.008.518.819,1.262,2.032.676,1.1,1.313,2.164,1.9,3.17l4.541-6.92.876,1a10.612,10.612,0,0,0,4.2,2.561c3.762,1.282,7.989.693,12.563-1.751,5.7-3.045,7.231-9.121,6.763-13.792-.456-4.551-2.973-8.973-6.9-8.615l-1.485.134.427-1.429a9.2,9.2,0,0,0,.168-3.148,12.839,12.839,0,0,0-3.37-7.256,12.118,12.118,0,0,0-7.929-4.086,13.251,13.251,0,0,0-7.185,1.284l-.662.339-.518-.53a10.188,10.188,0,0,0-4.365-2.31c-3.769-.96-7.785.155-11.94,3.313a18.92,18.92,0,0,0-2.668,2.8,12.751,12.751,0,0,0-2.882,6.736l-.035.584-.524.26a12.13,12.13,0,0,0-4.044,3.872c-2.473,3.7-3.122,8.636-1.88,14.278,1.889,5.573,4.975,9.214,8.927,10.527,3.991,1.326,8.592.178,13.309-3.325Z" transform="translate(-3.05 -5.17)" fill="#979797"/></g></g><g transform="translate(87.036 14.458)"><path d="M53.478,21.482a14.872,14.872,0,0,0-.257-1.672,10.29,10.29,0,0,0-.2-1.623,14.861,14.861,0,0,0-.547-1.543,18.805,18.805,0,0,0-.85-1.907,15.988,15.988,0,0,0-2.213-2.617A19.66,19.66,0,0,0,46.117,10c-2.258-1.271-4.079-2.08-7.381-1.446a13.856,13.856,0,0,0-7.411,1.808,13.416,13.416,0,0,0-1.592,1.087,11.616,11.616,0,0,0-1.4,1.314c-.234.261-.474.522-.7.791A7.539,7.539,0,0,0,27,14.4a8.139,8.139,0,0,0-.515.92,6.538,6.538,0,0,0-.389,1.05,3.247,3.247,0,0,0-.117.83,1.523,1.523,0,0,0,.166.778.3.3,0,0,1,0,.154.225.225,0,0,0,.011.152c.015.049.032.095.051.142.025.064.05.13.052.14a1.287,1.287,0,0,0,.407.714,1.019,1.019,0,0,0,.958.235,1.6,1.6,0,0,0,.848-.647,2.742,2.742,0,0,0,.47-1.01c.033-.025.2-.271.377-.518s.344-.492.376-.517c.126-.124.272-.24.4-.368a1.087,1.087,0,0,0,.285-.433,2.121,2.121,0,0,1,.378-.57,5.775,5.775,0,0,0,.458-.523,6.122,6.122,0,0,1,.744-.733c.264-.224.54-.433.822-.656.308-.217.629-.438.959-.643a8.63,8.63,0,0,1,1.018-.545,10.242,10.242,0,0,1,1.16-.355c.393-.1.79-.17,1.193-.234a10.978,10.978,0,0,1,1.407-.05c.468.01.938.047,1.405.1a4.711,4.711,0,0,1,1.508.644,9.163,9.163,0,0,0,1.388.761,6.216,6.216,0,0,1,1.255.775c.4.3.785.624,1.175.906a13.631,13.631,0,0,1,2.061,1.994,12.622,12.622,0,0,1,.739,1.084,11.7,11.7,0,0,1,.617,1.154,11.1,11.1,0,0,1,.379,1.1A10.631,10.631,0,0,1,49.3,21.36l.006.063.007.065a2.831,2.831,0,0,0,.17.769,1.825,1.825,0,0,0,.439.66,2.2,2.2,0,0,0,.673.435,1.889,1.889,0,0,0,.8.156,2.608,2.608,0,0,0,.8-.156,1.784,1.784,0,0,0,.673-.435,2.592,2.592,0,0,0,.457-.657A1.452,1.452,0,0,0,53.478,21.482Z" transform="translate(-25.974 -8.334)" fill="#979797"/></g><g transform="translate(88.434 15.647)" opacity="0.5" style="isolation:isolate"><path d="M27.465,16.247a3.823,3.823,0,0,0-.134.617,1.24,1.24,0,0,0,.069.606,4.46,4.46,0,0,1,.652-1.478c0,.093-.009.186-.009.279a1.782,1.782,0,0,0,.02.278,1.05,1.05,0,0,0,.077.269.817.817,0,0,0,.152.233,2.924,2.924,0,0,1,.337-.834,8.677,8.677,0,0,1,.507-.758,10.27,10.27,0,0,1,2.715-2.567A13.253,13.253,0,0,1,35.271,11.3a18.4,18.4,0,0,1,3.7-.7,30.164,30.164,0,0,1,3.777-.076c.536.019,1.073.049,1.6.112a7.892,7.892,0,0,1,1.561.35l-1.067-.461-1.065-.46c-.168-.073-.337-.146-.506-.211a4.67,4.67,0,0,0-.52-.168,4.477,4.477,0,0,0-.5-.089c-.167-.021-.337-.034-.5-.047a22.314,22.314,0,0,0-4.561.084,12.948,12.948,0,0,0-4.308,1.3q-.354.187-.7.393c-.23.137-.456.277-.682.418-.442.274-.889.553-1.31.858a6.8,6.8,0,0,0-1.158,1.047c-.138.161-.265.328-.386.5s-.239.348-.355.522c-.16.24-.329.494-.479.756A3.566,3.566,0,0,0,27.465,16.247Z" transform="translate(-27.32 -9.478)" fill="#979797"/></g><g transform="translate(81.388 47.184)"><rect width="0.561" height="6.598" transform="translate(0 0.378) rotate(-42.353)"/></g><g transform="translate(64.538 12.592)"><path d="M41.3,26.091l.009.138.01.136s.009.022.03.06.049.091.088.158c-.03-.079-.057-.159-.081-.241A2.52,2.52,0,0,1,41.3,26.091Zm0,0,.009.138.01.136s.009.022.03.06.049.091.088.158c-.03-.079-.057-.159-.081-.241A2.52,2.52,0,0,1,41.3,26.091Zm0,0,.009.138.01.136s.009.022.03.06.049.091.088.158c-.03-.079-.057-.159-.081-.241A2.52,2.52,0,0,1,41.3,26.091Zm0,0,.009.138.01.136s.009.022.03.06.049.091.088.158c-.03-.079-.057-.159-.081-.241A2.52,2.52,0,0,1,41.3,26.091Zm0,0,.009.138.01.136s.009.022.03.06.049.091.088.158c-.03-.079-.057-.159-.081-.241A2.52,2.52,0,0,1,41.3,26.091ZM30.9,30.924a2.4,2.4,0,1,0,1.691.7A2.394,2.394,0,0,0,30.9,30.924Zm0,4.331a1.933,1.933,0,1,1,1.362-.567,1.932,1.932,0,0,1-1.362.567ZM41.3,26.091l.009.138.01.136s.009.022.03.06.049.091.088.158c-.03-.079-.057-.159-.081-.241a2.52,2.52,0,0,1-.057-.251ZM30.9,30.924a2.4,2.4,0,1,0,1.691.7A2.394,2.394,0,0,0,30.9,30.924Zm0,4.331a1.933,1.933,0,1,1,1.362-.567,1.932,1.932,0,0,1-1.362.567ZM22.308,24.372a1.473,1.473,0,0,0-1.04.425,1.442,1.442,0,0,0-.017,2.039l.017.017a1.481,1.481,0,0,0,2.079,0,1.44,1.44,0,0,0,.018-2.037h0l-.017-.018a1.478,1.478,0,0,0-1.04-.428Zm.032,2.505a1.048,1.048,0,1,1,.739-.315,1.029,1.029,0,0,1-.739.306ZM30.9,30.928a2.392,2.392,0,1,0,1.691.7A2.391,2.391,0,0,0,30.9,30.928Zm0,4.329a1.933,1.933,0,1,1,1.362-.57,1.931,1.931,0,0,1-1.362.57v0ZM41.3,26.094l.009.138.01.137s.009.021.03.059.049.092.088.158c-.03-.078-.057-.159-.081-.241a2.58,2.58,0,0,1-.057-.254v0ZM22.308,24.372a1.473,1.473,0,0,0-1.04.425,1.442,1.442,0,0,0-.017,2.039l.017.017a1.481,1.481,0,0,0,2.079,0,1.44,1.44,0,0,0,.018-2.037h0l-.017-.018a1.477,1.477,0,0,0-1.04-.425Zm.032,2.506a1.05,1.05,0,1,1,.739-.307A1.05,1.05,0,0,1,22.34,26.878Zm8.555,4.05a2.392,2.392,0,1,0,1.691.7A2.391,2.391,0,0,0,30.9,30.928Zm0,4.329a1.933,1.933,0,1,1,1.362-.57,1.931,1.931,0,0,1-1.362.57ZM22.308,24.374a1.47,1.47,0,0,0-1.04.426,1.441,1.441,0,0,0-.017,2.038l.017.017a1.481,1.481,0,0,0,2.079,0,1.44,1.44,0,0,0,.018-2.037h0l-.017-.017a1.47,1.47,0,0,0-1.04-.431Zm.032,2.505a1.048,1.048,0,1,1,.739-.317,1.029,1.029,0,0,1-.739.306ZM30.9,30.93a2.392,2.392,0,1,0,1.691.7A2.392,2.392,0,0,0,30.9,30.93Zm0,4.329a.8.8,0,1,0,0-.005Zm4.076-10.716a1.488,1.488,0,1,0,1.05.436A1.488,1.488,0,0,0,34.971,24.542Zm0,2.606a1.113,1.113,0,1,1,.785-.326A1.114,1.114,0,0,1,34.971,27.148Zm6.33-1.055.009.138.01.137s.009.021.03.059.049.091.088.158c-.03-.078-.057-.159-.081-.241a2.559,2.559,0,0,1-.057-.253v0Zm-6.33-1.551a1.486,1.486,0,1,0,1.05.435A1.488,1.488,0,0,0,34.971,24.542Zm0,2.6a1.113,1.113,0,1,1,.785-.326,1.114,1.114,0,0,1-.785.326ZM22.308,24.369a1.473,1.473,0,0,0-1.04.425,1.442,1.442,0,0,0-.017,2.039l.017.017a1.481,1.481,0,0,0,2.079,0,1.442,1.442,0,0,0,.018-2.038h0l-.017-.017A1.477,1.477,0,0,0,22.308,24.369Zm.032,2.505a1.048,1.048,0,1,1,.739-.312,1.029,1.029,0,0,1-.739.306Zm8.555,4.05a2.392,2.392,0,1,0,1.691.7A2.392,2.392,0,0,0,30.9,30.924Zm0,4.33a1.933,1.933,0,1,1,1.362-.567A1.932,1.932,0,0,1,30.9,35.254ZM22.308,24.371a1.473,1.473,0,0,0-1.04.425,1.442,1.442,0,0,0-.017,2.039l.017.017a1.481,1.481,0,0,0,2.079,0,1.44,1.44,0,0,0,.018-2.037v0l-.017-.017a1.472,1.472,0,0,0-1.04-.427Zm.032,2.505a1.048,1.048,0,1,1,.739-.314,1.029,1.029,0,0,1-.739.306Zm8.555,4.05a2.394,2.394,0,1,0,1.691.7A2.392,2.392,0,0,0,30.9,30.926Zm0,4.33a1.933,1.933,0,1,1,1.362-.569,1.932,1.932,0,0,1-1.362.569Zm4.076-10.713a1.488,1.488,0,1,0,1.05.436A1.488,1.488,0,0,0,34.971,24.542Zm0,2.606a1.113,1.113,0,1,1,.785-.326A1.114,1.114,0,0,1,34.971,27.148Zm9.035-3a1.447,1.447,0,1,0,1.02.424A1.446,1.446,0,0,0,44.006,24.147Zm0,2.5a1.057,1.057,0,1,1,.746-.311A1.058,1.058,0,0,1,44.006,26.651Zm-2.7-.561.009.138.01.136s.009.022.03.06.049.091.088.158c-.03-.079-.057-.159-.081-.241a2.455,2.455,0,0,1-.057-.251Zm2.7-1.946a1.447,1.447,0,1,0,1.02.424A1.446,1.446,0,0,0,44.006,24.144Zm0,2.5a1.057,1.057,0,1,1,.746-.311A1.057,1.057,0,0,1,44.006,26.648Zm-9.035-2.105a1.486,1.486,0,1,0,1.05.435A1.488,1.488,0,0,0,34.971,24.542Zm0,2.6a1.113,1.113,0,1,1,.785-.326,1.114,1.114,0,0,1-.785.326ZM22.308,24.369a1.473,1.473,0,0,0-1.04.425,1.442,1.442,0,0,0-.017,2.039l.017.017a1.481,1.481,0,0,0,2.079,0,1.442,1.442,0,0,0,.018-2.038h0l-.017-.017A1.477,1.477,0,0,0,22.308,24.369Zm.032,2.505a1.048,1.048,0,1,1,.739-.312,1.029,1.029,0,0,1-.739.306Zm8.555,4.05a2.392,2.392,0,1,0,1.691.7A2.392,2.392,0,0,0,30.9,30.924Zm0,4.33a1.933,1.933,0,1,1,1.362-.567A1.932,1.932,0,0,1,30.9,35.254ZM22.308,24.371a1.473,1.473,0,0,0-1.04.425,1.442,1.442,0,0,0-.017,2.039l.017.017a1.481,1.481,0,0,0,2.079,0,1.44,1.44,0,0,0,.018-2.037v0l-.017-.017a1.472,1.472,0,0,0-1.04-.427Zm.032,2.505a1.048,1.048,0,1,1,.739-.314,1.029,1.029,0,0,1-.739.306Zm8.555,4.05a2.394,2.394,0,1,0,1.691.7A2.392,2.392,0,0,0,30.9,30.926Zm0,4.331a1.933,1.933,0,1,1,1.362-.569,1.932,1.932,0,0,1-1.362.569Zm4.076-10.714a1.486,1.486,0,1,0,1.05.435A1.488,1.488,0,0,0,34.971,24.542Zm0,2.6a1.113,1.113,0,1,1,.785-.326A1.114,1.114,0,0,1,34.971,27.147Zm9.035-3a1.447,1.447,0,1,0,1.02.424A1.446,1.446,0,0,0,44.006,24.146Zm0,2.5a1.055,1.055,0,1,1,.746-.31A1.057,1.057,0,0,1,44.006,26.65Zm-9.035-2.107a1.486,1.486,0,1,0,1.05.435A1.488,1.488,0,0,0,34.971,24.542Zm0,2.6a1.113,1.113,0,1,1,.785-.326,1.114,1.114,0,0,1-.785.326ZM22.308,24.369a1.473,1.473,0,0,0-1.04.425,1.442,1.442,0,0,0-.017,2.039l.017.017a1.481,1.481,0,0,0,2.079,0,1.442,1.442,0,0,0,.018-2.038h0l-.017-.017A1.477,1.477,0,0,0,22.308,24.369Zm.032,2.505a1.048,1.048,0,1,1,.739-.312,1.029,1.029,0,0,1-.739.306Zm8.555,4.05a2.392,2.392,0,1,0,1.691.7A2.392,2.392,0,0,0,30.9,30.924Zm0,4.33a1.933,1.933,0,1,1,1.362-.567A1.932,1.932,0,0,1,30.9,35.254Zm13.11-11.107a1.447,1.447,0,1,0,1.02.424A1.446,1.446,0,0,0,44.006,24.147Zm0,2.5a1.055,1.055,0,1,1,.746-.31A1.057,1.057,0,0,1,44.006,26.651Zm-21.7-2.28a1.473,1.473,0,0,0-1.04.425,1.442,1.442,0,0,0-.017,2.039l.017.017a1.481,1.481,0,0,0,2.079,0,1.44,1.44,0,0,0,.018-2.037v0l-.017-.017a1.472,1.472,0,0,0-1.04-.427v0Zm.032,2.505a1.048,1.048,0,1,1,.739-.314,1.029,1.029,0,0,1-.739.306v.007Zm8.907,15.785c.012.224.054.952.084,1.644a9.363,9.363,0,0,1,.007,1.421c-.038.076-.3-.369-.561-.9a7.647,7.647,0,0,1-.569-1.387,11.774,11.774,0,0,0,.606,1.7,3.773,3.773,0,0,0,.6,1.166,12.868,12.868,0,0,0-.038-1.692C31.326,43.785,31.266,42.909,31.247,42.661Zm-.353-11.737a2.392,2.392,0,1,0,1.691.7,2.392,2.392,0,0,0-1.691-.7Zm0,4.33a1.933,1.933,0,1,1,1.363-.567,1.932,1.932,0,0,1-1.363.567Zm4.077-10.711a1.488,1.488,0,1,0,1.05.436A1.488,1.488,0,0,0,34.971,24.542Zm0,2.606a1.113,1.113,0,1,1,.785-.326A1.114,1.114,0,0,1,34.971,27.148Zm9.035-3a1.447,1.447,0,1,0,1.02.424A1.446,1.446,0,0,0,44.006,24.147Zm0,2.5a1.057,1.057,0,1,1,.746-.311A1.058,1.058,0,0,1,44.006,26.651Zm-4.949-.043.217,3.734.218,3.733-2.117.087-2.118.087c-.017.085-.038.169-.06.251s-.047.165-.075.246l.076-.163.028-.062,1.948-.072,1.949-.072L37.689,35.8,36.254,37.22a.861.861,0,0,1,.1.089,1.112,1.112,0,0,1,.083.1L37.961,35.9l1.53-1.51.256,4.132L40,42.655l-1.786-1.969L36.43,38.717a1.066,1.066,0,0,1-.2.2l1.9,2.1,1.9,2.1.052.725.052.725-.538-8.982ZM31.247,42.661c.012.224.054.952.084,1.644a9.363,9.363,0,0,1,.007,1.421c-.038.076-.3-.367-.561-.891a7.757,7.757,0,0,1-.573-1.382,11.279,11.279,0,0,0,.61,1.691c.281.663.561,1.234.6,1.16a12.564,12.564,0,0,0-.039-1.692C31.329,43.784,31.266,42.909,31.247,42.661ZM41.3,26.091l.009.138.01.136s.009.022.03.06.049.091.088.158c-.03-.079-.057-.159-.081-.241a2.518,2.518,0,0,1-.056-.251Zm-6.329-1.549a1.486,1.486,0,1,0,1.05.435A1.488,1.488,0,0,0,34.971,24.542Zm0,2.6a1.113,1.113,0,1,1,.785-.326,1.114,1.114,0,0,1-.785.326Zm9.035-3a1.447,1.447,0,1,0,1.02.424A1.446,1.446,0,0,0,44.006,24.146Zm0,2.5a1.055,1.055,0,1,1,.746-.31A1.057,1.057,0,0,1,44.006,26.65Zm-21.7-2.28a1.473,1.473,0,0,0-1.04.425,1.442,1.442,0,0,0-.017,2.039l.017.017a1.481,1.481,0,0,0,2.079,0,1.442,1.442,0,0,0,.018-2.038h0l-.017-.017a1.472,1.472,0,0,0-1.04-.425Zm.032,2.505a1.048,1.048,0,1,1,.739-.313,1.029,1.029,0,0,1-.739.306Zm8.555,4.05a2.394,2.394,0,1,0,1.691.7A2.392,2.392,0,0,0,30.9,30.925Zm0,4.33a1.933,1.933,0,1,1,1.362-.568,1.932,1.932,0,0,1-1.362.568ZM22.308,24.372a1.473,1.473,0,0,0-1.04.425,1.442,1.442,0,0,0-.017,2.039l.017.017a1.481,1.481,0,0,0,2.079,0,1.44,1.44,0,0,0,.018-2.037h0l-.017-.018a1.478,1.478,0,0,0-1.04-.428Zm.032,2.505a1.048,1.048,0,1,1,.739-.315,1.029,1.029,0,0,1-.739.306Zm8.907,15.784c.012.224.054.952.084,1.644a9.363,9.363,0,0,1,.007,1.421c-.038.076-.3-.359-.57-.881a7.269,7.269,0,0,1-.576-1.368A11.246,11.246,0,0,0,30.8,45.16c.284.662.566,1.227.606,1.148a12.372,12.372,0,0,0-.039-1.692C31.325,43.788,31.266,42.909,31.247,42.661Zm-.353-11.737a2.392,2.392,0,1,0,1.691.7,2.392,2.392,0,0,0-1.691-.7Zm0,4.33a1.933,1.933,0,1,1,1.363-.567,1.932,1.932,0,0,1-1.363.567Zm4.077-10.711a1.488,1.488,0,1,0,1.05.436A1.488,1.488,0,0,0,34.971,24.542Zm0,2.606a1.113,1.113,0,1,1,.785-.326A1.114,1.114,0,0,1,34.971,27.148Zm9.035-3a1.447,1.447,0,1,0,1.02.424A1.446,1.446,0,0,0,44.006,24.147Zm0,2.5a1.057,1.057,0,1,1,.746-.311A1.058,1.058,0,0,1,44.006,26.651Zm-4.949-.043.217,3.734.218,3.733-2.117.087-2.118.087c-.017.085-.038.169-.06.251s-.047.165-.075.246l.076-.163.028-.062,1.948-.072,1.949-.072L37.689,35.8,36.254,37.22a.861.861,0,0,1,.1.089,1.112,1.112,0,0,1,.083.1L37.961,35.9l1.53-1.51.256,4.132L40,42.655l-1.786-1.969L36.43,38.717a1.066,1.066,0,0,1-.2.2l1.9,2.1,1.9,2.1.052.725.052.725-.538-8.982ZM31.247,42.661c.012.224.054.952.084,1.644a9.363,9.363,0,0,1,.007,1.421c-.038.076-.3-.359-.567-.881a7.488,7.488,0,0,1-.576-1.368,11.454,11.454,0,0,0,.612,1.683c.283.662.561,1.227.6,1.148a11.836,11.836,0,0,0-.039-1.692C31.325,43.788,31.266,42.909,31.247,42.661ZM41.3,26.091l.009.138.01.136s.009.022.03.06.049.091.088.158c-.03-.079-.057-.159-.081-.241a2.518,2.518,0,0,1-.056-.251Zm-6.329-1.549a1.486,1.486,0,1,0,1.05.435A1.488,1.488,0,0,0,34.971,24.542Zm0,2.6a1.113,1.113,0,1,1,.785-.326,1.114,1.114,0,0,1-.785.326Zm9.035-3a1.447,1.447,0,1,0,1.02.424A1.446,1.446,0,0,0,44.006,24.146Zm0,2.5a1.055,1.055,0,1,1,.746-.31A1.057,1.057,0,0,1,44.006,26.65Zm-21.7-2.28a1.473,1.473,0,0,0-1.04.425,1.442,1.442,0,0,0-.017,2.039l.017.017a1.481,1.481,0,0,0,2.079,0,1.442,1.442,0,0,0,.018-2.038h0l-.017-.017a1.472,1.472,0,0,0-1.04-.425Zm.032,2.505a1.048,1.048,0,1,1,.739-.313,1.029,1.029,0,0,1-.739.306Zm8.555,4.05a2.394,2.394,0,1,0,1.691.7A2.392,2.392,0,0,0,30.9,30.925Zm0,4.33a1.933,1.933,0,1,1,1.362-.568,1.932,1.932,0,0,1-1.362.568Zm31.033-2.592a12.3,12.3,0,0,0-.655-2.816,10.129,10.129,0,0,0-3.26-4.862,11.039,11.039,0,0,0-1.656-.908,3.936,3.936,0,0,0-2.294-.423,8.358,8.358,0,0,0,.2-3.254,15,15,0,0,0-3.37-8.053,17.451,17.451,0,0,0-4.6-3.138,13.351,13.351,0,0,0-11.7.187A10.326,10.326,0,0,0,30.11,6.937c-2.892-.787-7.088-.683-12.3,2.872-.112.076-.224.156-.327.24s-.209.174-.306.267a27.564,27.564,0,0,0-3.393,3.917,11.571,11.571,0,0,0-2.449,6.252,12.03,12.03,0,0,0-3.209,2.654,15.467,15.467,0,0,0-3.74,9.19A20.376,20.376,0,0,0,7.4,45.031a12.62,12.62,0,0,0,11.717,5.728,16.009,16.009,0,0,0,2.834-.714,24.056,24.056,0,0,0,6.485-3.372s.024.058.549,1.025,1.55,2.844,3.55,6.481c0,0,.927-1.594,1.951-3.325S36.622,47.264,37,46.714a12.267,12.267,0,0,0,4.446,2.673c2.875,1.026,7.057,1.434,12.28-1.048a12.331,12.331,0,0,0,4.375-3.195c2.139-2.372,4.2-6.291,3.823-12.484v0Zm-11.18.856c0-.023,0-.047-.007-.069a.314.314,0,0,0-.028-.106h0v-.03l2.881-2.624,2.881-2.626a5.146,5.146,0,0,1,.656,1.246,9.384,9.384,0,0,1,.579,3.711l-3.477.248Zm3.061-7.7.063.025.061.025.033.014.032.013a5.386,5.386,0,0,1,2.323,1.915l-2.871,2.617-2.873,2.617a.556.556,0,0,0-.037-.058.448.448,0,0,0-.044-.054h0a.805.805,0,0,0-.305-.279.929.929,0,0,0-.349-.095h0a.836.836,0,0,0-.087-.011h-.09a1.123,1.123,0,0,0-.236.026,1.007,1.007,0,0,0-.217.073L48.072,31.26l-1.141-1.383c.053-.062.128-.141.207-.224a2.835,2.835,0,0,0,.236-.279h0c.05-.06.1-.124.149-.189s.1-.135.144-.206v-.005h0a3.833,3.833,0,0,0,.467.8,3.151,3.151,0,0,0,1.4,1.065l.026.009.024.008a2.459,2.459,0,0,0,.757.151,2.633,2.633,0,0,0,.633-.05h0l.053-.008.054-.01a4.1,4.1,0,0,0,.913-.349,3.1,3.1,0,0,0,1.4-1.372,1.813,1.813,0,0,0,.12-.285.867.867,0,0,0,.033-.124h0l-.007-.023a.024.024,0,0,0-.006-.02c-.224-.715-.571-.844-.863-.795a1.143,1.143,0,0,0-.528.277.2.2,0,0,1-.037.046c-.015.015-.028.029-.042.045l-.015.016-.014.017c-.052.062-.1.128-.167.2s-.139.167-.237.277h0a1.379,1.379,0,0,1-1.29.4,1.4,1.4,0,0,1-.723-.435h0l-.028-.036-.027-.038-.018-.045-.019-.045a3.5,3.5,0,0,1-.258-.988,2.338,2.338,0,0,1,.054-.755v-.032l.006-.023.007-.024a.034.034,0,0,1,.005-.023l.008-.024a.046.046,0,0,1,.006-.024l.008-.023.007-.026.009-.026a2.032,2.032,0,0,1,1.179-1.175,4.661,4.661,0,0,1,1.821-.112,6.588,6.588,0,0,1,1.369.392l.028.011ZM35.558,36.969a1.092,1.092,0,0,0-.51.128l-.407-.409-.407-.408a4.445,4.445,0,0,0,.887-1.528h0l.077-.163.028-.061,1.948-.072,1.949-.072-1.435,1.422L36.254,37.22a1.085,1.085,0,0,0-.7-.252Zm-4.662.138A3.78,3.78,0,1,1,33.565,36,3.78,3.78,0,0,1,30.9,37.108Zm-8.579-9.121a2.11,2.11,0,0,1-1.5-.633,2.182,2.182,0,0,1,0-3.057,2.113,2.113,0,0,1,2.988-.028l.028.028a2.18,2.18,0,0,1,0,3.057A2.113,2.113,0,0,1,22.316,27.986Zm-2.157,11.7-2.9-3.434-2.9-3.43V32.82h0a.623.623,0,0,0,.224-.289.94.94,0,0,0,.053-.343h0v-.1a1.091,1.091,0,0,0-.145-.545l2.562-2.532,2.562-2.531a3.9,3.9,0,0,0,.188.476,3.136,3.136,0,0,0,.224.4l.014.021.014.021a.483.483,0,0,0,.032.048l.032.047a.449.449,0,0,1,.028.038l.028.036.009.012.01.012.037.048c.014.015.026.03.039.046l.012.015.014.015a2.8,2.8,0,0,0,.967.714,2.019,2.019,0,0,0,.47.15l.337,4.15.331,4.151L21.284,38.29Zm-7.688-7.606a1.082,1.082,0,0,0,.264.706l-2.019,1.947L8.7,36.683a12.439,12.439,0,0,1-.087-2.716,11.655,11.655,0,0,1,1.749-5.535l1.211,1.438,1.212,1.438a1.1,1.1,0,0,0-.317.771Zm1.755-.881a1.5,1.5,0,0,0-.33-.174.662.662,0,0,0-.295-.037h-.039a1.079,1.079,0,0,0-.566.159l-1.223-1.5-1.222-1.5q.321-.385.63-.731c.2-.23.405-.449.6-.654l.069-.07.068-.071.1-.1.1-.1.034-.033.033-.033h0v-.006l.061-.06.059-.058.164-.159.161-.153.031-.03.033-.029.062-.058.063-.057.031-.029.031-.028.056-.051L13,25.584l.065-.056.063-.056.063-.054.061-.053.03-.026.031-.025.088-.074.087-.072.058-.047.058-.047c.112-.091.224-.179.337-.26s.218-.16.324-.233l.053-.037.051-.034c.072-.049.142-.095.211-.138s.138-.086.206-.127l.042-.025.042-.025c.082-.047.16-.091.239-.133l.224-.119.085-.042.084-.038.043-.02.043-.019.042-.018.041-.018.042-.018.039-.017.041-.016.041-.016.036-.015.037-.014h0l.038-.014.036-.013.038-.014.037-.012.023-.008.024-.007.03-.009.029-.008.025-.008.024-.007.065-.019.064-.017c.048-.012.1-.025.141-.035l.135-.028.048-.008.049-.008.09-.012.087-.009h.119a2.106,2.106,0,0,1,.64.05.916.916,0,0,1,.213.077l.1.071c.032.022.066.042.1.06h0a1.129,1.129,0,0,0,.112.056c.041.017.071.031.106.045H18.3l.015.006h.018l.038.012.036.009.021.006h.288a1.023,1.023,0,0,0,.225-.011,1.062,1.062,0,0,0,.255-.076h.014a1.263,1.263,0,0,0,.224-.12c.028-.02.055-.039.081-.06a1.323,1.323,0,0,0,.57-.913,1.532,1.532,0,0,0,0-.515l.561.525.562.524a2.7,2.7,0,0,0-1.571,1.781,2.8,2.8,0,0,0-.073,1.1l-2.607,2.625L14.32,31.3l-.012-.012-.013-.011-.033-.034Zm1.225-10.841h-.007c-.084.01-.2.029-.31.05s-.218.043-.287.059l.091-.178.09-.176.5-.865.494-.865,1.094.977,1.1.976q-.411-.058-.825-.075a10.289,10.289,0,0,0-1.934.1Zm14.892-1.4h0c.02-.03.043-.06.063-.09l.064-.1c.031-.049,0-.008.008-.024l.024-.069h0c.024-.044.042-.079.054-.1l.018-.038,1.908,2.4,1.907,2.4a2.673,2.673,0,0,0-.561.186,2.744,2.744,0,0,0-.5.3h-.01a2.579,2.579,0,0,0-1.055,1.623,2.885,2.885,0,0,0-.048.916L28.626,26.2l-3.589-.168a2.924,2.924,0,0,0-1.2-2.537l1.341-1.864,1.327-1.872a2.116,2.116,0,0,0,2.452.581,3.622,3.622,0,0,0,1.384-1.373Zm2.985-4.619h0a7.652,7.652,0,0,1,1.526-1.01,7.81,7.81,0,0,1,2.415-.729l1.72,2.986L40.7,18.584a1.1,1.1,0,0,0-.138,1.729l-2.145,1.639-2.146,1.639a2.7,2.7,0,0,0-.443-.17,3.2,3.2,0,0,0-1.071-.159l-1.965-2.475-1.966-2.474.761-1.424.755-1.417s.023-.044.075-.123a3.68,3.68,0,0,1,.24-.324h0c.1-.112.212-.233.323-.345s.232-.236.351-.338Zm10.658-.273H44a12.84,12.84,0,0,1,1.09.752q.55.422,1.108.943c.561.518.021.015.057.046s.091.079.16.142L44.34,17.492l-2.071,1.539c-.015-.03-.03-.06-.047-.089a.885.885,0,0,0-.055-.083h0a.81.81,0,0,0-.251-.263.955.955,0,0,0-.305-.133H41.6a.881.881,0,0,0-.155-.036,1.048,1.048,0,0,0-.406.016h0l-.059.01h-.021L39.281,15.5,37.6,12.551l.122-.013.125-.012h0a10.491,10.491,0,0,1,3.478.392A11.727,11.727,0,0,1,43.99,14.07Zm4.2,4.141a14.249,14.249,0,0,1,.716,1.458c.162.384.248.631.248.631l-.344.3-.344.3a4.3,4.3,0,0,0-3.013-1.876,4.9,4.9,0,0,0-2.363.32c-.484.2-.533.3-.46.358a.632.632,0,0,0,.268.061l.076-.011.074-.008h.337c.13,0,.293-.014.475-.026h.062a4.3,4.3,0,0,1,2.734,1.2,4.619,4.619,0,0,1,.866,1.094l-.817.747-.816.747a2.4,2.4,0,0,0-1.442-.706,2.613,2.613,0,0,0-.758.006l-.8-1.292-.8-1.285A.919.919,0,0,0,42.2,20.1h0a.607.607,0,0,0,.05-.077c.014-.027.026-.054.037-.082h0a1.077,1.077,0,0,0,.087-.431v-.079a.24.24,0,0,0-.008-.076l2.12-1.6,2.131-1.6a9.058,9.058,0,0,1,.715.8,11,11,0,0,1,.867,1.259ZM44,27.747a2.145,2.145,0,1,1,.005,0ZM32.822,26.03a2.145,2.145,0,1,1,.627,1.521,2.146,2.146,0,0,1-.627-1.521Zm4.61-1.206h0a2.66,2.66,0,0,0-.143-.254,2.333,2.333,0,0,0-.168-.237l-.008-.012-.009-.011a3.172,3.172,0,0,0-.25-.292,2.7,2.7,0,0,0-.3-.274L38.7,22.13l2.155-1.614a.994.994,0,0,0,.2.063,1.106,1.106,0,0,0,.528-.022,1.088,1.088,0,0,0,.274-.125l.785,1.223.785,1.221a2.493,2.493,0,0,0-.888.365A2.612,2.612,0,0,0,41.256,25.1l-1.795.135-1.79.136s-.019-.056-.056-.153a3.889,3.889,0,0,0-.179-.391ZM23.8,28.162a2.75,2.75,0,0,0,.932-1.055h0a1.984,1.984,0,0,0,.24-.594A.817.817,0,0,0,25,26.288l3.62.168,3.618.168a3.579,3.579,0,0,0,.172.442,3.515,3.515,0,0,0,.208.378,2.836,2.836,0,0,0,.562.663,3.14,3.14,0,0,0,.431.337c.059.038.119.073.182.1l-.343.431-.345.433a4.872,4.872,0,0,0-1.968-.579,4.041,4.041,0,0,0-1.61.232h0a4.4,4.4,0,0,0-1.234.63,4.49,4.49,0,0,0-.977.971l-1.753-1.254-1.752-1.253H23.8Zm12.845,9.9a1.092,1.092,0,0,0-.216-.652L37.961,35.9l1.53-1.51.256,4.133L40,42.655l-1.786-1.969L36.43,38.716A1.091,1.091,0,0,0,36.648,38.063Zm2.844-3.991-2.117.088-2.118.087a4.531,4.531,0,0,0,.072-1.4,4.562,4.562,0,0,0-.074-.46v-.022a4.343,4.343,0,0,0-.545-1.438,4.477,4.477,0,0,0-1.317-1.376l.312-.457.311-.455.056.012c.037.007.09.018.158.029a2.7,2.7,0,0,0,.365.076,2.925,2.925,0,0,0,.381.026,2.743,2.743,0,0,0,2.632-1.971l.727-.1.727-.1.218,3.734Zm-1.778-7.653s.014-.1.02-.251a3.566,3.566,0,0,0-.02-.576l1.771-.087,1.747-.085a2.752,2.752,0,0,0,0,.293,1.345,1.345,0,0,0,.065.379l-1.795.164Zm3.608-.054.029.06c.02.036.049.091.089.158a2.746,2.746,0,0,0,4.744.689,2.468,2.468,0,0,0,.624-1.4,3.327,3.327,0,0,0-.673-2.145l.759-.705.758-.7a.363.363,0,0,1,.034.051c.021.033.05.083.084.149h0a4.218,4.218,0,0,1,.261,1,4.621,4.621,0,0,1,.009,1.136h0a5.53,5.53,0,0,1-.458,1.839,9.935,9.935,0,0,1-1.8,2.417h0a2.93,2.93,0,0,1-.635.391,2.188,2.188,0,0,1-.75.2h0a2.568,2.568,0,0,1-.724-.128,4.127,4.127,0,0,1-.886-.408.965.965,0,0,0-.3.066.375.375,0,0,0-.268.391v.006a.025.025,0,0,0,.011.022.583.583,0,0,0,.13.394,2.365,2.365,0,0,0,.581.538h0a3.181,3.181,0,0,0,1.215.464,3.393,3.393,0,0,0,1.83-.312h0c.122-.066.24-.138.354-.216s.244-.181.36-.279l1.146,1.355L49,32.744a1.1,1.1,0,0,0-.289.329,1.047,1.047,0,0,0-.139.425l-3.785.2-3.778.209-.24-3.735-.239-3.736.395-.036Zm-.289,7.819,3.774-.212,3.771-.212a1.1,1.1,0,0,0,.408.724L45.244,38.1,41.5,41.715l-.234-3.765ZM27.6,17.756c.135.117.224-.012.281-.187a4.222,4.222,0,0,0,.1-.449,9.1,9.1,0,0,1,.481-1.475,2.349,2.349,0,0,1,.233-.433,2.866,2.866,0,0,0-.36,1.127,1.189,1.189,0,0,0,.112.639,2.553,2.553,0,0,1,.486-1.2c.278-.47.571-.889.571-.889a15.113,15.113,0,0,1,2.682-2.468,9.792,9.792,0,0,1,1.235-.773,13,13,0,0,1,8.29-1.738,8.851,8.851,0,0,1,3.229,1.064,12.446,12.446,0,0,1,6.674,7.586,10.847,10.847,0,0,1,.42,4.375l-.6.192-.6.192a6.116,6.116,0,0,0-.388-2.456,16.23,16.23,0,0,0-4.162-6.233,10.022,10.022,0,0,0-7.609-3.181,9.721,9.721,0,0,0-5.332,1.764A12.08,12.08,0,0,0,31.4,15.306c-.706.913-1.473,2.019-2.3,3.243s-1.644.946-2,0a4.585,4.585,0,0,1,.743-4,8.778,8.778,0,0,1,3.018-2.76,5.693,5.693,0,0,1,1.511-.59,9.754,9.754,0,0,0-3.536,2.947,7.335,7.335,0,0,0-.951,1.666,5.127,5.127,0,0,0-.326,1.228C27.5,17.4,27.516,17.687,27.6,17.756Zm-2.349-7.213a7.009,7.009,0,0,1,2.066.125c.609.136,1.235.369,2.222.694a9.561,9.561,0,0,0-2.185,1.833,6.589,6.589,0,0,0-1.109,1.827c0,.008-.008.017-.011.025l-.01.026c-.005.016-.012.031-.019.046l-.019.048c-.006.02-.015.041-.021.059s-.015.041-.022.06l-.017.047a.165.165,0,0,1-.016.047l-.011.031-.009.033v.017a.087.087,0,0,1-.01.03c-.005.01,0,.02-.009.03-.015.045-.028.091-.041.136l-.036.138a.183.183,0,0,1-.008.034.064.064,0,0,1-.009.035c-.008.036-.017.074-.024.112s-.016.074-.023.112a.243.243,0,0,0-.006.036l-.007.037v.027a.127.127,0,0,1,0,.028.352.352,0,0,1-.007.048l-.007.049v.066l-.01.079a.733.733,0,0,1-.008.082v.079a.234.234,0,0,1-.006.062.259.259,0,0,0,0,.063v.1A5.715,5.715,0,0,0,26.1,18.75a4.365,4.365,0,0,0,.3.773h0l-1.452,1.9-1.405,1.9-.313-.1-.312-.1.439-6.136.44-6.132a1.842,1.842,0,0,1,.449-.173,4.855,4.855,0,0,1,.5-.077c.168-.026.292-.041.372-.05Zm-4.883,2.6h0a7.935,7.935,0,0,1,1.445-1.263,12.146,12.146,0,0,1,1.281-.773h0c.064-.026.13-.05.194-.073s.133-.047.2-.068l-.252,4.28-.251,4.28h-.147l-.035-.007-.039-.008h-.023l-.023-.006-.028-.006-.031-.007H22.63l-.045-.012-.045-.012-.027-.007-.028-.009-.048-.016-.054-.055h-.017l-.017-.006-.03-.01-.03-.011-.029-.011-.031-.011c-.028-.01-.056-.023-.085-.035s-.058-.026-.087-.041l-.039-.018-.039-.019L21.95,19.2l-.029-.015-.03-.017-.03-.016-.021-.011-.02-.01-.021-.011-.019-.011-.017-.009-.017-.009-.032-.02a.342.342,0,0,1-.032-.021l-.032-.021-.034-.022L21.6,19l-.021-.014-.021-.015-.021-.015-.02-.013-.022-.016-.02-.016-.021-.016-.02-.016-.022-.016-.1-.084c-.033-.029-.069-.059-.1-.091l-.019-.018-.019-.018a.206.206,0,0,1-.022-.021l-.022-.021-.023-.023-.021-.021-.017-.017a.119.119,0,0,0-.017-.017l-.019-.022-.02-.022-.034-.036-.032-.038-.026-.03c-.008-.01-.017-.02-.025-.031l-.017-.02-.016-.02-.019-.025-.02-.025c-.023-.03-.047-.061-.07-.093s-.046-.066-.069-.1l-.021-.033L20.639,18h0a5.81,5.81,0,0,1-.537-2.889,10.526,10.526,0,0,1,.241-1.907l.01-.044Zm-3.957,4.544c.31-.44.859-1.222,1.361-1.929s.959-1.335,1.079-1.471h0v-.005l.006-.006a6.069,6.069,0,0,0,.224,1.419,6.972,6.972,0,0,0,1.544,2.887l.007.008.006.007a6.157,6.157,0,0,0,1,.919,6.848,6.848,0,0,0,1.347.765l-.14,1.4-.14,1.4-.523.026-.522.024-.785-.7-.785-.7h0V21.71h0a.926.926,0,0,0-.208-.6,2.3,2.3,0,0,0-1.158-.754l-1.271-1.155-1.266-1.144.112-.184c.036-.063.075-.126.112-.19ZM30.074,43.044s-.093.08-.279.224-.467.357-.841.617h0l-.475.322c-.17.112-.35.231-.54.352h0a24.667,24.667,0,0,1-6.12,2.9c-2.325.669-4.744.774-6.693-.485l-.034-.023-.035-.024h0c-.3-.2-.586-.394-.848-.582s-.509-.371-.735-.545h0a12.19,12.19,0,0,1-1.1-1.081A14.627,14.627,0,0,1,11.248,43.3l.245.014.246.015a5.6,5.6,0,0,0,1.029-.191,4.793,4.793,0,0,0,1.927-.994,4.087,4.087,0,0,0,1.091-1.525,2.615,2.615,0,0,0,.191-.72l.006-.066.007-.068a2.905,2.905,0,0,1,.825.162.952.952,0,0,1,.742.991,1.465,1.465,0,0,1-.163.583.806.806,0,0,1-1.02.354.5.5,0,0,0,.131.159.688.688,0,0,0,.477.154.888.888,0,0,0,.673-.442,1.8,1.8,0,0,0,.292-1.122,1.4,1.4,0,0,0-.28-.643,1.94,1.94,0,0,0-1.588-.673,6.064,6.064,0,0,0,0-.727c-.025-.378-.1-.785-.3-.9a.5.5,0,0,0-.112-.045.368.368,0,0,0-.253.023.318.318,0,0,0-.151.164.347.347,0,0,0-.017.224c.021.086.053.2.088.323s.075.257.112.38v.025a.108.108,0,0,1,0,.026,3.072,3.072,0,0,1-.075.774,4.618,4.618,0,0,1-.625,1.507,2.035,2.035,0,0,1-.714.594,4.126,4.126,0,0,1-2.547.352,1.46,1.46,0,0,1-.673-.337,4.629,4.629,0,0,1-1.332-2.052c-.091-.239-.17-.457-.242-.654s-.131-.376-.183-.536h0c-.015-.056-.029-.112-.043-.174l-.044-.178c-.021-.092-.027-.08-.068-.224s-.095-.364-.15-.638h0a.609.609,0,0,1,0-.151.212.212,0,0,1,.006-.038l2.091-2.02,2.089-2.019a1.084,1.084,0,0,0,1.21.035l2.917,3.447,2.916,3.446-1.458,1.92-1.482,1.907-.1,1.964-.106,2.067.133.058h.167l.081-2.054.078-1.975,2.766-3.466,2.772-3.464L22.5,32.743l-.337-4.132h-.037l.1.005h.1a2.665,2.665,0,0,0,1.02-.2l-.025.013-.025.012.3,4.441.3,4.442-2.179,3.183L19.534,43.7,19.391,45.8l-.153,2.176.161-.01.178.023.116-2.224.126-2.072,2.229-3.111,2.229-3.117-.343-4.588-.344-4.588H23.6l1.752,1.282L27.1,30.857a2.927,2.927,0,0,0-.141.264,4.855,4.855,0,0,0-.278.727h0a4.97,4.97,0,0,0-.194.722,4.268,4.268,0,0,0-.072.762,4.324,4.324,0,0,0,.182,1.235,4.6,4.6,0,0,0,.5,1.1h0a4.044,4.044,0,0,0,.267.385,4.5,4.5,0,0,0,.3.354A4.571,4.571,0,0,0,29.1,37.431a4.327,4.327,0,0,0,1.779.384h0v.011a.013.013,0,0,1,0,.012v.032c.034.406-.018,2.243-.023,4.126a20.217,20.217,0,0,0,.253,4.364l.27.265.271.265c-.41-.949-.656-1.542-.877-2.08s-.4-1.032-.707-1.769Zm2.468,5.672s-.18-.362-.389-.8-.449-.941-.569-1.234c-.011-.292.02-2.376.02-4.459a28.814,28.814,0,0,0-.17-4.442,3.855,3.855,0,0,0,.764-.178,5.28,5.28,0,0,0,.71-.3h0a4.778,4.778,0,0,0,.923-.623h0l.127-.095.119-.091.358.393.36.393a1.093,1.093,0,0,0-.03,1.545l.033.034-.707.848-.709.848-.227-1.629-.239-1.621-.337.167-.337.168.688,4.469.687,4.47c-.139.3-.315.629-.5.986s-.382.737-.569,1.146ZM35.4,42.76s0-.028-.112.144-.3.547-.694,1.346h0l-.28.521-.279.521-.3-2.054-.3-2.055-.023-.167-.022-.168.815-.921.815-.921a1.087,1.087,0,0,0,1.212-.1l1.9,2.1,1.9,2.1.052.725.051.726v.017l.036.609.036.608v.122l.181.05.181.051L40,36.322l-.575-9.7.414-.054.412-.054.588,9.873.587,9.878.2-.038.2-.037-.154-1.981-.154-1.982,3.142,1.893,3.141,1.894s-.192.034-.522.082-.8.1-1.363.149H45.9c-.593.039-1.234.055-1.931.039s-1.443-.06-2.244-.142a3.019,3.019,0,0,1-1.863-.4A16.976,16.976,0,0,1,37.5,44.376l-.012-.009-.012-.007c-.327-.224-.637-.449-.916-.657s-.531-.411-.737-.587m19.1-2.1a3.912,3.912,0,0,1-.636.352,4.8,4.8,0,0,1-1.135.24h-.007a2.251,2.251,0,0,1-.278-.022,2.054,2.054,0,0,1-.265-.051h0c-.092-.028-.2-.064-.314-.112s-.239-.095-.368-.156h0a3.747,3.747,0,0,1-1.066-.883,4.024,4.024,0,0,1-.38-.518,3.371,3.371,0,0,1,.024-1.847,4.176,4.176,0,0,1,.419-.975l.015-.025.006-.007a.825.825,0,0,0,.059-.2.406.406,0,0,0-.092-.357.39.39,0,0,0-.287-.147.628.628,0,0,0-.177,0h0l-.01.011-.021.02h0l-.005.006-.009.008-.01.011-.01.012-.012.012-.052.057-.063.071-.009.012-.011.013-.023.026-.022.028-.012.014-.012.015-.009.012-.009.011-.01.012-.01.012-.059.073-.061.081-.022.028-.022.028c-.006.01-.016.021-.022.031l-.024.032-.005.007v.008l-.018.026-.02.027-.024.033a.374.374,0,0,1-.023.033l-.025.037-.025.037-.025.036-.024.038-.03.049-.031.048-.019.03-.018.031-.012.02-.01.019-.017.027-.015.027-.041.071c-.014.024-.027.047-.039.072l-.017.029c-.005.009-.01.02-.015.029l-.007.012-.006.012-.017.032a.25.25,0,0,0-.017.033l-.037.075c-.014.025-.025.051-.037.077l-.021.045-.021.045c-.006.017-.014.032-.021.05l-.021.048-.005.012-.005.012a3.4,3.4,0,0,0,.953,4.188,7.354,7.354,0,0,0,2.215,1.322,2.746,2.746,0,0,1-.316.427,3.6,3.6,0,0,1-.4.378h0a6.961,6.961,0,0,1-1.341.778,10.709,10.709,0,0,1-2.158.691L44.857,43.97,41.5,42.044h0l3.854-3.708,3.852-3.708a1.1,1.1,0,0,0,.449.1h.071l.071-.006a.828.828,0,0,0,.2-.041.957.957,0,0,0,.159-.073h.006c.029-.017.058-.033.086-.051s.056-.039.082-.059l2.608,3,2.609,3c-.113.1-.215.2-.32.288s-.21.167-.314.239h0Zm-4.151-7.258,3.469-.238,3.47-.239c.011.561-.008,1.082-.042,1.563s-.085.92-.136,1.321h0a10.276,10.276,0,0,1-.561,2.2,5.842,5.842,0,0,1-1.189,1.951l-.028.017-.01.005s-1.27-1.4-2.556-2.861a29.259,29.259,0,0,1-2.632-3.224h0m-6.547-10.11a1.447,1.447,0,1,0,1.02.424,1.446,1.446,0,0,0-1.02-.424Zm0,2.5a1.055,1.055,0,1,1,.746-.31,1.057,1.057,0,0,1-.746.31Zm-9.035.87a1.488,1.488,0,1,0-1.051-.435,1.487,1.487,0,0,0,1.051.435Zm0-2.6a1.122,1.122,0,1,1-.785.327A1.12,1.12,0,0,1,34.971,24.914ZM30.9,30.924a2.392,2.392,0,1,0,1.691.7,2.392,2.392,0,0,0-1.691-.7Zm0,4.33a1.933,1.933,0,1,1,1.362-.567,1.932,1.932,0,0,1-1.362.567Zm.353,7.4c.014.224.055.952.084,1.644a9.363,9.363,0,0,1,.007,1.421c-.038.076-.3-.36-.561-.881a7.437,7.437,0,0,1-.569-1.37,11.408,11.408,0,0,0,.606,1.684c.279.661.561,1.226.6,1.148a13.09,13.09,0,0,0-.038-1.693c-.047-.83-.107-1.7-.126-1.949Zm-8.94-18.287a1.473,1.473,0,0,0-1.04.425,1.442,1.442,0,0,0-.017,2.039l.017.017a1.481,1.481,0,0,0,2.079,0,1.44,1.44,0,0,0,.018-2.037v0l-.017-.017a1.472,1.472,0,0,0-1.04-.427Zm.032,2.505a1.048,1.048,0,1,1,.739-.314,1.029,1.029,0,0,1-.739.306Zm8.555,4.05a2.394,2.394,0,1,0,1.691.7A2.392,2.392,0,0,0,30.9,30.926Zm0,4.33a1.933,1.933,0,1,1,1.362-.569,1.932,1.932,0,0,1-1.362.569ZM22.308,24.373a1.473,1.473,0,0,0-1.04.425,1.442,1.442,0,0,0-.017,2.039l.017.017a1.481,1.481,0,0,0,2.079,0,1.44,1.44,0,0,0,.018-2.037h0l-.017-.018a1.477,1.477,0,0,0-1.04-.429Zm.032,2.505a1.048,1.048,0,1,1,.739-.316,1.029,1.029,0,0,1-.739.306Zm21.666-2.729a1.447,1.447,0,1,0,1.02.424A1.446,1.446,0,0,0,44.006,24.149Zm0,2.5a1.055,1.055,0,1,1,.746-.31A1.057,1.057,0,0,1,44.006,26.653Zm-9.035-2.11a1.486,1.486,0,1,0,1.05.435A1.488,1.488,0,0,0,34.971,24.542Zm0,2.6a1.113,1.113,0,1,1,.785-.326,1.114,1.114,0,0,1-.785.326Zm6.33-1.055.009.138.01.137s.009.021.03.059.049.091.088.158c-.03-.079-.057-.159-.081-.241s-.043-.167-.057-.251Zm-2.243.516.217,3.733.217,3.738-2.117.087-2.118.087c-.018.084-.038.168-.06.251s-.049.164-.075.245c.032-.068.058-.124.076-.163l.028-.06,1.948-.072,1.949-.074-1.435,1.424L36.254,37.22a1.191,1.191,0,0,1,.179.19l1.529-1.51,1.53-1.509.256,4.131L40,42.656l-1.781-1.969L36.43,38.717a1.066,1.066,0,0,1-.2.2l1.9,2.1,1.9,2.1.052.725.05.725-.537-8.982Zm4.949-2.463a1.443,1.443,0,1,0,1.021.424A1.444,1.444,0,0,0,44.007,24.146Zm0,2.5a1.059,1.059,0,1,1,.745-.311A1.043,1.043,0,0,1,44.007,26.65Zm-9.036-2.107a1.486,1.486,0,1,0,1.05.435A1.488,1.488,0,0,0,34.971,24.542Zm0,2.6a1.113,1.113,0,1,1,.785-.326,1.114,1.114,0,0,1-.785.326ZM30.9,30.925a2.394,2.394,0,1,0,1.691.7A2.392,2.392,0,0,0,30.9,30.925Zm0,4.33a1.933,1.933,0,1,1,1.362-.568,1.932,1.932,0,0,1-1.362.568Zm.353,7.4c.014.224.022.927.018,1.6a9.7,9.7,0,0,1-.058,1.373c-.038.077-.261-.344-.485-.848a8.131,8.131,0,0,1-.492-1.338,11.848,11.848,0,0,0,.594,1.7c.275.666.548,1.242.586,1.163a12.545,12.545,0,0,0-.039-1.691c-.046-.829-.1-1.7-.123-1.951Zm-8.94-18.287a1.473,1.473,0,0,0-1.04.425,1.442,1.442,0,0,0-.017,2.039l.017.017a1.481,1.481,0,0,0,2.079,0,1.44,1.44,0,0,0,.018-2.037h0l-.017-.018A1.477,1.477,0,0,0,22.308,24.372Zm.032,2.505a1.048,1.048,0,1,1,.739-.315,1.029,1.029,0,0,1-.739.306Zm-.032-2.505a1.473,1.473,0,0,0-1.04.425,1.442,1.442,0,0,0-.017,2.039l.017.017a1.481,1.481,0,0,0,2.079,0,1.44,1.44,0,0,0,.018-2.037h0l-.017-.018a1.477,1.477,0,0,0-1.04-.425Zm.032,2.505a1.048,1.048,0,1,1,.739-.315,1.029,1.029,0,0,1-.739.306Zm21.666-2.729a1.447,1.447,0,1,0,1.02.424A1.446,1.446,0,0,0,44.006,24.148Zm0,2.5a1.055,1.055,0,1,1,.746-.309A1.057,1.057,0,0,1,44.006,26.652Zm-9.035-2.109a1.486,1.486,0,1,0,1.05.435A1.488,1.488,0,0,0,34.971,24.542Zm0,2.6a1.113,1.113,0,1,1,.785-.326,1.114,1.114,0,0,1-.785.326ZM30.9,30.925a2.394,2.394,0,1,0,1.691.7A2.392,2.392,0,0,0,30.9,30.925Zm0,4.33a1.933,1.933,0,1,1,1.362-.568,1.932,1.932,0,0,1-1.362.568ZM41.3,26.092l.009.138.01.137s.009.021.03.059.049.091.088.158c-.03-.079-.057-.159-.081-.241a2.539,2.539,0,0,1-.057-.252ZM31.424,42.6a11.129,11.129,0,0,1-.208,1.538c-.112.629-.224,1.2-.224,1.2a5.4,5.4,0,0,1-.409-.816c-.177-.4-.358-.849-.435-1.088.095.295.377.985.645,1.581s.522,1.1.561,1.021a12.572,12.572,0,0,0,.078-1.591C31.444,43.675,31.441,42.852,31.424,42.6Zm12.582-18.46a1.447,1.447,0,1,0,1.02.424A1.446,1.446,0,0,0,44.006,24.145Zm0,2.5a1.055,1.055,0,1,1,.746-.31A1.057,1.057,0,0,1,44.006,26.649Zm-9.035-2.106a1.486,1.486,0,1,0,1.05.435A1.488,1.488,0,0,0,34.971,24.542Zm0,2.6a1.113,1.113,0,1,1,.785-.326,1.114,1.114,0,0,1-.785.326ZM30.9,30.925a2.394,2.394,0,1,0,1.691.7A2.392,2.392,0,0,0,30.9,30.925Zm0,4.33a1.933,1.933,0,1,1,1.362-.568,1.932,1.932,0,0,1-1.362.568Zm.353,7.4c.014.224.055.952.084,1.644a9.363,9.363,0,0,1,.007,1.421c-.038.076-.293-.362-.547-.884a7.571,7.571,0,0,1-.556-1.373A14.194,14.194,0,0,0,30.8,45.2a3.966,3.966,0,0,0,.554,1.2,13.456,13.456,0,0,0-.01-1.744c-.032-.854-.075-1.752-.092-2Zm-8.94-18.287a1.473,1.473,0,0,0-1.04.425,1.442,1.442,0,0,0-.017,2.039l.017.017a1.481,1.481,0,0,0,2.079,0,1.44,1.44,0,0,0,.018-2.037h0l-.017-.018A1.477,1.477,0,0,0,22.308,24.372Zm.032,2.505a1.048,1.048,0,1,1,.739-.315,1.029,1.029,0,0,1-.739.306Zm21.666-2.729a1.447,1.447,0,1,0,1.02.424A1.446,1.446,0,0,0,44.006,24.148Zm0,2.5a1.055,1.055,0,1,1,.746-.309A1.057,1.057,0,0,1,44.006,26.652ZM30.9,30.924a2.392,2.392,0,1,0,1.691.7A2.392,2.392,0,0,0,30.9,30.924Zm0,4.33a1.933,1.933,0,1,1,1.362-.567,1.932,1.932,0,0,1-1.362.567ZM22.308,24.371a1.473,1.473,0,0,0-1.04.425,1.442,1.442,0,0,0-.017,2.039l.017.017a1.481,1.481,0,0,0,2.079,0,1.44,1.44,0,0,0,.018-2.037v0l-.017-.017a1.472,1.472,0,0,0-1.04-.427Zm.032,2.505a1.048,1.048,0,1,1,.739-.314,1.029,1.029,0,0,1-.739.306Zm12.631-2.334a1.488,1.488,0,1,0,1.05.436A1.488,1.488,0,0,0,34.971,24.542Zm0,2.606a1.113,1.113,0,1,1,.785-.326A1.114,1.114,0,0,1,34.971,27.148Zm6.33-1.055.009.138.01.137s.009.021.03.059.049.091.088.158c-.03-.078-.057-.159-.081-.241a2.559,2.559,0,0,1-.057-.253v0Zm2.7-1.946a1.447,1.447,0,1,0,1.02.424A1.446,1.446,0,0,0,44.006,24.147Zm0,2.5a1.055,1.055,0,1,1,.746-.31A1.057,1.057,0,0,1,44.006,26.651Zm-9.035-2.108a1.486,1.486,0,1,0,1.05.435A1.488,1.488,0,0,0,34.971,24.542Zm0,2.6a1.113,1.113,0,1,1,.785-.326,1.114,1.114,0,0,1-.785.326ZM30.9,30.925a2.394,2.394,0,1,0,1.691.7A2.392,2.392,0,0,0,30.9,30.925Zm0,4.33a1.933,1.933,0,1,1,1.362-.568,1.932,1.932,0,0,1-1.362.568ZM22.308,24.372a1.473,1.473,0,0,0-1.04.425,1.442,1.442,0,0,0-.017,2.039l.017.017a1.481,1.481,0,0,0,2.079,0,1.44,1.44,0,0,0,.018-2.037h0l-.017-.018a1.478,1.478,0,0,0-1.04-.428Zm.032,2.505a1.048,1.048,0,1,1,.739-.315,1.029,1.029,0,0,1-.739.306ZM30.9,30.928a2.392,2.392,0,1,0,1.691.7A2.391,2.391,0,0,0,30.9,30.928Zm0,4.329a1.933,1.933,0,1,1,1.362-.57,1.931,1.931,0,0,1-1.362.57v0ZM22.308,24.374a1.47,1.47,0,0,0-1.04.426,1.441,1.441,0,0,0-.017,2.038l.017.017a1.481,1.481,0,0,0,2.079,0,1.44,1.44,0,0,0,.018-2.037h0l-.017-.017a1.47,1.47,0,0,0-1.04-.431Zm.032,2.505a1.048,1.048,0,1,1,.739-.317,1.029,1.029,0,0,1-.739.306Zm12.631-2.337a1.488,1.488,0,1,0,1.05.436A1.488,1.488,0,0,0,34.971,24.542Zm0,2.606a1.113,1.113,0,1,1,.785-.326A1.114,1.114,0,0,1,34.971,27.148Zm6.33-1.055.009.138.01.137s.009.021.03.059.049.091.088.158c-.03-.078-.057-.159-.081-.241a2.559,2.559,0,0,1-.057-.253v0Zm-6.33-1.551a1.486,1.486,0,1,0,1.05.435A1.488,1.488,0,0,0,34.971,24.542Zm0,2.6a1.113,1.113,0,1,1,.785-.326,1.114,1.114,0,0,1-.785.326ZM30.9,30.925a2.394,2.394,0,1,0,1.691.7A2.392,2.392,0,0,0,30.9,30.925Zm0,4.33a1.933,1.933,0,1,1,1.362-.568,1.932,1.932,0,0,1-1.362.568ZM22.308,24.372a1.473,1.473,0,0,0-1.04.425,1.442,1.442,0,0,0-.017,2.039l.017.017a1.481,1.481,0,0,0,2.079,0,1.44,1.44,0,0,0,.018-2.037h0l-.017-.018a1.478,1.478,0,0,0-1.04-.428Zm.032,2.505a1.048,1.048,0,1,1,.739-.315,1.029,1.029,0,0,1-.739.306ZM30.9,30.928a2.392,2.392,0,1,0,1.691.7A2.391,2.391,0,0,0,30.9,30.928Zm0,4.329a1.933,1.933,0,1,1,1.362-.57,1.931,1.931,0,0,1-1.362.57v0ZM22.308,24.374a1.47,1.47,0,0,0-1.04.426,1.441,1.441,0,0,0-.017,2.038l.017.017a1.481,1.481,0,0,0,2.079,0,1.44,1.44,0,0,0,.018-2.037h0l-.017-.017a1.47,1.47,0,0,0-1.04-.431Zm.032,2.505a1.048,1.048,0,1,1,.739-.317,1.029,1.029,0,0,1-.739.306Zm18.96-.785.009.138.01.137s.009.021.03.059.049.092.088.158c-.03-.078-.057-.159-.081-.241a2.578,2.578,0,0,1-.056-.254ZM30.894,30.928a2.394,2.394,0,1,0,1.691.7A2.392,2.392,0,0,0,30.894,30.928Zm0,4.33a1.933,1.933,0,1,1,1.363-.57,1.931,1.931,0,0,1-1.363.57ZM22.306,24.375a1.469,1.469,0,0,0-1.039.426,1.441,1.441,0,0,0-.017,2.038l.017.018a1.483,1.483,0,0,0,2.079,0,1.442,1.442,0,0,0,.018-2.038h0l-.017-.017a1.475,1.475,0,0,0-1.039-.432Zm.033,2.505a1.05,1.05,0,1,1,1.037-1.064,1.062,1.062,0,0,1-.3.746,1.029,1.029,0,0,1-.739.306Zm8.555,4.051a2.392,2.392,0,1,0,1.691.7A2.392,2.392,0,0,0,30.894,30.931Zm0,4.329a.872.872,0,1,0,0-.006ZM41.3,26.1l.009.138.01.137s.009.021.03.059.049.092.088.159c-.03-.079-.057-.16-.081-.242s-.042-.172-.056-.258ZM30.894,30.931a2.394,2.394,0,1,0,1.691.7A2.393,2.393,0,0,0,30.894,30.931Zm0,4.33a.741.741,0,1,0,0-.006ZM41.3,26.1l.009.138.01.137s.009.021.03.059.049.092.088.159c-.03-.079-.057-.16-.081-.242s-.042-.172-.056-.258Zm0,0,.009.138.01.137s.009.021.03.059.049.092.088.159c-.03-.079-.057-.16-.081-.242s-.042-.172-.056-.258Zm0,0,.009.138.01.137s.009.021.03.059.049.092.088.159c-.03-.079-.057-.16-.081-.242s-.042-.172-.056-.258Zm0,0,.009.138.01.137s.009.021.03.059.049.092.088.159c-.03-.079-.057-.16-.081-.242s-.042-.172-.056-.258Zm0,0,.009.138.01.137s.009.021.03.059.049.092.088.159c-.03-.079-.057-.16-.081-.242s-.042-.172-.056-.258Zm0,0,.009.138.01.137s.009.021.03.059.049.092.088.159c-.03-.079-.057-.16-.081-.242s-.042-.172-.056-.258Z" transform="translate(-4.313 -6.538)" fill="#121212"/></g><g transform="translate(93.667 30.557)"><path d="M33.886,26.889a1.528,1.528,0,1,1,1.528-1.527A1.53,1.53,0,0,1,33.886,26.889Zm0-2.973a1.443,1.443,0,1,0,1.021.423A1.448,1.448,0,0,0,33.888,23.916Zm0,2.6a1.156,1.156,0,0,1,0-2.313h0a1.158,1.158,0,0,1,1.156,1.153,1.154,1.154,0,0,1-1.112,1.158h-.045Zm0-2.231h0a1.074,1.074,0,0,0-.034,2.148h.042a1.073,1.073,0,0,0,1.071-1.076,1.076,1.076,0,0,0-1.074-1.072Z" transform="translate(-32.359 -23.834)"/></g><g transform="translate(92.399 29.279)"><path d="M33.937,28.216a2.812,2.812,0,0,1-1.333-.338,2.808,2.808,0,0,1-.344-4.713l.015-.011h.011a2.774,2.774,0,0,1,3.831.5l.02.026a2.671,2.671,0,0,1,.17.239,2.862,2.862,0,0,1,.145.261l.043.088h-.016a2.8,2.8,0,0,1,.217,1.522,2.674,2.674,0,0,1-.073.358l0,.056A2.817,2.817,0,0,1,33.937,28.216Zm-1.623-4.95a2.7,2.7,0,0,0,.344,4.514,2.687,2.687,0,0,0,3.855-1.6l0-.055a2.7,2.7,0,0,0-.176-1.9l-.044-.089h.011c-.029-.053-.06-.107-.095-.16a2.347,2.347,0,0,0-.164-.232l-.019-.024a2.662,2.662,0,0,0-3.69-.47l-.016.011Zm1.624,4.351h-.005a2.206,2.206,0,0,1-2.2-2.207v-.091l0,0a2.2,2.2,0,0,1,2.2-2.105h0a2.2,2.2,0,0,1,0,4.4ZM31.848,25.5a2.094,2.094,0,0,0,2.086,2h0a2.089,2.089,0,0,0,0-4.177h0a2.091,2.091,0,0,0-2.089,2.084V25.5Zm2.088,1.453a1.545,1.545,0,1,1,1.088-2.638,1.563,1.563,0,0,1,.271.365,1.531,1.531,0,0,1,.183.729V25.5l0,0a1.539,1.539,0,0,1-1.536,1.455Zm-1.33-1.017a1.43,1.43,0,0,0,2.759-.529V25.4a1.427,1.427,0,0,0-1.428-1.419h0a1.432,1.432,0,0,0-1.328,1.957Zm1.325.644a1.172,1.172,0,0,1-1.171-1.167v0a1.181,1.181,0,0,1,1.175-1.175h0a1.173,1.173,0,0,1,.052,2.344h-.06Zm-1.052-1.1a1.052,1.052,0,0,0,.311.677,1.064,1.064,0,0,0,.748.311h0a1.057,1.057,0,0,0,.41-.083,1.083,1.083,0,0,0,.329-.222,1.068,1.068,0,0,0,.31-.748v0a1.06,1.06,0,0,0-1.642-.882,1.031,1.031,0,0,0-.161.134,1.046,1.046,0,0,0-.308.749Z" transform="translate(-31.137 -22.604)"/></g><g transform="translate(102.742 30.158)"><path d="M42.582,26.425h0a1.487,1.487,0,0,1,0-2.975h0a1.487,1.487,0,0,1,0,2.975Zm0-2.893a1.405,1.405,0,0,0,0,2.81h0a1.405,1.405,0,0,0,0-2.81h0Zm0,2.5a1.1,1.1,0,1,1,.775-.322A1.1,1.1,0,0,1,42.585,26.036Zm0-2.112A1.016,1.016,0,1,0,43.6,24.938,1.017,1.017,0,0,0,42.582,23.925Z" transform="translate(-41.096 -23.45)"/></g><g transform="translate(102.742 30.158)"><path d="M42.582,26.425h0a1.487,1.487,0,0,1,0-2.975h0a1.487,1.487,0,0,1,0,2.975Zm0-2.893a1.405,1.405,0,0,0,0,2.81h0a1.405,1.405,0,0,0,0-2.81h0Zm0,2.5a1.1,1.1,0,1,1,.775-.322A1.1,1.1,0,0,1,42.585,26.036Zm0-2.112A1.016,1.016,0,1,0,43.6,24.938,1.017,1.017,0,0,0,42.582,23.925Z" transform="translate(-41.096 -23.45)"/></g><g transform="translate(101.401 28.813)"><path d="M42.635,27.806A2.823,2.823,0,0,1,40,26c-.031-.082-.059-.165-.083-.248a2.474,2.474,0,0,1-.066-.26c-.009-.051-.016-.1-.022-.152l-.012-.1a1.715,1.715,0,0,1-.013-.262,2.769,2.769,0,0,1,.832-1.988,2.846,2.846,0,0,1,1.993-.835l.1,0a2.8,2.8,0,0,1,2.777,2.826,2.453,2.453,0,0,1-.188.927,3.393,3.393,0,0,1-.456.791,2.82,2.82,0,0,1-2.233,1.1Zm-.005-5.539a2.738,2.738,0,0,0-1.914.8,2.663,2.663,0,0,0-.8,1.909,1.6,1.6,0,0,0,.012.246l.012.1c.006.049.011.1.021.144a2.265,2.265,0,0,0,.064.248c.023.081.05.162.08.241a2.707,2.707,0,0,0,3.5,1.555,2.716,2.716,0,0,0,1.176-.879,3.253,3.253,0,0,0,.441-.765,2.34,2.34,0,0,0,.18-.886,2.69,2.69,0,0,0-2.667-2.713Zm0,4.927a2.218,2.218,0,0,1-1.568-3.786,2.2,2.2,0,0,1,1.512-.646h0l.056,0a2.218,2.218,0,1,1,0,4.436Zm0-4.321a1.982,1.982,0,1,0,.06,0v0h-.06Zm0,3.625h0a1.514,1.514,0,0,1-1.511-1.513V24.98a1.512,1.512,0,0,1,1.513-1.51,1.555,1.555,0,0,1,.425.06,1.524,1.524,0,0,1,.645.381,1.517,1.517,0,0,1,.446,1.072v0A1.514,1.514,0,0,1,42.628,26.5Zm0-2.915a1.4,1.4,0,1,0,.641.156,1.323,1.323,0,0,0-.221-.091A1.364,1.364,0,0,0,42.63,23.583Zm0,2.512a1.12,1.12,0,0,1-1.121-1.117v0a1.116,1.116,0,0,1,1.6-1.005,1.121,1.121,0,0,1,.636,1.006A1.117,1.117,0,0,1,42.632,26.1Zm-.443-.215a1,1,0,1,0-.563-.9A1,1,0,0,0,42.189,25.881Z" transform="translate(-39.805 -22.155)"/></g><g transform="translate(109.384 38.557)"><path d="M47.546,31.716l-.055-.064.037-.017a1.16,1.16,0,0,1,.224-.075,1.214,1.214,0,0,1,.242-.023h.089l.091.011-.005.061a1.4,1.4,0,0,0-.422.039,1.29,1.29,0,0,0-.182.058Z" transform="translate(-47.491 -31.537)"/></g><g transform="translate(101.686 48.061)"><path d="M40.153,40.8l-.074-.075.028-.033h.045Z" transform="translate(-40.079 -40.688)"/></g><g transform="translate(72.645 36.989)"><path d="M14.349,31.174v.1h0a1.091,1.091,0,0,1-.088.343,1.071,1.071,0,0,1-.187.288h0v.007c-.033.034-.068.066-.1.1a.978.978,0,0,1-.112.083,1.082,1.082,0,0,1-1.21-.035,1.127,1.127,0,0,1-.215-.176A1.1,1.1,0,0,1,12.49,30.4a1.287,1.287,0,0,1,.1-.087,1.116,1.116,0,0,1,.376-.193,1.091,1.091,0,0,1,.3-.042H13.3a1.091,1.091,0,0,1,.692.281l.012.011.012.012a1.038,1.038,0,0,1,.188.242,1.092,1.092,0,0,1,.146.545Z" transform="translate(-12.116 -30.025)"/><path d="M13.279,32.317a1.138,1.138,0,0,1-.664-.214,1.174,1.174,0,0,1-.222-.183,1.146,1.146,0,0,1,.059-1.555,1.384,1.384,0,0,1,.1-.092,1.142,1.142,0,0,1,.71-.246h.039a1.145,1.145,0,0,1,.729.3l.027.026a1.072,1.072,0,0,1,.2.254,1.142,1.142,0,0,1,.154.572l-.006.1a1.128,1.128,0,0,1-.093.365,1.1,1.1,0,0,1-.182.288h0l-.016.024a1.313,1.313,0,0,1-.109.1,1.107,1.107,0,0,1-.118.087A1.142,1.142,0,0,1,13.279,32.317Zm.025-2.178h-.037a1.028,1.028,0,0,0-.641.222.975.975,0,0,0-.093.083,1.033,1.033,0,0,0-.055,1.4,1.049,1.049,0,0,0,.2.164,1.025,1.025,0,0,0,1.151.035.82.82,0,0,0,.106-.079,1.082,1.082,0,0,0,.086-.079l.013-.021a1.038,1.038,0,0,0,.178-.273,1.071,1.071,0,0,0,.084-.325V31.12h0a1.021,1.021,0,0,0-.137-.461.977.977,0,0,0-.178-.23l-.014-.014s-.009-.006-.018-.018A1.038,1.038,0,0,0,13.3,30.139Z" transform="translate(-12.118 -30.027)"/></g><g transform="translate(108.749 38.529)"><path d="M49.106,32.664a1.061,1.061,0,0,1-.174.592.079.079,0,0,1-.01.019l-.014.019h0a1.237,1.237,0,0,1-.1.12,1.19,1.19,0,0,1-.112.106c-.026.02-.053.041-.081.059a.735.735,0,0,1-.087.051h-.006a1.04,1.04,0,0,1-.172.072,1.144,1.144,0,0,1-.188.042l-.071.006h-.071a1.081,1.081,0,0,1-.449-.1.988.988,0,0,1-.224-.136,1.094,1.094,0,0,1-.272-.318,1.11,1.11,0,0,1-.135-.406.3.3,0,0,0-.005-.068.245.245,0,0,1,0-.068V32.6a.55.55,0,0,1,.005-.058,1.092,1.092,0,0,1,.138-.427,1.106,1.106,0,0,1,.29-.327,1.077,1.077,0,0,1,.1-.066c.033-.02.07-.038.1-.055a1,1,0,0,1,.218-.073,1.047,1.047,0,0,1,.234-.026h.09a.82.82,0,0,1,.088.011h0a1.083,1.083,0,0,1,.654.374h0A.573.573,0,0,1,48.9,32l.039.057a1.229,1.229,0,0,1,.072.131,1.162,1.162,0,0,1,.054.141v.029h0a1.31,1.31,0,0,1,.029.141A1.186,1.186,0,0,1,49.106,32.664Z" transform="translate(-46.877 -31.508)"/><path d="M48.024,33.807a1.147,1.147,0,0,1-.472-.1,1.087,1.087,0,0,1-.237-.144,1.146,1.146,0,0,1-.286-.333,1.172,1.172,0,0,1-.142-.427.247.247,0,0,0,0-.061.19.19,0,0,1,0-.063V32.6a.4.4,0,0,1,.006-.068,1.125,1.125,0,0,1,.144-.446,1.178,1.178,0,0,1,.3-.344,1.141,1.141,0,0,1,.213-.128,1.157,1.157,0,0,1,.476-.1h.09a.933.933,0,0,1,.1.012,1.137,1.137,0,0,1,.685.393.65.65,0,0,1,.046.057l.039.058a1.374,1.374,0,0,1,.077.139,1.079,1.079,0,0,1,.056.15l0,.037a1.174,1.174,0,0,1,.028.141,1.049,1.049,0,0,1,.013.168,1.171,1.171,0,0,1-.048.33,1.149,1.149,0,0,1-.135.293.224.224,0,0,1-.015.023l-.012.017a1.153,1.153,0,0,1-.1.126,1.116,1.116,0,0,1-.117.111c-.028.022-.056.043-.085.062a1.041,1.041,0,0,1-.093.054l-.018.006a1.152,1.152,0,0,1-.169.069,1.025,1.025,0,0,1-.2.044l-.072.007Zm.088-2.185h-.086a.957.957,0,0,0-.221.025.911.911,0,0,0-.207.069c-.034.017-.069.033-.1.052s-.062.041-.092.063a1.076,1.076,0,0,0-.274.311,1.022,1.022,0,0,0-.131.4.366.366,0,0,0-.005.053v.06l0,.027a.114.114,0,0,0,0,.027.322.322,0,0,1,.007.081,1.04,1.04,0,0,0,.128.378,1.017,1.017,0,0,0,.259.3.93.93,0,0,0,.212.13,1.031,1.031,0,0,0,.426.092h.071l.065-.006a.88.88,0,0,0,.176-.039.95.95,0,0,0,.164-.068l.018-.006a.763.763,0,0,0,.07-.041c.027-.019.053-.038.078-.058a.991.991,0,0,0,.106-.1,1.119,1.119,0,0,0,.092-.115l.024-.035a1.013,1.013,0,0,0,.123-.264,1.055,1.055,0,0,0,.043-.3.986.986,0,0,0-.012-.153,1.291,1.291,0,0,0-.027-.135l0-.035a1.087,1.087,0,0,0-.049-.126,1.02,1.02,0,0,0-.069-.125l-.038-.056a.567.567,0,0,0-.038-.049,1.029,1.029,0,0,0-.621-.355A.757.757,0,0,0,48.112,31.622Z" transform="translate(-46.879 -31.51)"/></g><g transform="translate(100.385 24.422)"><path d="M41.053,19.08a1.084,1.084,0,0,1-.174.593l-.011.019-.012.018h0a1.23,1.23,0,0,1-.1.122,1.316,1.316,0,0,1-.112.1,1.027,1.027,0,0,1-.17.112h-.005a1.142,1.142,0,0,1-.172.073,1.054,1.054,0,0,1-.187.041c-.023,0-.047.006-.071.007h-.072a1.081,1.081,0,0,1-.449-.1,1.031,1.031,0,0,1-.224-.137,1.106,1.106,0,0,1-.272-.317,1.089,1.089,0,0,1-.134-.407c0-.022-.005-.045-.006-.066v-.128a.225.225,0,0,1,.005-.059,1.088,1.088,0,0,1,.138-.426,1.123,1.123,0,0,1,.29-.328.813.813,0,0,1,.1-.065.714.714,0,0,1,.1-.055,1,1,0,0,1,.218-.074,1.048,1.048,0,0,1,.235-.025h.09a.627.627,0,0,1,.087.011h0a1.1,1.1,0,0,1,.647.385h0c.015.017.03.036.043.054l.039.057a1.148,1.148,0,0,1,.072.131,1.026,1.026,0,0,1,.054.142v.029h0a.906.906,0,0,1,.029.14A1.032,1.032,0,0,1,41.053,19.08Z" transform="translate(-38.825 -17.926)"/><path d="M39.968,20.225a1.132,1.132,0,0,1-.472-.1,1.088,1.088,0,0,1-.237-.144,1.15,1.15,0,0,1-.427-.76q0-.034-.006-.072v-.13a.276.276,0,0,1,.007-.075,1.1,1.1,0,0,1,.143-.438,1.2,1.2,0,0,1,.3-.345.8.8,0,0,1,.1-.07.886.886,0,0,1,.109-.058,1.115,1.115,0,0,1,.229-.077,1.14,1.14,0,0,1,.247-.026h.09a.7.7,0,0,1,.1.012,1.151,1.151,0,0,1,.68.405c.015.017.03.036.045.056l.041.059A1.248,1.248,0,0,1,41,18.6a1.135,1.135,0,0,1,.057.15l0,.037a.923.923,0,0,1,.029.14,1.08,1.08,0,0,1,.022.153v0a1.156,1.156,0,0,1-.049.33,1.117,1.117,0,0,1-.134.293l-.026.038a1.089,1.089,0,0,1-.1.128,1.356,1.356,0,0,1-.117.109,1.132,1.132,0,0,1-.179.118l-.019.006a1.047,1.047,0,0,1-.169.07,1.1,1.1,0,0,1-.2.044l-.038,0-.036,0Zm.089-2.185h-.086a1.05,1.05,0,0,0-.223.023,1,1,0,0,0-.206.071.659.659,0,0,0-.1.051.677.677,0,0,0-.095.063,1.069,1.069,0,0,0-.275.312,1.022,1.022,0,0,0-.131.4.2.2,0,0,0-.005.053v.128c0,.018,0,.038.005.059a1.037,1.037,0,0,0,.386.688.983.983,0,0,0,.212.13,1.031,1.031,0,0,0,.426.092h.072l.024,0a.355.355,0,0,1,.047,0,1.052,1.052,0,0,0,.17-.038A.973.973,0,0,0,40.444,20l.018-.007a1.031,1.031,0,0,0,.149-.1,1.1,1.1,0,0,0,.106-.1,1.192,1.192,0,0,0,.095-.115l.023-.035a1,1,0,0,0,.122-.264,1.027,1.027,0,0,0,.044-.3,1.008,1.008,0,0,0-.021-.139.9.9,0,0,0-.028-.135l0-.036a1,1,0,0,0-.049-.127,1.174,1.174,0,0,0-.068-.125l-.038-.055c-.011-.016-.025-.033-.038-.049a1.047,1.047,0,0,0-.616-.368A.72.72,0,0,0,40.058,18.04Z" transform="translate(-38.827 -17.928)"/></g><g transform="translate(81.408 30.725)"><path d="M21.709,24a1.2,1.2,0,0,0-.816.344,1.074,1.074,0,0,0-.337.812,1.245,1.245,0,0,0,.345.812,1.116,1.116,0,0,0,.811.343,1.189,1.189,0,0,0,.814-.344,1.068,1.068,0,0,0,.337-.811,1.24,1.24,0,0,0-.345-.812A1.119,1.119,0,0,0,21.709,24Z" transform="translate(-20.556 -23.996)" fill="#979797"/></g><g transform="translate(94.033 30.901)"><path d="M33.862,24.166a1.19,1.19,0,0,0-.814.343,1.072,1.072,0,0,0-.337.812,1.242,1.242,0,0,0,.345.813,1.123,1.123,0,0,0,.81.343,1.183,1.183,0,0,0,.814-.345,1.068,1.068,0,0,0,.337-.811,1.243,1.243,0,0,0-.344-.813A1.124,1.124,0,0,0,33.862,24.166Z" transform="translate(-32.711 -24.166)" fill="#979797"/></g><g transform="translate(103.101 30.485)"><path d="M42.593,23.765a1.176,1.176,0,0,0-.814.344,1.068,1.068,0,0,0-.337.811,1.249,1.249,0,0,0,.344.813,1.116,1.116,0,0,0,.81.342,1.184,1.184,0,0,0,.815-.343,1.077,1.077,0,0,0,.337-.812,1.249,1.249,0,0,0-.346-.812A1.111,1.111,0,0,0,42.593,23.765Z" transform="translate(-41.442 -23.765)" fill="#979797"/></g><g transform="translate(89.091 37.343)"><path d="M31.979,32.381a2.173,2.173,0,0,0-.6-1.416,1.95,1.95,0,0,0-1.411-.6,2.066,2.066,0,0,0-1.419.6,1.871,1.871,0,0,0-.594,1.414,2.175,2.175,0,0,0,.6,1.415,1.947,1.947,0,0,0,1.411.6,2.073,2.073,0,0,0,1.42-.6A1.868,1.868,0,0,0,31.979,32.381Z" transform="translate(-27.952 -30.368)" fill="#979797"/></g></g></svg>