<svg xmlns="http://www.w3.org/2000/svg" xmlns:xlink="http://www.w3.org/1999/xlink" width="156.772" height="186.022" viewBox="0 0 156.772 186.022">
  <defs>
    <clipPath id="clip-path">
      <path id="SVGID" d="M432.058,264.326s-50.416,32.262-67.558,34.285l2.016,24.193a123.19,123.19,0,0,0,3.584,19.781v.015c.278,1.114.586,2.257.916,3.437s.682,2.4,1.062,3.642c.425,1.371.88,2.785,1.363,4.222q.582,1.715,1.231,3.481c.227.637.469,1.283.718,1.935.073.183.146.366.212.557l.4,1.011c.073.183.146.359.212.542l.007.007c.132.337.264.667.4,1,.073.183.146.359.22.542.139.33.278.66.418,1,.081.183.154.359.227.542.037.081.066.161.1.242.11.249.22.491.322.74.081.183.154.359.234.535.147.33.286.652.432.982.081.176.161.352.235.528.154.323.3.638.447.96a.87.87,0,0,0,.059.118c.059.139.125.271.191.41.139.322.293.637.447.96.08.168.161.344.249.513.147.315.3.63.455.953l.176.352c.03.051.051.11.081.168.161.315.315.623.469.938l.264.505c.154.308.315.616.476.931l.264.506c.11.22.228.432.345.645.044.088.1.183.147.271l.264.505c.169.3.33.6.5.909.088.161.183.323.278.491q.231.429.484.858l.022.044c.088.161.176.322.278.491.161.293.337.594.513.894.1.161.183.323.286.484.169.293.345.594.52.887.1.161.191.315.293.476.051.081.1.169.154.249.125.213.249.418.381.63.1.154.191.315.293.469.176.293.359.579.542.872.1.154.2.315.3.469s.191.3.286.455c.088.132.176.271.264.4l.308.461c.183.279.366.564.564.843q.143.231.308.462c.183.278.374.557.564.843.073.11.154.22.235.337.029.037.051.081.081.118.19.271.388.55.579.828.11.147.212.3.323.447.191.278.388.549.594.821.1.147.212.293.323.44l.066.088c.169.242.352.484.528.725l.33.44c.205.271.4.535.616.8.1.147.213.293.33.432l.609.784.007.007c.11.146.227.293.344.432.2.264.41.52.623.777.11.146.227.286.344.425.213.257.425.52.637.777.052.059.1.117.154.176.059.081.132.161.2.242.213.257.425.513.645.762.117.139.234.278.352.41.22.257.44.506.652.762.125.132.242.271.366.4s.249.278.381.418a3.965,3.965,0,0,0,.286.323c.117.139.242.271.366.4.22.249.439.491.674.733.118.139.242.271.366.4.183.2.374.4.557.594.051.044.088.088.132.132.125.132.249.264.374.389.227.242.462.476.7.711.117.132.249.264.381.388.227.242.462.476.7.711l.381.381a1.479,1.479,0,0,0,.11.1c.2.2.4.4.609.594.124.125.256.249.388.374.242.227.484.462.726.689.132.125.264.249.4.366l.293.271c.146.132.293.271.447.4.132.132.271.249.4.366.249.227.491.454.74.667l.4.359c.249.22.506.44.762.652a1.582,1.582,0,0,0,.213.176,2.108,2.108,0,0,0,.2.176c.249.22.505.44.762.653.139.117.279.234.418.344.257.22.521.432.777.637.132.11.271.22.4.337.007,0,.007,0,.015.007.264.2.528.418.791.63.139.11.286.22.432.33q.4.319.792.616.219.176.439.33c.227.183.455.352.689.521.036.029.08.059.117.088.146.117.293.22.44.323.271.205.535.4.813.6.147.1.293.213.447.315.271.2.542.389.821.586a.7.7,0,0,1,.088.066c.125.081.242.168.366.249.278.191.564.389.843.572.154.11.308.212.455.308.286.191.564.381.85.564l.462.308.381.242.476.308.469.293c.293.183.579.367.872.543.161.1.315.2.476.293l.6.366h.007l.271.161.484.286c.293.176.587.345.887.521.161.088.323.183.491.278.3.168.6.337.909.506.161.1.322.183.491.271a.026.026,0,0,0,.022.007c.293.168.587.337.887.491.168.1.337.183.506.271l.923.484c.169.088.337.176.506.256.08.044.161.088.249.132.227.117.454.234.689.345.014.007.022.014.037.022q.737-.363,1.451-.747c1.041-.528,2.052-1.078,3.056-1.642.6-.33,1.2-.674,1.788-1.019q1.847-1.077,3.621-2.213c.19-.125.381-.242.571-.366.557-.359,1.107-.718,1.649-1.092h.007c1.715-1.151,3.371-2.345,4.976-3.569,1.3-.975,2.551-1.979,3.767-3a110.2,110.2,0,0,0,13.778-13.7c.125-.147.249-.293.366-.44q1.616-1.924,3.108-3.877c1.275-1.671,2.514-3.379,3.665-5.079l.044-.044c.4-.579.784-1.151,1.165-1.723.132-.2.264-.4.4-.6q1.232-1.891,2.375-3.789.539-.891,1.056-1.781c.015-.03.036-.059.051-.088.63-1.077,1.231-2.155,1.818-3.232.3-.55.594-1.092.88-1.642.374-.711.74-1.415,1.092-2.125.132-.257.264-.513.388-.77l.74-1.5.007-.015c.425-.887.843-1.774,1.246-2.653.213-.469.425-.931.63-1.4.359-.814.7-1.613,1.041-2.418.007-.015.015-.037.022-.051.161-.374.315-.74.469-1.114q.791-1.9,1.495-3.774c7.688-20.213,8.824-36.374,8.824-36.374l2.016-24.193C482.473,296.588,432.058,264.326,432.058,264.326Z" transform="translate(-364.5 -264.326)" fill="none"/>
    </clipPath>
  </defs>
  <g id="Group_37146" data-name="Group 37146" transform="translate(0 0)">
    <g id="Group_37133" data-name="Group 37133" transform="translate(10.869 12.667)">
      <path id="Path_38921" data-name="Path 38921" d="M432.363,264.807s-50.53,32.34-67.711,34.361l2.021,24.255s5.053,71.753,65.689,102.072a108.837,108.837,0,0,0,34.745-27.418,120.542,120.542,0,0,0,12.2-17.373,146.98,146.98,0,0,0,18.747-57.281l2.021-24.255C482.893,297.147,432.363,264.807,432.363,264.807Z" transform="translate(-364.652 -264.807)" fill="#fff"/>
    </g>
    <g id="Group_37138" data-name="Group 37138" transform="translate(10.81 12.48)">
      <g id="Group_37137" data-name="Group 37137" transform="translate(0 0)">
        <g id="Group_37136" data-name="Group 37136" opacity="0.25">
          <g id="Group_37135" data-name="Group 37135" clip-path="url(#clip-path)">
            <g id="Group_37134" data-name="Group 37134" transform="translate(-2.375 -5.871)">
              <path id="Path_38922" data-name="Path 38922" d="M528.414,292.018c-6.532-3.181-13.028-6.44-19.606-9.524-8.027-3.762-16.123-7.377-24.188-11.057-1.129-.515-2.252-1.045-3.384-1.555-1.051-.473-1.821.109-1.763,1.239.118,2.258.19,4.518.26,6.778q.437,14.085.859,28.171.2,6.546.376,13.092c.011.382.041.764.066,1.214.491,0,.925.013,1.358,0q15.924-.555,31.849-1.113c4.562-.158,9.124-.294,13.687-.436a3.073,3.073,0,0,1,.487.06v.663l-47.277,1.63c0,1.252-.03,2.431.005,3.609q.221,7.361.476,14.722.168,4.8.4,9.6a1.6,1.6,0,0,0,.471.981q7.6,7.163,15.243,14.291c3.295,3.089,6.572,6.2,9.871,9.279q10.294,9.625,20.6,19.234a1.077,1.077,0,0,0,.209.121v.995c-1.247-1.12-2.513-2.22-3.738-3.363q-9.033-8.433-18.045-16.888c-1.728-1.622-3.395-3.308-5.128-4.924q-8.846-8.242-17.719-16.454a14.189,14.189,0,0,1-1.374-1.321,2.412,2.412,0,0,0-2.274-.8c-5.355.342-10.714.636-16.071.945-.552.032-1.106.053-1.658.089a2.525,2.525,0,0,0-2.07,1,3.344,3.344,0,0,0-.709,2.8c.18,2.341.318,4.685.508,7.026a1.158,1.158,0,0,1-.584,1.229q-3.506,2.281-6.963,4.637c-1.572,1.071-3.093,2.217-4.662,3.292-7.2,4.932-14.451,9.79-21.589,14.81-2.408,1.694-4.547,3.773-6.79,5.7-2.559,2.195-5.1,4.417-7.648,6.62-.974.84-1.965,1.66-3.05,2.574l3.5,2.892c-1.077.177-1.077.177-4.088-2.415-.986.613-2.041,1.171-2.979,1.884a2.566,2.566,0,0,1-2.223.552l4.577-2.82c-1.7-2.13-2.01-4.821-2.9-7.266-1.257-3.443-2.33-6.953-3.539-10.607-.481.9-.892,1.648-1.292,2.407q-4.612,8.759-9.222,17.519c-.24.456-.405,1.043-1.221.7.487-.937.973-1.883,1.468-2.824,3.039-5.764,6.13-11.5,9.1-17.3,1.622-3.167,3.033-6.442,4.564-9.656a.835.835,0,0,0-.2-1.083c-1.756-1.915-3.486-3.854-5.224-5.785-1.4-1.553-2.909-3.023-4.157-4.69a23.26,23.26,0,0,1-2.026-3.878c-2.967-6.109-5.86-12.254-8.92-18.316a28.862,28.862,0,0,0-3.146-4.256c-1.8-2.345-3.6-4.689-5.439-7.008-.411-.519-.352-.8.153-1.2,2.891-2.316,5.755-4.665,8.627-7,.145-.118.278-.251.465-.421l-4.568-6.128c-.793-1.064-1.568-2.141-2.386-3.184a.816.816,0,0,1-.059-1.108c1.768-2.664,3.54-5.325,5.269-8.014,1.354-2.106,2.649-4.25,4-6.429-1.934-1.407-3.817-2.857-5.781-4.186-3.028-2.049-5.406-4.8-8.073-7.243-.4-.365-.214-.663.011-1.009q3.47-5.355,6.929-10.717l3.553-5.5c-.58-.4-1.135-.79-1.7-1.168Q370.34,257.9,358.75,250.1c-.112-.076-.236-.135-.355-.2.015-.335-.168-.818.5-.663q5.8,3.927,11.6,7.854,6.6,4.455,13.2,8.9c.09.061.189.108.366.209l6.376-9.849.664.376-6.4,9.916c1.151.782,2.261,1.54,3.375,2.292q5.394,3.64,10.8,7.266c.225.151.606.308.806.219,2.039-.908,4.055-1.867,6.138-2.84-.7-1.52-1.369-2.964-2.039-4.406-1.522-3.274-3.037-6.55-4.576-9.816-.252-.535-.181-.861.358-1.135.71-.362,1.392-.779,2.131-1.2l-.415-.957.6-.342.535.87,1.054-.557.452.581-1.175.718c.537,1.106,1.079,2.21,1.609,3.319,1.105,2.309,2.186,4.629,3.311,6.928q1.869,3.818,3.817,7.6a.972.972,0,0,0,.737.439c4.505-.185,9.009-.4,13.513-.628a1.513,1.513,0,0,0,.769-.236c2.432-1.731,4.849-3.482,7.271-5.228.09-.065.184-.126.333-.227l-6.255-13.736.62-.349a1.956,1.956,0,0,1,.161.238c2.019,4.42,4.026,8.844,6.063,13.255a.941.941,0,0,1-.2,1.224c-1.779,1.927-3.356,4-3.785,6.677-.49,3.049-.322,6.005,2.048,8.33a16.218,16.218,0,0,0,2.844,1.975,1.2,1.2,0,0,1,.7,1.179c-.043,1.265-.013,2.533-.013,3.941h17.592c0-.864-.047-1.821.017-2.77a4.7,4.7,0,0,1,.4-1.725c1.563-3.17,3.292-6.263,4.729-9.487a52.536,52.536,0,0,0,1.651-5.6,5.106,5.106,0,0,0-.15-3.262,20.766,20.766,0,0,1-.955-7.749A15.663,15.663,0,0,1,460.6,257.8c.222-.687.526-1.348.846-2.153,1.562,1.2,2.946,2.286,4.348,3.347,2.446,1.851,4.868,3.735,7.361,5.519a49.744,49.744,0,0,0,9.469,5.176c15.218,6.511,30.088,13.766,44.949,21.038a7.571,7.571,0,0,0,.837.3ZM411.9,336.637c0-.558,0-1.018,0-1.477a37.015,37.015,0,0,1,.056-4.291c.615-4.955,1.326-9.9,2.027-14.842a1.126,1.126,0,0,0-.521-1.238q-9.426-6.825-18.825-13.688c-2.314-1.685-4.623-3.375-7.045-5.144L378.305,310.5l7.041,9.432,5.16-4.172.447.609-5.123,4.177c.118.178.2.315.3.443,3.385,4.538,6.861,9.012,10.107,13.646a4.29,4.29,0,0,0,4.2,2.045C404.187,336.534,407.95,336.637,411.9,336.637Zm24.445-43.827c.1,8.212.209,16.364.314,24.625l18.607-1.081c-.109-1.384-.215-2.7-.315-4.008-.25-3.292-.555-6.582-.728-9.878-.152-2.887-.18-5.782-.206-8.674-.007-.744-.252-.906-.962-.906-3.982,0-7.964-.05-11.946-.077C439.565,292.8,438.023,292.811,436.342,292.811Zm42.395-22.419c-1.8.656-3.45,1.241-5.09,1.86-4.209,1.59-8.418,3.182-12.611,4.813a2.143,2.143,0,0,0-1.042.915c-1.634,3.134-3.156,6.326-4.837,9.433-.857,1.585-.3,3.154-.482,4.866h24.7C479.167,285.016,478.953,277.768,478.737,270.392ZM415.217,381.5c1.475-1.807,2.862-3.526,4.272-5.225a8.113,8.113,0,0,1,1.524-1.618c2.719-1.846,5.485-3.621,8.237-5.417,1.35-.882,2.706-1.753,4.09-2.649-.42-.639-.753-1.178-1.119-1.693a4.637,4.637,0,0,1-.949-3.075c.074-1.177.016-2.362.016-3.577a2.678,2.678,0,0,0-.325-.041c-5.833-.05-11.666-.09-17.5-.162a.861.861,0,0,0-.913.623q-3.054,6.613-6.134,13.212c-.651,1.4-.646,1.406.549,2.456.228.2.458.4.688.6Zm-16.362-104.4-14.58-9.818c-1.153,1.784-2.272,3.516-3.392,5.248q-3.373,5.217-6.746,10.433c-.2.312-.507.579-.058.984,2.233,2.014,4.367,4.146,6.683,6.058,2.1,1.734,4.392,3.24,6.654,4.887l7.728-12.009-14.053-9.382.465-.617,14,9.347Zm36.963,23.564c-2.085,0-4.016-.054-5.943.012-3.757.129-7.51.332-11.266.483-.5.02-.809.1-.928.667-.87,4.154-1.764,8.3-2.659,12.453a.875.875,0,0,0,.411,1.036c1.25.863,2.447,1.8,3.7,2.655a2.251,2.251,0,0,0,1.274.387c4.168-.206,8.333-.457,12.5-.7.984-.057,1.967-.13,2.908-.192Zm-59.7,27.764a1.05,1.05,0,0,0,.077.238c1.874,2.425,3.763,4.839,5.622,7.275a34.057,34.057,0,0,1,3.045,4.217,88.9,88.9,0,0,1,4.058,8.418c.684,1.654,1.582,2.3,3.359,2.128,1.689-.162,3.406-.035,5.127-.035.024-.249.056-.411.054-.572-.06-4.141-.115-8.281-.2-12.42a1.818,1.818,0,0,0-.38-.957q-4.232-5.727-8.5-11.43c-1.048-1.406-2.1-2.808-3.18-4.248Zm103.96-13.52c-.224-7.293-.444-14.481-.669-21.818H454.842c0,1.161-.012,2.369,0,3.577.019,1.463.027,1.416,1.489,1.348,4.144-.192,8.29-.334,12.434-.517.613-.027.82.2.866.794.327,4.241.679,8.479,1.029,12.718.12,1.45.257,2.9.394,4.429Zm-74.9,57.774c.118-.225.184-.341.24-.462q3.016-6.494,6.026-12.991a2.042,2.042,0,0,0,.265-.771c.021-2.284.012-4.569.012-6.958H390.459a2.884,2.884,0,0,0,.119.345q2.34,4.844,4.69,9.683a2.724,2.724,0,0,0,.421.606q2.2,2.465,4.413,4.919C401.764,368.907,403.431,370.75,405.178,372.688Zm.258,1.338c-.974,2.091-1.828,4.13-2.862,6.074a3.931,3.931,0,0,0-.232,4.027,8.554,8.554,0,0,1,.451,1.414c1.5,4.549,2.986,9.1,4.5,13.64a10.831,10.831,0,0,0,.807,1.52l14.017-12.183ZM457.15,327.37l-.2.091c.583,7.123,1.165,14.245,1.728,21.122a7.327,7.327,0,0,1,1.788,1.363,1.256,1.256,0,0,0,1.327.629q9.193-.532,18.387-1.038a2.474,2.474,0,0,0,.429-.119Zm11.689-29.091-14.152.574c.44,5.832.875,11.591,1.317,17.457l14.279-.824C469.8,309.724,469.322,304.04,468.839,298.28Zm-11.555,42.665-25.674,1.5.633,8.451h24.2c.224-.434.332-1.043.67-1.224,1.013-.544.773-1.384.721-2.2-.038-.606-.1-1.21-.148-1.815C457.553,344.12,457.422,342.585,457.283,340.945Zm-34.623,47.02c5.353-4.383,11.288-7.834,16.849-11.919l-5.73-8.811c-1,.6-1.941,1.124-2.833,1.714-2.026,1.339-4.008,2.746-6.049,4.063-2.207,1.425-4.394,2.828-5.928,5.063-.945,1.375-2.089,2.614-3.167,3.941Zm-7.729-95.379c-1.559-.12-3.015-.2-4.461-.362a3.951,3.951,0,0,1-1.517-.535c-1.364-.813-2.689-1.691-4.047-2.554l-8.392,12.4,13.951,10.148C411.967,305.262,413.439,298.967,414.932,292.586Zm42.3,47.6-.672-8.142-25.635,1.169c.211,2.835.416,5.6.629,8.464Zm-26.987-16.069c.213,2.856.415,5.57.62,8.333l25.622-1.168c-.122-1.585-.22-3.091-.373-4.592-.024-.231-.273-.465-.465-.649-.9-.859-1.786-1.732-2.736-2.531a1.96,1.96,0,0,0-1.217-.465c-6.018.27-12.034.582-18.05.886C432.544,323.986,431.445,324.051,430.241,324.117Zm-32.064,26.568h13.611V337.462H398.177ZM461.753,256.9c-.236.608-.418,1.16-.66,1.684-1.529,3.317-.865,6.639.016,9.939.339,1.271.817,2.45.349,3.831a35.658,35.658,0,0,0-.875,4.031l18.951-7.086c-3.047-1.971-6.1-3.829-9.028-5.871C467.542,261.36,464.7,259.111,461.753,256.9Zm9.033,64.618-14.286.5c.118,1.353.215,2.611.349,3.866a1.015,1.015,0,0,0,.332.535c2.1,2.023,4.2,4.048,6.329,6.048,2.146,2.02,4.313,4.018,6.48,6.015.729.672,1.488,1.312,2.408,2.121C471.849,334.116,471.324,327.886,470.786,321.517Zm-39.321,29.278c-.307-4.122-.61-8.19-.914-12.273a2.313,2.313,0,0,0-.372-.071c-2.7.01-5.391.028-8.087.034-.662,0-1.167,0-1.492.839-1.292,3.313-2.7,6.58-4.068,9.865-.2.492-.391.991-.632,1.606Zm-43.423-55.443,7.936,5.818,8.248-12.475-8.433-5.391Zm31.108-.309-1.149,5.4,17.62-.749v-7H422.07C421.543,294.306,421.029,294.727,419.15,295.043Zm52.409,26.463c.373,4.573.737,9.038,1.1,13.551.4,0,.725.012,1.052,0,1.978-.082,3.955-.186,5.934-.25,1.181-.038,1.187-.012,1.137-1.2q-.207-4.876-.422-9.752c-.038-.871-.077-1.741-.118-2.657Zm-14.928,30.462-.02-.234h-24.38v5.774H450.6c0-1.337,0-2.658,0-3.979,0-.431.09-.746.615-.8.934-.095,1.864-.227,2.794-.359C454.882,352.247,455.756,352.1,456.631,351.968ZM404.685,288.08c.491-.693.974-1.3,1.369-1.957a2.23,2.23,0,0,1,1.463-1.083c1.031-.266,2.036-.634,3.137-.986l-4.526-9.787c-2.105.987-4.153,1.943-6.2,2.912a1.086,1.086,0,0,0-.427.365c-1.1,1.683-2.179,3.375-3.3,5.111Zm8.491,39.293c.075.089.09.125.11.128,3.467.532,6.934,1.066,10.405,1.576a.6.6,0,0,0,.477-.3c.678-1.562,1.326-3.137,1.988-4.72l-11.394-8.3C414.217,319.757,413.692,323.6,413.176,327.374Zm18.249,24.31a1.374,1.374,0,0,0-.314-.076c-5.035-.022-10.07-.046-15.106-.034a.973.973,0,0,0-.667.525c-.526,1.154-.995,2.333-1.478,3.506-.224.545-.434,1.095-.7,1.773h18.266Zm15.605,19.309-5.935-8.606c-2.164,1.389-4.238,2.73-6.325,4.052-.4.254-.324.468-.1.8.863,1.306,1.687,2.639,2.546,3.948.972,1.482,1.967,2.949,2.968,4.446Zm3.354-12.6h-8.967c.067,1.805-.03,3.532,1.263,5.032a43.256,43.256,0,0,1,2.542,3.764c.777,1.125,1.605,2.214,2.466,3.394,1.322-.927,2.568-1.836,3.851-2.687.936-.62.951-.58.268-1.473a5.6,5.6,0,0,1-1.453-4.238A31.424,31.424,0,0,0,450.385,358.388Zm-37.871-21.671a18.589,18.589,0,0,1,7.4.88c.412.107.636,0,.81-.435.774-1.938,1.59-3.858,2.4-5.783.207-.493.439-.976.682-1.515l-10.913-1.6C412.762,331.105,412.642,333.815,412.515,336.717Zm60.194-1c.151,1.743.264,3.363.45,4.975a1.993,1.993,0,0,0,.512,1.141c2.353,2.256,4.743,4.474,7.127,6.7a2.609,2.609,0,0,0,.427.257c-.156-4.485-.309-8.884-.464-13.348Zm-46.837-59.965-13.8.679c.941,1.927,1.8,3.71,2.694,5.474a.781.781,0,0,0,.612.252c3.314-.083,6.627-.187,9.939-.292a4.009,4.009,0,0,0,.558-.087ZM418.6,289.785c1.739-.2,2.53.22,3.291,1.667.079.151.236.368.361.37,1.285.028,2.57.017,3.76.017v-9.251l-10.762.348Zm11.339,28.81c.381,1.019.758,1.934,1.061,2.873.169.524.448.627.97.608,5.833-.208,11.668-.387,17.5-.577.35-.011.7-.044,1.245-.08-1.262-1.174-2.4-2.2-3.5-3.272a1.627,1.627,0,0,0-1.41-.467c-1.239.111-2.485.134-3.728.205C438.072,318.116,434.071,318.353,429.939,318.594Zm-17.412,32.159a14.738,14.738,0,0,1,1.62.011c.688.082,1.01-.186,1.266-.829,1.005-2.534,2.075-5.043,3.124-7.56.545-1.306,1.1-2.609,1.758-4.174-2.376-.274-4.58-.52-6.782-.789-.808-.1-1.032.22-1.023,1.015.044,3.831.03,7.664.037,11.5C412.528,350.165,412.528,350.406,412.528,350.754Zm3.163-58.045q-2.234,9.551-4.441,19.035a.688.688,0,0,0,.123.579c.9.7,1.839,1.354,2.858,2.092.523-2.471,1.008-4.784,1.5-7.1.849-3.962,1.711-7.921,2.546-11.885a1.1,1.1,0,0,0-.138-.8c-.467-.616-1.005-1.18-1.516-1.763l.137-.159Zm19.847-.8c0-1.18-.026-2.311.012-3.44a.96.96,0,0,0-.6-1.03,8.828,8.828,0,0,1-4.542-4.614c-.058-.148-.252-.341-.388-.344-1.066-.028-2.134-.016-3.1-.016v9.444Zm35.185,28.854c-.138-1.59-.263-3.035-.391-4.517l-14.215.838.326,4.173Zm-19.581,37.662c0,1.8,0,3.559,0,5.316a.691.691,0,0,0,.094.313c.422.772.879,1.527,1.268,2.315.285.577.574.6,1.075.237,1.467-1.074,2.908-2.2,4.465-3.128a2.168,2.168,0,0,0,1.218-2.676c-.177-.734.076-1.842-.346-2.178-.505-.4-1.524-.186-2.321-.193C454.84,358.41,453.081,358.422,451.141,358.422Zm-10.583-.127h-8.39c-.092,2.8-.7,5.7,1.909,7.884.66-.472,1.344-.981,2.047-1.46.729-.5,1.477-.967,2.218-1.448,2.6-1.691,2.6-1.691,2.281-4.764A2.177,2.177,0,0,0,440.559,358.295Zm-31.434-86.238-7.076-14.363-2.17,1.242,6.6,14.309ZM471.1,316.21c.131,1.536.255,2.978.387,4.524l8.634-.288v-4.769Zm-41.63,7.944a20.812,20.812,0,0,0-2.091.134,1.057,1.057,0,0,0-.69.523c-1.019,2.292-2,4.6-2.98,6.908a10.2,10.2,0,0,0-.33,1.194l6.709-.472C429.887,329.684,429.685,326.971,429.475,324.154Zm.687,9.294c-2.218,0-4.339-.017-6.459.02a1.041,1.041,0,0,0-.786.451c-.583,1.234-1.092,2.5-1.618,3.737h9.193C430.372,336.124,430.262,334.731,430.162,333.448ZM411.006,284.82c-2.341.571-4.688,1.009-5.512,3.71,2.516,1.815,5.068,3.782,8.629,3.034Zm47.735,68.545a4.617,4.617,0,0,0-3.038-.507c-1.416.309-2.87.446-4.348.664v4.123h7.682C458.935,356.174,458.836,354.753,458.74,353.365ZM414.134,282.4l-4.729-9.674-2.575,1.229,4.545,9.815Zm.328.691-2.768,1.389c1.1,2.368,2.153,4.667,3.241,6.951a.938.938,0,0,0,.608.4,7.066,7.066,0,0,0,1.115.069c.387-.565.738-1.047,1.052-1.552a.627.627,0,0,0,.063-.51C416.7,287.62,415.6,285.4,414.463,283.1Zm17.2-11.119c-1.584,1.138-3.17,2.272-4.746,3.421a.692.692,0,0,0-.282.457c-.019,1.948-.013,3.9-.013,5.852h3.4A13.09,13.09,0,0,1,431.665,271.976Zm23.671,45.142-7.621.446c1.4,1.312,2.666,2.493,3.932,3.668a.485.485,0,0,0,.288.137c1.231.009,2.462.006,3.748.006C455.558,319.846,455.451,318.533,455.336,317.118Zm-34.375,1.993-.046.179,5.54,4.035,1.933-4.644Zm26.586,3.356,0-.088c-.855,0-1.71-.025-2.564,0q-6.754.229-13.507.491a.877.877,0,0,1-1.019-.7c-.369-1.082-.8-2.141-1.275-3.393l-1.956,4.717ZM419.474,290.51a1.832,1.832,0,0,0-1.9,1.845,1.858,1.858,0,1,0,1.9-1.845ZM458.73,349.7a1.378,1.378,0,0,0-1.4,1.336,1.357,1.357,0,0,0,1.319,1.407,1.372,1.372,0,1,0,.085-2.743Zm-46.179,6.736.122.032,2.031-4.878h-2.152Zm40.08-34.276,3.388,3.171c-.106-1.222-.193-2.225-.286-3.308Z" transform="translate(-358.383 -249.202)" fill="#121212"/>
              <ellipse id="Ellipse_1085" data-name="Ellipse 1085" cx="2.717" cy="2.717" rx="2.717" ry="2.717" transform="translate(109.905 69.398)" fill="#121212"/>
            </g>
          </g>
        </g>
      </g>
    </g>
    <g id="Group_37139" data-name="Group 37139" transform="translate(0 0)">
      <path id="Path_38923" data-name="Path 38923" d="M415.038,232.177s-58.5,37.438-78.386,39.778l2.34,28.079s5.85,83.066,76.046,118.165a125.993,125.993,0,0,0,40.223-31.741,139.6,139.6,0,0,0,14.121-20.111c19.374-33.227,21.7-66.313,21.7-66.313l2.34-28.079C473.536,269.615,415.038,232.177,415.038,232.177ZM486.955,301.4s-2.317,32.887-21.937,65.108h-.012a131.491,131.491,0,0,1-13.443,18.368,118.883,118.883,0,0,1-36.525,28.266c-66.371-33.192-71.9-111.742-71.9-111.742l-2.211-26.558c18.8-2.211,74.116-37.614,74.116-37.614s55.315,35.4,74.128,37.614Z" transform="translate(-336.652 -232.177)" fill="#fff"/>
    </g>
    <g id="Group_37140" data-name="Group 37140" transform="translate(38.587 33.086)">
      <path id="Path_38924" data-name="Path 38924" d="M580.584,497.815c0-.311,0-.613,0-.908a3.106,3.106,0,0,0-.532-1.735,3.482,3.482,0,0,0-.1-1.464c-.353-1.18-.745-2.337-1.126-3.455-.12-.353-.241-.707-.357-1.06a10.636,10.636,0,0,1-1.378-2.356l-.8-1.068a4.432,4.432,0,0,0,.179-2.36,5.167,5.167,0,0,0-3.117-3.568,30.157,30.157,0,0,0-3.6-1.405c-.462-.155-.928-.311-1.386-.481a3.6,3.6,0,0,0-.431-.124c-.035-.136-.066-.272-.093-.4q-.716-3.476-1.417-6.949c-.982-4.833-2-9.829-3.059-14.74a20.624,20.624,0,0,1-.326-2.787c-.054-.753-.109-1.526-.221-2.333a4.114,4.114,0,0,0-2.384-3.362c-.311-1.564-1.4-7.011-1.856-9.3-.128-.637-.206-1.033-.206-1.033a3.1,3.1,0,0,0-3.044-2.5,3.442,3.442,0,0,0-.881.128q-2.329.687-4.666,1.363l-.508.148a3.109,3.109,0,0,0-2.189,3.6s1.506,7.488,2,9.942c-1.293,1.192-1.491,2.582-.85,4.825.019.07.039.144.058.217.05.2.113.439.2.7a4.286,4.286,0,0,0-.439,3.606,4.189,4.189,0,0,0,2,2.333q.938,4.653,1.856,9.309c.016.085.035.175.05.26q.483,2.446.971,4.887c.19.955.38,1.914.571,2.869.54,2.694-.051,3.688-1.413,4.666-4.107,2.958-4.934,7.143-4.868,10.695.008.485.031.959.066,1.413.031.384.066.757.109,1.118a3.1,3.1,0,0,0,.815,1.766,22.4,22.4,0,0,0,.353,2.776,21.547,21.547,0,0,0,.831,3.117,22.427,22.427,0,0,0,4.852,7.939,14.962,14.962,0,0,0,11.262,5.144c.307,0,.617-.008.924-.027a12.824,12.824,0,0,0,6.588-2.252,3.175,3.175,0,0,0,.916-.974,7.7,7.7,0,0,0,3.855-4.433,3.179,3.179,0,0,0,.14-.59,7.3,7.3,0,0,0,2.151-6.1,3.536,3.536,0,0,0-.054-.353,3.915,3.915,0,0,0,.536-1.782C580.6,499.721,580.588,498.75,580.584,497.815Zm-22.011,10.8a15.415,15.415,0,0,1-4.488-17.5c.3-.664.695-1.281,1.141-2.1.544,2.189.994,4.158,1.529,6.106.547,2,1.075,4.033,2.76,5.586a14.314,14.314,0,0,1-.206-2.127,1.152,1.152,0,0,1,.578-.854c.2-.082.7.194.846.439a8.809,8.809,0,0,1,.66,1.627c.1.3.167.617.241.912,1.495-.066,1.859-.439,1.7-1.844-.248-2.232-.551-4.46-.831-6.689.1-.1.2-.2.3-.3a5.357,5.357,0,0,0,.446.85,11.057,11.057,0,0,1,1.879,10.8,5.34,5.34,0,0,1-2.512,3.11,4.242,4.242,0,0,1-3.614.159,4.994,4.994,0,0,0,7.2-.33,9.148,9.148,0,0,0,2.259-5.761,13.347,13.347,0,0,0-2.364-8.832,8.011,8.011,0,0,0-3.672-2.985.976.976,0,0,1-.512-.582c-.151-.594-.206-1.211-.318-1.925a8.573,8.573,0,0,1,4.491,2.29A15.634,15.634,0,0,1,569.757,505c-1.013,2.508-2.62,4.441-5.415,5.043A6.941,6.941,0,0,1,558.573,508.618Z" transform="translate(-503.94 -388.996)" fill="#fff"/>
      <path id="Path_38925" data-name="Path 38925" d="M582.372,501.8h-4.006c1.091-.528,2.127-1,3.121-1.541a.9.9,0,0,0,.38-.769c-.446-1.491-.963-2.962-1.452-4.414-2.748.606-3.3.621-4.134.128a4.889,4.889,0,0,0,3.214-1.611c-.695-.928-1.366-1.825-2.034-2.713,1.3-1.487,1.192-2.492-.578-3.354a48.956,48.956,0,0,0-4.7-1.759c-.031.082-.066.163-.1.245,1.871.761,3.9,1.269,5.287,3.3-3.82,1.161-6.77-1.013-10.058-1.762a2.961,2.961,0,0,1,3.043-2.011c-.245-.928-.5-1.751-.672-2.589-1.491-7.221-2.915-14.453-4.472-21.658-.388-1.786-.346-3.579-.586-5.357-.1-.741-.466-1.056-1.165-1.021-.641.027-.819-.28-.935-.881q-.821-4.123-1.642-8.238c-.206-1.017-.408-2.038-.609-3.055-.019-.1-.043-.21-.062-.314-1.642.485-3.28.967-4.926,1.44-.089.027-.182.05-.272.078q.314,1.572.629,3.141l1.63,8.106c.078.38.2.675-.287.959-1.339.769-1.316.8-.885,2.321.082.283.14.575.241.854a.71.71,0,0,0,.272.4c.524.252.633.551.291,1-.2.26-.443.481-.629.745-.8,1.11-.512,1.867.788,2.259a1.06,1.06,0,0,1,.668.617q.984,4.856,1.941,9.721.868,4.42,1.751,8.835c.625,3.117.233,5.726-2.64,7.8-3.424,2.469-3.9,6.188-3.424,10.353.194-.633.314-1.044.446-1.456s.264-.819.443-1.363a2.254,2.254,0,0,1,.066.334,2.078,2.078,0,0,1-.023.264,21.187,21.187,0,0,0,.555,8.047,19.15,19.15,0,0,0,4.554,8.009,11.919,11.919,0,0,0,9.732,4.134,9.649,9.649,0,0,0,5.012-1.72c-.431-.19-.749-.33-1.246-.551a4.975,4.975,0,0,0,4.833-3.3l-2.042-.3c2.9-.706,4.422-2.519,4.177-5.085a5.765,5.765,0,0,1-3.75-.516,5.915,5.915,0,0,0,3.7-1.215,1.366,1.366,0,0,0,.524-.842C582.4,504.223,582.372,502.958,582.372,501.8Zm-7.717,8.094c-1.013,2.508-2.62,4.441-5.415,5.043a6.941,6.941,0,0,1-5.769-1.425,15.416,15.416,0,0,1-4.488-17.5c.3-.664.695-1.281,1.141-2.1.544,2.189.994,4.158,1.529,6.106.547,2,1.075,4.033,2.76,5.586a14.273,14.273,0,0,1-.206-2.127,1.151,1.151,0,0,1,.578-.854c.2-.082.7.194.846.439a8.81,8.81,0,0,1,.66,1.627c.1.3.167.617.241.912,1.495-.066,1.859-.439,1.7-1.844-.248-2.232-.551-4.46-.831-6.689.1-.1.2-.2.3-.3a5.355,5.355,0,0,0,.447.85,11.058,11.058,0,0,1,1.879,10.8,5.341,5.341,0,0,1-2.512,3.109,4.241,4.241,0,0,1-3.614.159,4.994,4.994,0,0,0,7.2-.33,9.149,9.149,0,0,0,2.259-5.761,13.347,13.347,0,0,0-2.364-8.832,8.012,8.012,0,0,0-3.672-2.985.975.975,0,0,1-.512-.582c-.151-.594-.206-1.211-.318-1.926a8.575,8.575,0,0,1,4.492,2.29A15.634,15.634,0,0,1,574.655,509.895Z" transform="translate(-508.837 -393.891)" fill="#fff"/>
      <path id="Path_38926" data-name="Path 38926" d="M503.726,370.614a3.105,3.105,0,0,1-3.045-2.493c-1.141-5.674-2.349-11.4-3.517-16.931s-2.371-11.231-3.512-16.9q-.117-.579-.238-1.158a4.245,4.245,0,0,1-1.383-2.448q-.508.017-1.017.038c-.509.02-1.018.04-1.527.055-.1,0-.184.005-.269.005a3.845,3.845,0,0,1-2.014-.517,1.162,1.162,0,0,0-.447-.045c-.224,0-.488.016-.768.033-.248.015-.5.03-.744.038-2.656.085-5.366.2-7.986.32l-.533.024a4.154,4.154,0,0,1-1.576.318,4.048,4.048,0,0,1-3.406-1.919,7.024,7.024,0,0,1-.212-7.052c.006-.033.013-.066.02-.1a3.106,3.106,0,0,1,1.911-2.231,5.128,5.128,0,0,1,1.856-.362,4.594,4.594,0,0,1,1.646.293l4.543,0,2.594,0c.335,0,.716,0,1.122,0a5.24,5.24,0,0,1,3.671-1.539c.121,0,.246,0,.373.013.268.017.566.026.91.026.433,0,.866-.013,1.3-.026.334-.01.668-.019,1-.024l.228,0a3.744,3.744,0,0,1,2.728,1.08c.768-.172,1.534-.336,2.282-.5l.884-.189c.054-.012.107-.022.158-.031a5.829,5.829,0,0,1,3.455-.967c.185,0,.371,0,.558.01l.416.011c.22.007.441.013.661.013s.377-.007.517-.021c.2-.02.4-.03.6-.03a7.62,7.62,0,0,1,4.061,1.356l0,0c2.724-.005,5.475-.03,8.185-.073a5.213,5.213,0,0,1,2.292-.562,4.627,4.627,0,0,1,3.654,1.814,7.214,7.214,0,0,1,.677,7.8,4.468,4.468,0,0,1-3.981,2.45,5.231,5.231,0,0,1-1.632-.272c-4.113.037-8.2.084-12.292.131a3.1,3.1,0,0,1-.8,2.056q.089.457.18.913s4.85,24.28,6.511,32.6a3.1,3.1,0,0,1-2.192,3.593c-.962.275-1.859.488-2.726.695-.8.189-1.549.368-2.338.59A3.114,3.114,0,0,1,503.726,370.614Z" transform="translate(-457.243 -317.405)" fill="#fff"/>
      <path id="Path_38927" data-name="Path 38927" d="M494.289,332.563c1.112-.033,2.223-.089,3.334-.117a2.227,2.227,0,0,1,.777.1c.877.3,1.339.156,1.668-.7a4.713,4.713,0,0,0,.3-1.554c.011-.483.121-.837.606-.923,1.464-.26,2.934-.485,4.445-.731.24,1.374.437,2.494.641,3.658l-3,.4c1.8,10.273,3.577,20.429,5.355,30.586l-.172.031-6.3-30.483-2.126.313c.051,2.253.2,2.59,1.226,2.752.183.883.373,1.779.553,2.676,2.283,11.348,4.748,22.488,7.029,33.836,1.747-.491,3.308-.782,5.05-1.28q-3.253-16.3-6.511-32.6c-.223-1.115-.435-2.233-.654-3.36l1.216-.245c-.406-2.822-.8-5.581-1.2-8.341l.327-.105a4.717,4.717,0,0,1,.4.931c.215,1.074.384,2.157.564,3.238.2,1.193.244,1.231,1.492,1.217q6.89-.08,13.779-.149a2.914,2.914,0,0,1,.947.138,1.463,1.463,0,0,0,2-.747,4.168,4.168,0,0,0-.375-4.285,1.609,1.609,0,0,0-2.214-.423,2.421,2.421,0,0,1-.987.3q-4.446.072-8.893.078a2.015,2.015,0,0,1-.976-.286,4.905,4.905,0,0,0-3.022-1.058,15.119,15.119,0,0,1-1.866.013,3.1,3.1,0,0,0-2.637.716c-.176.188-.6.135-.914.2-1.349.291-2.7.573-4.045.886-.311.072-1.785-.373-1.837-.687-.093-.561-.448-.526-.846-.52-1.156.018-2.316.094-3.467.017a2.467,2.467,0,0,0-2.116,1.122l2.044-.1c.007.083.014.165.021.249a17.972,17.972,0,0,1-1.966.245c-1.926.035-3.854.017-5.781.019q-2.107,0-4.215,0l-.075.3a4.937,4.937,0,0,0,1.2.426c.824.073,1.658.038,2.488.039,2.274,0,4.549,0,6.893,0-.047.491-.075.776-.109,1.118l-10.025.636c-.564-2.356-1.47-3.189-2.83-2.661a3.736,3.736,0,0,1,.878,4.4c-1.289-.943-1.163-2.292-1.084-3.687a3.944,3.944,0,0,0-.068,4.024.946.946,0,0,0,1.355.419,2.411,2.411,0,0,1,.948-.176c2.842-.125,5.686-.252,8.529-.344,1.226-.04,2.483-.278,3.641.405A1.2,1.2,0,0,0,494.289,332.563Zm23.817-5.134c1.984-.031,3.968-.1,5.952-.153.5-.014.969,0,1.087.635.083.447.023.722-.551.734-3.7.076-7.4.18-11.215.277-.087-.465-.159-.858-.276-1.489C514.856,327.434,516.482,327.454,518.107,327.429Z" transform="translate(-462.137 -322.3)" fill="#fff"/>
      <path id="Path_38928" data-name="Path 38928" d="M448.367,568a7.964,7.964,0,0,1-3.129-.67,10.67,10.67,0,0,1-4.9-4.29,21.479,21.479,0,0,1-3.358-14.354,3.1,3.1,0,0,1-.53-1c-1.459-4.631,1.236-11.357,5.441-13.58a9.474,9.474,0,0,1,4.413-1.072,11,11,0,0,1,7.464,3.033,17.068,17.068,0,0,1,3.821,5.958,11.685,11.685,0,0,0,.922,1.7c3.291-.03,6.638-.076,9.882-.119q3.673-.049,7.345-.093c2-4.458,4.036-8.958,6.012-13.321l1.632-3.6c.1-.222.207-.441.313-.661l.125-.262a3.106,3.106,0,0,1,2.8-1.77,3.072,3.072,0,0,1,.411.027l.15.02a3.105,3.105,0,0,1,2.685,2.649l1.223,8.706c.014.1.025.207.035.312a4.011,4.011,0,0,1-1.965,4.686c-2.574,1.631-4.122,4.087-4.87,7.729-.05.245-.089.494-.132.765-.026.162-.091.555-.1.578a4.178,4.178,0,0,1,.3,1.173c0,.021,0,.037.006.051a5.971,5.971,0,0,1-2.786,8.264,6.086,6.086,0,0,1-2.826.748c-.092,0-.182,0-.273-.007-5.86-.322-11.816-.672-17.575-1.011l-3.453-.2-.02.042a3.086,3.086,0,0,1-.064.657,8.717,8.717,0,0,1-1.284,3.43,3.093,3.093,0,0,1-.527,1.122c-.091.122-.177.247-.264.37a6.994,6.994,0,0,1-2.584,2.458,3.1,3.1,0,0,1-.752.583A7.361,7.361,0,0,1,448.367,568Z" transform="translate(-436.052 -443.736)" fill="#fff"/>
      <path id="Path_38929" data-name="Path 38929" d="M491.672,531.918q.611,4.352,1.222,8.7a3.435,3.435,0,0,0,.089.615c.218.645-.033.966-.6,1.328-3.578,2.267-5.42,5.681-6.251,9.728-.089.429-.148.865-.236,1.382-2.479-.1-4.93-.2-7.383-.293-5.925-.214-11.853-.367-17.774-.662a9.982,9.982,0,0,0-4.846,1.356c.469.033.707.059.947.066q10.66.329,21.321.655c2.37.075,4.739.192,7.11.25.538.013.829.153.889.714a2.983,2.983,0,0,0,.237.945,3.249,3.249,0,0,1-2.857,4.682c-7.607-.419-15.211-.874-22.816-1.319-.263-.015-.528,0-.765,0-.217.8-.2,1.815-.7,2.28s-1.524.422-2.483.636l2.439.362c-.535,2.588-.658,2.656-3.117,2.929l1.857.4c-.835,1.121-1.41,2.427-3.377,2.028l.764.521a4.321,4.321,0,0,1-4,.145,7.636,7.636,0,0,1-3.482-3.078,18.512,18.512,0,0,1-1.9-16.6,7.71,7.71,0,0,1,3.5-4.339c-2.022.438-3.083,2-4.164,3.555a7.307,7.307,0,0,1,2.379-4.233,4.635,4.635,0,0,1,6.569.88c.826,1.035,1.4,2.271,2.183,3.342a20.255,20.255,0,0,0,2.416,2.8,2.893,2.893,0,0,0,2.554.659,5.978,5.978,0,0,1-3.228-3.217c-.735-1.351-1.44-2.727-2.286-4.007a5.969,5.969,0,0,0-4.626-2.644,5,5,0,0,0-4.973,2.617,15.131,15.131,0,0,0-1.923,6.051c-.021.142-.038.285-.066.5-1.027-3.258,1.031-8.368,3.93-9.9a7.33,7.33,0,0,1,8.292,1.471,14.121,14.121,0,0,1,3.1,4.924,16.653,16.653,0,0,0,1.769,3.049,1.754,1.754,0,0,0,1.286.541c6.374-.055,12.747-.165,19.121-.231a1.109,1.109,0,0,0,1.188-.763q4.028-9,8.114-17.976c.132-.292.275-.578.413-.868Zm-37.735,22.53a13.04,13.04,0,0,0-2.155-5.286,3.711,3.711,0,0,0-.552-.577,1.579,1.579,0,0,0-2.536.248,6.991,6.991,0,0,0-.978,2.068,18.691,18.691,0,0,0-.251,8.109,13.963,13.963,0,0,0,2.269,6.29c1.277,1.735,2.868,1.64,3.627-.354a23.019,23.019,0,0,0,1.033-4.825,1.758,1.758,0,0,0-.8-1.55,29.1,29.1,0,0,1-.816,3.249c-.345.927-1.117.963-1.53.068a21.124,21.124,0,0,1-.873-2.864c-.076-.255-.173-.5-.26-.757l-.317.106c.17,2.425.493,4.8,2.214,6.776a1.254,1.254,0,0,1-1.723-.159,3.791,3.791,0,0,1-1.04-1.411c-.528-1.684-.941-3.405-1.372-5.119a7.224,7.224,0,0,1-.324-1.892,12.215,12.215,0,0,1,.365-2.529,30.2,30.2,0,0,1,1.048-3.556,1.658,1.658,0,0,1,1.678-1.231,2.19,2.19,0,0,1,1.691,1.409c-1.476.04-2.587,2.083-2.412,4.319.68.207.754-.349.961-.753.469-.919,1.088-1.018,1.549-.16C452.827,554.807,453.283,554.713,453.938,554.448Z" transform="translate(-440.929 -448.63)" fill="#fff"/>
    </g>
    <g id="Group_37141" data-name="Group 37141" transform="translate(41.681 36.191)">
      <path id="Path_38930" data-name="Path 38930" d="M578.364,501.8c1.092-.53,2.129-1,3.123-1.543a.9.9,0,0,0,.379-.766c-.445-1.492-.963-2.962-1.451-4.417-2.748.609-3.3.622-4.135.131a4.9,4.9,0,0,0,3.216-1.612l-2.036-2.715c1.3-1.484,1.193-2.49-.58-3.355a49.241,49.241,0,0,0-4.7-1.758l-.1.247c1.871.761,3.9,1.268,5.288,3.294-3.821,1.162-6.769-1.014-10.057-1.76a2.953,2.953,0,0,1,3.044-2.011c-.245-.929-.5-1.751-.675-2.59-1.488-7.22-2.912-14.453-4.471-21.658-.386-1.785-.345-3.579-.587-5.36-.1-.741-.465-1.054-1.163-1.021-.639.031-.818-.28-.937-.879q-1.154-5.8-2.313-11.607-2.6.767-5.2,1.517,1.13,5.624,2.261,11.248c.077.38.2.676-.289.958-1.336.769-1.315.8-.883,2.319.082.285.141.577.241.854a.721.721,0,0,0,.269.4c.526.251.634.552.291,1-.2.258-.439.483-.629.746-.8,1.108-.509,1.865.79,2.256a1.073,1.073,0,0,1,.667.62c1.251,6.181,2.456,12.372,3.694,18.555.625,3.119.232,5.725-2.641,7.8-3.424,2.467-3.9,6.186-3.424,10.353.193-.632.315-1.045.444-1.456s.266-.818.444-1.362a2.737,2.737,0,0,1,.067.332,2.359,2.359,0,0,1-.023.265,19.4,19.4,0,0,0,5.108,16.058,11.915,11.915,0,0,0,9.731,4.131,9.657,9.657,0,0,0,5.014-1.716l-1.247-.553a4.974,4.974,0,0,0,4.833-3.3l-2.041-.3c2.9-.709,4.422-2.518,4.177-5.087a5.777,5.777,0,0,1-3.751-.516,5.92,5.92,0,0,0,3.7-1.215,1.371,1.371,0,0,0,.526-.842c.058-1.263.025-2.53.025-3.683Zm-3.71,8.091c-1.012,2.509-2.622,4.442-5.416,5.044a6.958,6.958,0,0,1-5.769-1.424,15.421,15.421,0,0,1-4.484-17.5c.294-.663.692-1.281,1.139-2.1.544,2.188.995,4.159,1.528,6.107.548,2,1.078,4.032,2.762,5.586a14.6,14.6,0,0,1-.208-2.126,1.16,1.16,0,0,1,.581-.856c.2-.083.7.193.846.44a8.722,8.722,0,0,1,.658,1.624c.107.3.166.62.243.915,1.491-.068,1.857-.439,1.7-1.844-.247-2.234-.55-4.462-.829-6.692l.3-.293a5.388,5.388,0,0,0,.445.85,11.058,11.058,0,0,1,1.882,10.8,5.36,5.36,0,0,1-2.512,3.109,4.24,4.24,0,0,1-3.615.158,5,5,0,0,0,7.2-.328,9.149,9.149,0,0,0,2.258-5.764A13.327,13.327,0,0,0,571,496.77a7.99,7.99,0,0,0-3.669-2.983.979.979,0,0,1-.513-.585c-.152-.592-.209-1.209-.321-1.926a8.561,8.561,0,0,1,4.492,2.294A15.626,15.626,0,0,1,574.653,509.894Z" transform="translate(-511.93 -396.997)" fill="#121212"/>
      <path id="Path_38931" data-name="Path 38931" d="M494.289,332.563c1.112-.033,2.223-.089,3.334-.117a2.227,2.227,0,0,1,.777.1c.877.3,1.339.156,1.668-.7a4.713,4.713,0,0,0,.3-1.554c.011-.483.121-.837.606-.923,1.464-.26,2.934-.485,4.445-.731.24,1.374.437,2.494.641,3.658l-3,.4c1.8,10.273,3.577,20.429,5.355,30.586l-.172.031-6.3-30.483-2.126.313c.051,2.253.2,2.59,1.226,2.752.183.883.373,1.779.553,2.676,2.283,11.348,4.748,22.488,7.029,33.836,1.747-.491,3.308-.782,5.05-1.28q-3.253-16.3-6.511-32.6c-.223-1.115-.435-2.233-.654-3.36l1.216-.245c-.406-2.822-.8-5.581-1.2-8.341l.327-.105a4.717,4.717,0,0,1,.4.931c.215,1.074.384,2.157.564,3.238.2,1.193.244,1.231,1.492,1.217q6.89-.08,13.779-.149a2.914,2.914,0,0,1,.947.138,1.463,1.463,0,0,0,2-.747,4.168,4.168,0,0,0-.375-4.285,1.609,1.609,0,0,0-2.214-.423,2.421,2.421,0,0,1-.987.3q-4.446.072-8.893.078a2.015,2.015,0,0,1-.976-.286,4.905,4.905,0,0,0-3.022-1.058,15.119,15.119,0,0,1-1.866.013,3.1,3.1,0,0,0-2.637.716c-.176.188-.6.135-.914.2-1.349.291-2.7.573-4.045.886-.311.072-1.785-.373-1.837-.687-.093-.561-.448-.526-.846-.52-1.156.018-2.316.094-3.467.017a2.467,2.467,0,0,0-2.116,1.122l2.044-.1c.007.083.014.165.021.249a17.972,17.972,0,0,1-1.966.245c-1.926.035-3.854.017-5.781.019q-2.107,0-4.215,0l-.075.3a4.937,4.937,0,0,0,1.2.426c.824.073,1.658.038,2.488.039,2.274,0,4.549,0,6.893,0-.047.491-.075.776-.109,1.118l-10.025.636c-.564-2.356-1.47-3.189-2.83-2.661a3.736,3.736,0,0,1,.878,4.4c-1.289-.943-1.163-2.292-1.084-3.687a3.944,3.944,0,0,0-.068,4.024.946.946,0,0,0,1.355.419,2.411,2.411,0,0,1,.948-.176c2.842-.125,5.686-.252,8.529-.344,1.226-.04,2.483-.278,3.641.405A1.2,1.2,0,0,0,494.289,332.563Zm23.817-5.134c1.984-.031,3.968-.1,5.952-.153.5-.014.969,0,1.087.635.083.447.023.722-.551.734-3.7.076-7.4.18-11.215.277-.087-.465-.159-.858-.276-1.489C514.856,327.434,516.482,327.454,518.107,327.429Z" transform="translate(-465.232 -325.405)" fill="#121212"/>
      <path id="Path_38932" data-name="Path 38932" d="M491.672,531.918q.611,4.352,1.222,8.7a3.435,3.435,0,0,0,.089.615c.218.645-.033.966-.6,1.328-3.578,2.267-5.42,5.681-6.251,9.728-.089.429-.148.865-.236,1.382-2.479-.1-4.93-.2-7.383-.293-5.925-.214-11.853-.367-17.774-.662a9.982,9.982,0,0,0-4.846,1.356c.469.033.707.059.947.066q10.66.329,21.321.655c2.37.075,4.739.192,7.11.25.538.013.829.153.889.714a2.983,2.983,0,0,0,.237.945,3.249,3.249,0,0,1-2.857,4.682c-7.607-.419-15.211-.874-22.816-1.319-.263-.015-.528,0-.765,0-.217.8-.2,1.815-.7,2.28s-1.524.422-2.483.636l2.439.362c-.535,2.588-.658,2.656-3.117,2.929l1.857.4c-.835,1.121-1.41,2.427-3.377,2.028l.764.521a4.321,4.321,0,0,1-4,.145,7.636,7.636,0,0,1-3.482-3.078,18.512,18.512,0,0,1-1.9-16.6,7.71,7.71,0,0,1,3.5-4.339c-2.022.438-3.083,2-4.164,3.555a7.307,7.307,0,0,1,2.379-4.233,4.635,4.635,0,0,1,6.569.88c.826,1.035,1.4,2.271,2.183,3.342a20.255,20.255,0,0,0,2.416,2.8,2.893,2.893,0,0,0,2.554.659,5.978,5.978,0,0,1-3.228-3.217c-.735-1.351-1.44-2.727-2.286-4.007a5.969,5.969,0,0,0-4.626-2.644,5,5,0,0,0-4.973,2.617,15.131,15.131,0,0,0-1.923,6.051c-.021.142-.038.285-.066.5-1.027-3.258,1.031-8.368,3.93-9.9a7.33,7.33,0,0,1,8.292,1.471,14.121,14.121,0,0,1,3.1,4.924,16.653,16.653,0,0,0,1.769,3.049,1.754,1.754,0,0,0,1.286.541c6.374-.055,12.747-.165,19.121-.231a1.109,1.109,0,0,0,1.188-.763q4.028-9,8.114-17.976c.132-.292.275-.578.413-.868Zm-37.735,22.53a13.04,13.04,0,0,0-2.155-5.286,3.711,3.711,0,0,0-.552-.577,1.579,1.579,0,0,0-2.536.248,6.991,6.991,0,0,0-.978,2.068,18.691,18.691,0,0,0-.251,8.109,13.963,13.963,0,0,0,2.269,6.29c1.277,1.735,2.868,1.64,3.627-.354a23.019,23.019,0,0,0,1.033-4.825,1.758,1.758,0,0,0-.8-1.55,29.1,29.1,0,0,1-.816,3.249c-.345.927-1.117.963-1.53.068a21.124,21.124,0,0,1-.873-2.864c-.076-.255-.173-.5-.26-.757l-.317.106c.17,2.425.493,4.8,2.214,6.776a1.254,1.254,0,0,1-1.723-.159,3.791,3.791,0,0,1-1.04-1.411c-.528-1.684-.941-3.405-1.372-5.119a7.224,7.224,0,0,1-.324-1.892,12.215,12.215,0,0,1,.365-2.529,30.2,30.2,0,0,1,1.048-3.556,1.658,1.658,0,0,1,1.678-1.231,2.19,2.19,0,0,1,1.691,1.409c-1.476.04-2.587,2.083-2.412,4.319.68.207.754-.349.961-.753.469-.919,1.088-1.018,1.549-.16C452.827,554.807,453.283,554.713,453.938,554.448Z" transform="translate(-444.023 -451.736)" fill="#121212"/>
    </g>
    <path id="Path_38933" data-name="Path 38933" d="M579.146,586.89c-1.013,2.508-2.62,4.441-5.415,5.043a6.941,6.941,0,0,1-5.769-1.425,15.415,15.415,0,0,1-4.488-17.5c.3-.664.695-1.281,1.141-2.1.543,2.189.994,4.158,1.529,6.106.547,2,1.075,4.033,2.76,5.586a14.272,14.272,0,0,1-.206-2.127,1.151,1.151,0,0,1,.578-.854c.2-.082.7.194.846.439a8.82,8.82,0,0,1,.66,1.627c.1.3.167.617.241.912,1.495-.066,1.859-.439,1.7-1.844-.248-2.232-.551-4.46-.831-6.689.1-.1.2-.2.3-.3a5.358,5.358,0,0,0,.446.85,11.057,11.057,0,0,1,1.879,10.8,5.341,5.341,0,0,1-2.512,3.109,4.241,4.241,0,0,1-3.614.159,4.994,4.994,0,0,0,7.2-.33,9.15,9.15,0,0,0,2.259-5.761,13.347,13.347,0,0,0-2.364-8.831,8.012,8.012,0,0,0-3.672-2.985.976.976,0,0,1-.513-.582c-.151-.594-.206-1.211-.318-1.925a8.575,8.575,0,0,1,4.491,2.29A15.634,15.634,0,0,1,579.146,586.89Z" transform="translate(-474.742 -437.8)" fill="#fff"/>
  </g>
</svg>
